<svg width="245" height="50" viewBox="0 0 245 50" fill="none" xmlns="http://www.w3.org/2000/svg">
<path d="M4.16 36.764C4.40267 36.6947 5.02667 36.6427 6.032 36.608C8.49333 36.5387 11.8907 36.244 16.224 35.724C15.6 27.6467 15.0107 21.6147 14.456 17.628C13.832 12.844 12.948 9.88 11.804 8.736C11.7 8.736 11.2147 9.516 10.348 11.076C9.516 12.6013 8.528 15.392 7.384 19.448C6.24 23.4693 5.16533 29.2413 4.16 36.764ZM19.708 49.556C18.4253 49.556 17.628 49.0707 17.316 48.1C17.004 47.1293 16.8133 45.3787 16.744 42.848L16.484 39.156C13.0867 39.4333 10.1227 39.624 7.592 39.728C5.096 39.832 3.81333 39.884 3.744 39.884C3.36267 42.0333 3.15467 43.4547 3.12 44.148C3.05067 44.6333 2.808 45.032 2.392 45.344C1.976 45.656 1.54267 45.812 1.092 45.812C0.364 45.812 -3.46452e-07 45.4307 -3.46452e-07 44.668C-3.46452e-07 40.5427 0.312 36.1053 0.936 31.356C1.59467 26.572 2.51333 22.0827 3.692 17.888C4.90533 13.6587 6.344 10.192 8.008 7.488C9.70667 4.784 11.596 3.432 13.676 3.432C14.8893 3.432 16.016 3.88267 17.056 4.784C18.1307 5.68533 19.032 6.968 19.76 8.632C20.4187 10.4 21.008 13.2253 21.528 17.108C22.4293 23.66 23.2267 31.9453 23.92 41.964L24.128 45.084C24.128 46.3667 23.608 47.424 22.568 48.256C21.5627 49.1227 20.6093 49.556 19.708 49.556ZM30.7852 46.02H30.2652C29.4332 46.02 28.7572 45.2227 28.2372 43.628C27.5092 41.2707 27.1452 36.7987 27.1452 30.212C27.1452 27.508 27.2666 24.804 27.5092 22.1C27.7866 18.772 28.3586 16.6227 29.2252 15.652C30.1959 14.5427 31.2186 13.988 32.2932 13.988C32.7092 13.988 33.1252 14.092 33.5412 14.3H33.4892C33.6626 14.3693 33.8532 14.5253 34.0612 14.768C34.3039 15.0107 34.4599 15.2707 34.5292 15.548C34.7372 16.2413 34.8412 16.7267 34.8412 17.004C34.8412 17.316 34.8066 17.6627 34.7372 18.044C34.6332 18.7027 34.4946 20.3147 34.3212 22.88C34.7026 22.1867 35.1359 21.476 35.6212 20.748C37.3546 18.2173 39.2266 16.952 41.2372 16.952C42.1732 16.952 42.9879 17.2467 43.6812 17.836C44.4092 18.3907 44.7732 19.0493 44.7732 19.812C44.7732 20.3667 44.5479 20.9733 44.0972 21.632C43.6812 22.2907 43.0919 22.62 42.3292 22.62C41.9479 22.62 41.6359 22.4987 41.3932 22.256C41.1852 21.9787 40.9946 21.6147 40.8212 21.164L40.0932 20.748C40.0239 20.748 39.9372 20.7653 39.8332 20.8C39.7639 20.8347 39.6946 20.8867 39.6252 20.956C39.5559 20.9907 39.4519 21.0773 39.3132 21.216C39.1746 21.32 39.0359 21.4587 38.8972 21.632C37.3026 23.5387 36.2106 25.4627 35.6212 27.404C35.0666 29.3107 34.6679 31.72 34.4252 34.632C34.5639 36.0187 34.6679 37.1107 34.7372 37.908C34.8412 38.6707 34.9279 39.312 34.9972 39.832C35.1012 40.3173 35.1879 40.872 35.2572 41.496C35.2572 42.5013 34.8239 43.5067 33.9572 44.512C33.0906 45.5173 32.0332 46.02 30.7852 46.02ZM53.8253 39.052L53.7733 39C53.7733 39.0347 53.7906 39.052 53.8253 39.052ZM54.2933 39.156C54.6746 39.0867 54.9173 38.9653 55.0213 38.792C55.1599 38.584 55.3159 38.376 55.4893 38.168C56.1479 37.0933 56.5466 35.0653 56.6853 32.084C56.6853 31.0093 56.6159 30.108 56.4773 29.38C55.8533 25.6707 54.6919 22.88 52.9933 21.008C52.2653 22.3947 51.6759 23.764 51.2253 25.116L51.0173 25.636V25.74L51.1213 25.48V25.584C50.8093 25.9653 50.5146 27.6467 50.2373 30.628C50.2373 32.4307 50.3759 33.6787 50.6533 34.372C50.6533 34.476 50.6706 34.5453 50.7053 34.58C50.7746 35.0307 51.0866 35.7933 51.6413 36.868C52.2306 37.6653 52.9239 38.3587 53.7213 38.948C53.8599 39.0867 54.0506 39.156 54.2933 39.156ZM50.4453 44.668C47.9493 44.668 46.0773 43.2467 44.8293 40.404C43.7893 38.116 43.2693 35.62 43.2693 32.916C43.2693 31.2867 43.5293 29.276 44.0493 26.884C44.6039 24.4573 45.4359 22.204 46.5453 20.124C47.6893 18.0093 49.1279 16.5187 50.8613 15.652C51.3466 14.924 52.0919 14.56 53.0973 14.56C53.5479 14.56 54.1893 14.9067 55.0213 15.6C55.8879 16.2933 56.7719 17.3333 57.6733 18.72C58.6093 20.072 59.4066 21.736 60.0653 23.712C60.7239 25.6533 61.0533 27.872 61.0533 30.368C61.0533 34.84 60.0479 38.2893 58.0373 40.716C55.8533 43.3507 53.3226 44.668 50.4453 44.668ZM71.4557 45.552C69.9651 45.552 68.5437 45.084 67.1917 44.148C64.7304 42.484 63.4997 39.2253 63.4997 34.372C63.4997 33.54 63.6211 30.7147 63.8637 25.896C64.0717 21.32 64.2451 18.512 64.3837 17.472C64.5917 16.3627 65.0597 15.3573 65.7877 14.456C66.5504 13.5547 67.5384 13.104 68.7517 13.104C69.3411 13.104 69.8611 13.312 70.3117 13.728C70.9011 14.5947 71.1957 15.5133 71.1957 16.484L71.0917 19.24C70.7104 26.7973 70.5197 31.0613 70.5197 32.032C70.5197 33.8 70.6411 35.048 70.8837 35.776L71.2997 37.076C71.7157 38.1853 72.2704 39.0867 72.9637 39.78L73.0157 39.832C73.2584 39.9707 73.4317 40.0747 73.5357 40.144C73.6744 40.2133 74.0211 40.248 74.5757 40.248C74.7144 40.2133 74.8184 40.1787 74.8877 40.144C74.9917 40.1093 75.0957 40.0747 75.1997 40.04C75.3037 40.0053 75.4944 39.884 75.7717 39.676C77.5051 37.388 78.3717 33.5747 78.3717 28.236C78.3717 27.0573 78.3197 25.8093 78.2157 24.492C78.1117 23.14 78.0077 21.944 77.9037 20.904C77.8344 19.864 77.7997 19.188 77.7997 18.876C77.7997 18.0787 78.1117 17.4373 78.7357 16.952C79.3944 16.432 80.0011 16.172 80.5557 16.172C81.3184 16.172 81.8557 16.6227 82.1677 17.524C82.5491 19.9507 82.7397 22.412 82.7397 24.908C82.7397 29.9 81.8904 34.3893 80.1917 38.376C78.1811 43.16 75.2691 45.552 71.4557 45.552ZM102.494 45.864C101.385 45.864 100.83 45.24 100.83 43.992C100.83 43.576 100.9 42.9867 101.038 42.224C101.316 40.5947 101.489 38.168 101.558 34.944C101.558 32.9333 101.264 30.7493 100.674 28.392C100.674 27.6293 99.9984 25.948 98.6464 23.348L98.6984 23.296C98.6638 23.296 98.6118 23.2613 98.5424 23.192C98.5078 23.088 98.4731 23.036 98.4384 23.036L97.8664 22.412C97.3464 22.932 96.8438 23.764 96.3584 24.908C95.4224 27.0573 94.4518 31.3907 93.4464 37.908C93.6544 38.636 93.7584 39.3987 93.7584 40.196C93.7584 41.548 93.2904 42.64 92.3544 43.472C91.4184 44.304 90.4304 44.72 89.3904 44.72C89.3211 44.7547 89.1998 44.772 89.0264 44.772C88.1251 44.772 87.3624 43.8533 86.7384 42.016C85.7331 39.2427 85.2304 34.2507 85.2304 27.04C85.2304 24.44 85.4731 22.4813 85.9584 21.164C86.4438 19.8467 87.0158 18.9627 87.6744 18.512C88.3331 18.0613 88.9571 17.836 89.5464 17.836C91.1758 17.836 92.0424 19.6213 92.1464 23.192C92.9784 21.216 93.8971 19.7947 94.9024 18.928C95.9424 18.0613 96.8784 17.5413 97.7104 17.368C98.5771 17.16 99.1144 17.056 99.3224 17.056C101.021 17.1253 102.217 17.7147 102.91 18.824C103.638 19.9333 104.158 21.112 104.47 22.36C105.094 24.336 105.493 26.104 105.666 27.664C105.84 29.224 105.926 31.2 105.926 33.592C105.926 38.376 105.649 41.6173 105.094 43.316C104.54 45.0147 103.673 45.864 102.494 45.864ZM115.971 37.284L117.687 34.684C119.247 31.564 120.253 29.2413 120.703 27.716C120.461 27.3693 120.097 26.9187 119.611 26.364C119.126 25.8093 118.606 25.3067 118.051 24.856C117.497 24.3707 117.011 24.0933 116.595 24.024C116.353 24.1627 116.006 24.9427 115.555 26.364C115.278 27.7853 115.07 29.484 114.931 31.46C114.931 32.9507 115.07 34.216 115.347 35.256C115.659 36.504 115.867 37.18 115.971 37.284ZM124.863 46.748C124.135 46.748 123.546 46.488 123.095 45.968C122.645 45.448 122.419 44.8413 122.419 44.148C122.419 43.7667 122.489 43.0907 122.627 42.12C123.078 40.04 123.407 36.8333 123.615 32.5C123.442 32.9507 123.026 33.8173 122.367 35.1C120.461 38.8093 118.762 41.3747 117.271 42.796C116.405 43.94 115.313 44.616 113.995 44.824L113.319 44.928C112.175 44.928 111.257 44.46 110.563 43.524C109.87 42.588 109.333 41.4787 108.951 40.196C108.57 38.9133 108.293 37.6653 108.119 36.452C107.981 35.2387 107.911 34.3547 107.911 33.8C107.911 31.824 108.362 29.744 109.263 27.56C110.165 25.376 111.309 23.5213 112.695 21.996C114.082 20.4707 115.538 19.708 117.063 19.708C117.861 19.708 118.606 19.9333 119.299 20.384C119.993 20.8347 120.582 21.3027 121.067 21.788C121.553 22.2387 121.882 22.568 122.055 22.776C122.437 20.5573 122.645 19.1707 122.679 18.616C122.09 15.288 121.674 13.2427 121.431 12.48C121.397 12.3413 121.327 12.064 121.223 11.648C121.154 11.232 121.067 10.7467 120.963 10.192C120.859 9.63733 120.807 9.152 120.807 8.736C120.807 7.176 121.379 5.96267 122.523 5.096C123.182 4.64534 123.858 4.42 124.551 4.42C126.527 4.42 128.087 7.384 129.231 13.312C130.167 18.2347 130.635 23.3133 130.635 28.548C130.635 33.1587 130.427 36.7987 130.011 39.468C129.63 42.1027 129.006 43.9747 128.139 45.084C127.307 46.1933 126.215 46.748 124.863 46.748ZM163.283 46.644C161.584 46.644 160.042 46.228 158.655 45.396C157.268 44.5987 156.159 43.7147 155.327 42.744C154.53 41.7733 154.131 41.028 154.131 40.508C154.131 39.884 154.408 39.3467 154.963 38.896C155.518 38.4107 156.055 38.168 156.575 38.168C156.852 38.168 157.563 38.6187 158.707 39.52C160.718 41.0453 162.156 41.808 163.023 41.808C163.335 41.808 163.491 41.756 163.491 41.652C163.526 41.548 163.595 41.4267 163.699 41.288C163.942 40.8027 164.063 40.3347 164.063 39.884C163.924 37.4227 163.37 35.0827 162.399 32.864C161.463 30.6453 160.354 28.4267 159.071 26.208C157.823 23.9547 156.696 21.6667 155.691 19.344C154.686 16.9867 154.183 14.5253 154.183 11.96C154.183 10.2267 154.495 8.44133 155.119 6.604C155.778 4.732 156.662 3.172 157.771 1.924C158.915 0.641333 160.215 -2.38419e-07 161.671 -2.38419e-07C163.058 -2.38419e-07 164.271 0.624 165.311 1.872C166.351 3.08533 166.871 4.64534 166.871 6.552C166.871 9.18667 166.022 10.504 164.323 10.504C163.699 10.504 163.3 10.2787 163.127 9.828C162.988 9.37734 162.902 8.84 162.867 8.216C162.832 7.55734 162.694 6.916 162.451 6.292C162.243 5.63334 161.775 5.11334 161.047 4.732C160.77 5.46 160.631 6.06667 160.631 6.552L160.579 7.228L161.463 12.74C161.879 14.82 163.266 17.9053 165.623 21.996C166.49 23.5213 167.322 25.0987 168.119 26.728C170.06 30.6453 171.031 34.2507 171.031 37.544C171.031 40.56 170.251 42.8307 168.691 44.356C167.166 45.8813 165.363 46.644 163.283 46.644ZM176.981 44.044C176.565 44.044 176.131 43.9573 175.681 43.784C174.121 43.16 173.341 38.688 173.341 30.368C173.341 25.9307 173.635 22.6547 174.225 20.54L175.005 19.084C175.802 17.732 176.859 17.056 178.177 17.056C179.875 17.056 180.725 18.1827 180.725 20.436C180.725 21.0947 180.673 21.892 180.569 22.828C180.43 24.2147 180.361 25.8613 180.361 27.768C180.361 30.3333 180.534 33.176 180.881 36.296C181.054 37.4053 181.141 38.5147 181.141 39.624C181.141 40.6987 180.881 41.5653 180.361 42.224C179.841 42.848 179.251 43.316 178.593 43.628C177.934 43.9053 177.397 44.044 176.981 44.044ZM176.721 13.26C174.953 13.26 174.069 12.376 174.069 10.608C174.069 7.86934 174.814 5.99734 176.305 4.992C177.137 4.472 177.969 4.212 178.801 4.212C180.43 4.212 181.245 5.02667 181.245 6.656C181.245 7.00267 181.193 7.488 181.089 8.112C181.089 8.32 181.106 8.476 181.141 8.58C181.141 10.0013 180.621 11.1453 179.581 12.012C178.575 12.844 177.622 13.26 176.721 13.26ZM191.385 36.348L191.333 35.984L191.385 36.348ZM190.449 45.032C188.023 45.032 186.324 43.9747 185.353 41.86C184.383 39.7107 183.897 36.556 183.897 32.396C183.897 28.7907 184.053 26.0347 184.365 24.128C184.781 21.216 185.631 19.1187 186.913 17.836C188.543 15.964 190.345 15.028 192.321 15.028C193.743 15.028 195.095 15.548 196.377 16.588C197.695 17.628 198.353 18.8413 198.353 20.228L198.301 21.06C198.301 21.58 198.059 22.1 197.573 22.62C197.123 23.1053 196.603 23.348 196.013 23.348C195.389 23.348 194.939 23.0187 194.661 22.36C194.419 22.1867 194.245 22.0307 194.141 21.892C193.968 21.6493 193.153 21.2853 191.697 20.8C191.143 23.0533 190.865 26.104 190.865 29.952C190.865 32.3093 191.021 34.3547 191.333 36.088C191.333 36.712 191.923 37.804 193.101 39.364L193.257 39.416C193.881 39.104 194.332 38.844 194.609 38.636C194.609 38.532 195.008 38.2027 195.805 37.648C196.637 37.0933 197.313 36.816 197.833 36.816C198.977 36.816 199.549 37.336 199.549 38.376C199.549 39.3467 198.995 40.352 197.885 41.392C196.811 42.432 195.545 43.2987 194.089 43.992C192.668 44.6853 191.455 45.032 190.449 45.032ZM204.403 44.044C203.987 44.044 203.553 43.9573 203.103 43.784C201.543 43.16 200.763 38.688 200.763 30.368C200.763 25.9307 201.057 22.6547 201.647 20.54L202.427 19.084C203.224 17.732 204.281 17.056 205.599 17.056C207.297 17.056 208.147 18.1827 208.147 20.436C208.147 21.0947 208.095 21.892 207.991 22.828C207.852 24.2147 207.783 25.8613 207.783 27.768C207.783 30.3333 207.956 33.176 208.303 36.296C208.476 37.4053 208.563 38.5147 208.563 39.624C208.563 40.6987 208.303 41.5653 207.783 42.224C207.263 42.848 206.673 43.316 206.015 43.628C205.356 43.9053 204.819 44.044 204.403 44.044ZM204.143 13.26C202.375 13.26 201.491 12.376 201.491 10.608C201.491 7.86934 202.236 5.99734 203.727 4.992C204.559 4.472 205.391 4.212 206.223 4.212C207.852 4.212 208.667 5.02667 208.667 6.656C208.667 7.00267 208.615 7.488 208.511 8.112C208.511 8.32 208.528 8.476 208.563 8.58C208.563 10.0013 208.043 11.1453 207.003 12.012C205.997 12.844 205.044 13.26 204.143 13.26ZM215.323 45.604C214.803 45.604 214.318 45.4827 213.867 45.24C213.451 44.9973 213.087 44.408 212.775 43.472C212.498 42.536 212.272 41.0627 212.099 39.052C211.926 37.0067 211.839 34.216 211.839 30.68C211.839 26.0347 212.203 21.0427 212.931 15.704C213.694 9.91467 214.682 6.06667 215.895 4.16C216.484 3.224 217.282 2.756 218.287 2.756C219.05 2.756 219.518 2.99867 219.691 3.484C219.864 3.93467 219.986 4.576 220.055 5.408C220.055 5.89333 219.726 8.97867 219.067 14.664C218.859 16.7787 218.755 19.7773 218.755 23.66C218.755 29.692 218.946 34.5453 219.327 38.22C219.466 39.0867 219.535 39.9187 219.535 40.716C219.535 41.8253 219.292 42.744 218.807 43.472C218.322 44.1653 217.75 44.6853 217.091 45.032C216.467 45.4133 215.878 45.604 215.323 45.604ZM232.269 48.828C231.056 48.828 229.929 48.5507 228.889 47.996C227.884 47.4413 227.069 46.852 226.445 46.228C225.856 45.604 225.561 45.1707 225.561 44.928C225.561 44.6507 225.7 44.2867 225.977 43.836C226.289 43.3853 226.74 43.16 227.329 43.16C228.924 43.6453 230.103 43.888 230.865 43.888C231.351 43.888 231.819 43.8707 232.269 43.836C232.72 43.8013 232.98 43.784 233.049 43.784C233.257 43.68 233.431 43.5587 233.569 43.42L234.453 42.172L235.025 40.768C235.788 38.792 236.429 35.7587 236.949 31.668C236.915 31.668 236.897 31.6853 236.897 31.72C236.655 32.032 236.169 32.5173 235.441 33.176C234.748 33.8 233.847 34.4067 232.737 34.996C231.628 35.5507 230.363 35.828 228.941 35.828C228.144 35.828 227.451 35.6893 226.861 35.412C223.741 34.3027 222.181 31.72 222.181 27.664C222.181 23.504 222.719 19.6733 223.793 16.172C225.111 11.9427 226.896 9.828 229.149 9.828C229.635 9.828 230.12 10.0187 230.605 10.4C231.125 10.7813 231.385 11.44 231.385 12.376C231.385 13.1387 231.264 13.7973 231.021 14.352C229.877 18.4773 229.253 22.2213 229.149 25.584C229.149 28.1147 229.548 29.848 230.345 30.784L230.865 31.044C231.385 31.044 231.975 30.784 232.633 30.264C233.569 29.432 234.419 28.3573 235.181 27.04C236.048 25.2373 236.499 24.128 236.533 23.712C236.741 23.0533 236.949 22.1 237.157 20.852L237.001 16.692C237.001 14.3 237.4 12.584 238.197 11.544C238.995 10.504 239.896 9.984 240.901 9.984C242.323 9.984 243.241 10.9547 243.657 12.896C244.073 14.8373 244.281 18.1827 244.281 22.932C244.281 28.236 243.935 32.5 243.241 35.724C242.063 41.236 240.381 44.9107 238.197 46.748C237.435 47.4067 236.932 47.7707 236.689 47.84C236.447 47.944 236.152 48.048 235.805 48.152C235.493 48.256 235.06 48.3947 234.505 48.568C233.951 48.7413 233.205 48.828 232.269 48.828Z" fill="#F5F9FF"/>
</svg>
