<?xml version="1.0" encoding="UTF-8"?>
<svg id="Layer_2" data-name="Layer 2" xmlns="http://www.w3.org/2000/svg" viewBox="0 0 678.79 440.48">
  <defs>
    <style>
      .cls-1 {
        fill: #e8ba44;
      }
    </style>
  </defs>
  <g id="Layer_1-2" data-name="Layer 1">
    <g id="sicily">
      <path class="cls-1" d="M424.67,254.92c-.69.45-3.25.63-3.25,1.47-.02,5.18,6.92,5.8,6.65,8.7-2.1.05-2.99.79-3.96,1.91-.6.7-2.86.76-3.68.28-1.93-1.14-3.72-.91-5.83-.86-2.76.07-5.67-3.12-8.66-2.26-1.59.46-3.19,1.26-5.12.78l.29-5.02c.09-1.58-4.42-1.33-8.28-2.37l-2.26-.61c-.5-.13-.47-1.76-.85-2.14-1.34-.95-3.78-1.23-5.57-1.58-2.09-.41-3.77-.39-4.93,1.61-.79,1.36-2.2.95-3.4,1.28-6.85,1.87-8.89,4.38-11.58.7l-2.63-1.68c-.41-.7-1.59-1.94-2.19-1.58-1.38,1.73-2.96,3.04-5.32,2.08-.34-.14-1.33-.36-1.39-.7l-.28-1.44c-.27-1.42-.45-2.85-.49-4.24-.35-.68-1.56-2.15-1.6-2.96,1.02-4.95-5.18-4.21-1.48-7.63-.75-2.5,1.02-4.36,2.32-5.89,1.17-1.37,2.16-2.78,3.53-3.95l2.84-2.42c.61-.52,1.96-1.64,2.35-2.3,2.96-5.77,7.58-2.63,7.86-6.18l-2.71-3.42c-.68-.86-.71-1.91-.69-3.24.04-2.75-5.36-3.74-.42-11.16l.05-3.05c-.95-1.57-1.21-4.2.8-4.84.91-.29,2.29-.6,2.81-1.09,1.48-1.4.08-5.78,1.12-8.94l-2.63-1.33,2.4-3.82c1.26-2,.57-5.59.18-7.88.02-.53,1.33-1.37,1.82-1.26,3.95,1.89,2.56-1.53,9.37-1.54.87-.42,2.32-2.96,3.36-2.22,1.14.82,1.58,1.32,3.08,1.29l1.26,2.56c1.09.9,2.16,1.96,3.1,3.1,4.48,5.42,1.44,4.6,3.48,6.05.45.32,1.78.25,2.13-.19l2.45-3.16c2.33.32.76,4.78,2.5,7.65,1.22,2.01,3.8,2.98,5.92,3.8,3.32,1.28,4.08,5.8,4.97,6.69l3.7,3.68,2.03,1.06c.02,2.19.36,4.42,1.04,6.28l3.7.71c.72.14,1.87.35,2.41.13,1.69-.67,2.84-6.92,6.45-5.45.55.23,1.44,1.69,1,2.11-2.43,1.53-4.24,4.55-2.16,7.06l2.39,2.88,3.01-1.09.02,2.5c2.93,3.43,9.11,2.08,6.69,5.39-1.95,2.67.71,3.86,1.65,7.88,7.2,5.38,4.27,4.98,13.06,3.5l4.1,2.55c1.25.77,2.36,1.45,3.86,2.16.37.19.04,1.63-.4,2.19-1.67,2.1-4.7-1.07-8.22,2.8-1.22,1.34-1.92,4.55-1.01,6,.25.39,1.81.82,1.76,1.27-.13,1.3-1.33,3.5-2.3,4.17-.5.34-1.91-.39-2.52-.63-.52-.21-1.77.03-2.4.02-2.75-.04-4.53.74-6.72,2.27-4.45,3.12-6.37.46-7.31,1.87-.31.46-.14,1.41.16,1.88l1.55,2.42c1.3.23,3.67.97,3.77,2.39.07,1.01-1.36,3.24-2.34,3.38-1.27.18-2.75-1.35-3.56-2.14l-3.42-3.36c-.92-.91-2.63-2.12-3.11-3.49-.18-.5-1.57-1.1-1.99-.83l-2.29,1.48ZM425.81,213.13c.45-.9.8-2.2.43-2.96-.3-.62-1.28-1.19-2.25-1.76-1.12-.66-1.85-2.14-2.86-3.38s-3.77,3.15-3.56,3.57c.3.59.86,1.52,1.36,2.33l-.68,5.68c.31.6,2.17.56,2.54.01,2.22-3.28,3.68-.82,5.02-3.5Z"/>
      <path class="cls-1" d="M494.26,126.39c-9,2.15-10.02.42-15.97,6.88-1.4-.46-3.21-1.27-4.6-1.98-4.06-2.08-7.1-.37-12.4-1.78l-3.74-4.1c-3.46-3.79-4.42-2.11-4.68-4.02-.33-2.45,4.57-1.23,3.83-5.65l-.88-5.28c-.12-.72-.29-1.6-.44-2.22-.36-1.47-4.69.69-8.23-3.67-.23-.28-1.05-.88-1.32-.73l-1.53.87c-.66.37-2.3.55-3.2.69-1.45,1.57-3.23,1.9-5.4,1.96-2.82.08-4.8-.24-6.86-2.16-1.24-1.16-1.39-2.3-1.72-3.88l-.95-4.46-2.15-1.65c-1.21-2.91-3.19-5.01-5.92-6.36-.42-.21-1.2-1.29-1.62-1.12-1.74.73-1.54,2.77-2.87,2.73-3.48-.12-5.46-7.07-5.19-10.64l-1.53-4.68c3.4,2.13,5.51,1.57,8.54.4,7.43-2.88,7.59-5.67,10.5-5.81,1.26-.06,2.23,3.56,10.11,1.79l10.62-2.39c1.41-.32,3.11-2.13,4.26-3.13,3.8-3.3,5.91,1.76,11.7-3.11,1.29-1.09,2.6-.74,4.13-.7,2.8.09,4.94-3.01,7.2-4.45,2.6-1.66,4.72-3.33,6.65-5.68l12.1-14.79c3.09,2.2,7.06,3.56,10.48,2.56l5.9-1.72,7.04-1.97c1.9-.53,4.58-.21,6.73-1.03.91-.35,2.3,1.74,2.37,2.71.07,1.04-.95,3.14-1.94,3.11s-1.85.19-1.96.49c1.71,1.45,1.96,2.96,2.9,4.82,1.23,2.44,3.61,4.3,4.88,7.83.74,2.07,2.5,7.11.22,8.72l-.15,3.62,1.61,1.77c-.88,2.16-.09,3.5,1.81,4.63,1.14.67,1.52,3.36,1.13,4.6-.57,1.83.28,3.02,1.29,4.86l-3.24-.93c-.71-.2-2.29-.46-3.02-.41l-3.37.25c-2.58.19-5.4,2.2-6.83,4.19.36,1.09,1.02,2.8.62,3.67-2.16,4.71.27,5.4-.16,7.63-.09.44-1.59.77-2.02.63-3.74-1.16.83-5.29-2.88-7.2-.83-.43-2.26-.49-2.71.63l-1.92,4.74c-2.43-.26-2.97-1.96-4.22-3.6-8.34-1.38-3.92,1.44-9.06,2.74-.99.25-1.66,1.97-1.65,3.09.04,3.25-1.87,4.49-1.08,5.34l1.88,2.02c-1.72,1.14-4.42-.84-5.49.12-.34.3-.43,1.22-.42,1.77l.04,4.72c.04,4.47-1.27,9.92,1.21,10.28s2.15-3.94,4.48-4.93c1.45-.62,3.49.95,4.37,1.81,1.27,1.24.84,3.41,1.37,4.93.75,2.19,1.81,3.79,2.11,6.82l-4.02-1.44c-.53-2.37-2.5-3.28-4.71-2.76Z"/>
      <path class="cls-1" d="M427.95,319.57c-.82,2-3.17-2.2-5.79,2.79.21,4.07,5.16,9.05,2.15,11.7l-5.29,4.65c-3.09-.14-4.82,1.34-6.88,3.26l-3.3,3.07-4.52.59-4.19-4.55c-4.23-4.59-9.16-8.32-14.55-11.58-1.36-.82-3.53-1.03-4.85-1.72l-8.41-4.38c-4.44-2.32-8.95-3.14-13.71-4.41l-8.98-2.39c-2.82-.75-6.08-.29-9.05.16l.12-5.08c.05-1.97-.31-3.48-.89-5.28-.74-2.33-2.41-2.81-4.3-4.01-1.36-.86-1.82-4.26-3.89-5.27,1.14-.91,1.89-1.35,2.14-1.89s-.34-2.05-.85-2.36c-1.71-1.04-1.77-4.5.22-5.15.98-.32,3.58-.75,3.22-2.06-.18-.67-1.12-1.95-1.37-2.6-.67-1.73,2.46-3.03,1.82-6.98,2.49-2.21,4.06-5.74,2.45-8.89l3.89-3.34.92-4.69c-.39-.29-1.4-.92-1.83-1.27-1.64-1.35-.13-4.11.73-5.51,1.33-2.17,3.01-3.71,5.79-2.79-1.35,3.13.43,3.28.46,7.31.94.94,3.53,1.16,5.13,1.56s2.61,1.07,4.06-.88l4.29,1.44c2.66,2.74,6,3.1,9.03.91,5.5-2.15,6.34.11,10.32-4.55l4.97.77c.69.11.96,1.89,1.17,2.58.4,1.31,2.43,1.36,3.76,1.08l2.95,1.11c1.04-.15,3.28.02,3.59.92.05,1.57-.33,4.01.44,5.16,2.36,1.11,4.76.53,7.3-.01l.28,6.91c2.39.6,4.05.14,6.67-.73.35.67.9,2.34,1.06,3.28-2.62,3.42-.81,2.98-2.26,10.34-2.01,10.16-1.21,1.88.59,10.05l3.08,2.07c.53,1.6,1.3,2.13,2.87,2.2,2.02.09,3.21-.15,4.94-1.67.82.61,2.56,1.95,3.27,2.67l5.08,9.4c.96,2.03-2.1,4.48-3.15,5.82-.33.42-.52,1.73-.72,2.22Z"/>
      <path class="cls-1" d="M228.95,266.79c-1.6-1.04-3.66-1.03-5.16-.27-2.5,1.27-3.81-.59-5.68-1.1-2.81-.77-5.94-1.41-8.29-4.45-7.44-9.6-3.66-4.4-7.47-7.19l-5.73-4.2c-1.81-1.33-3.1-2.54-5.59-2.47-2.08.06-4.37-1.55-4.41-3.82-.01-.79,1.22-2.44,1.92-2.9l4.85,3.25c.5,2.33,2.12,3.46,4.28,2.9l2.08,1.23c.35.21,1.42-.1,1.72-.37s-.05-1.12-.22-1.92l2.5-2.32c.41.05,1.55.53,1.75.24l.81-1.2c-1.4-1.63-2.88-3.78-2.03-6.02.31-.82,2.71-.96,3.38-1.47l2.91-3.64c.31-.39,1.66-1.02,2.04-.75.46.32,1.34.96,1.89,1.37,2.81.22,6.39-1.53,8.72-3.23l-2.74-2.76c-2.16.12-5.49.07-7.4-1.6-2.02-1.76,1.1-3.63,1.56-4.94.51-1.42-.9-4.08,1.54-4.84l.81,1.69c1.67.24,3.15-.54,4.54-1.57l4.06.98c1.86.45,3.56.41,5.56-.98l5.81.89,1.43-1.48c.35-.36,1.41.79,1.91.88l2.23.43c.59.11.76,1.74,1.24,2.18,1.53,1.24,5.3-.71,4.73-2.87-.42-1.62-1.7-2.8-.3-5.05-1.64-.78-3.5-1.86-4.99-2.23l-4.33-1.08c-.53-.13-1.53-.77-1.81-1.17-1.16-1.66,2.56-2.58,1.27-5.15l-1.83-3.68c2.75-1.07,4.76-2.1,6.34-3.64-.91-3.81,1.44-3.24-1.24-7.11-1.7-.12-2.65-1.24-3.12-2.26-.36-.36-1.55-.88-1.71-1.35-.19-.57.92-1.54,1.46-1.99l1.68-3.06c7.6-1.68,3.97-5.28,9.99-5.51l7.6-.3c2.29-.09,3.04-.52,4.45-2.02,1.81-1.92,2.78-3.56,3.23-6.47.31-1.95,3.59-1.09,4.82-.09,1.59,1.28,3.96,1.21,5.72,1.82,3.27,1.14,5.99,1.44,9.27.54l5.19-1.43c.25,1.11.51,2.42.87,2.92s1.98.08,2.73.13c2.78,3.33-4.2,6.47-1.16,9.46l3.7,3.63c-4.98,1.05-7.08-1.54-8.34-1.26-1.73.39-2.59,2.82-3.75,3.77-.7.14-2.4.07-2.7.65-.34.65-.31,1.82-.17,3.15-2.91.59-5.94,1.22-8.85,2.37-4.67,1.84-6.94-3.22-10.64,1.65-.51.67-1.21,1.68-1.11,2.3.13.76,1.07,2.03,1.67,2.43,3.93,2.64,2.77,8.17,2.8,8.38.28,1.79.76,3.6.39,5.37l-.81,3.93c-3.42,2.15-8.24,6.81-7.86,10.72.07.67,1.22,1.6,1.61,2.27,3.13,5.28,4.17,1.92,6.59,6.33-.34,3.72-5.12,4.07-5.11,6.01,0,1.48,2.76,2.43,1.29,3.8-1.38,1.29-.79,3.69.27,4.43.44.31,1.64-.24,2.07-.44l1.26-.6c.36-.17.69,1.11.69,1.51v2.53c1.93-.4,2.73-.3,3.7.86l5.28,6.29c-3.96.26-7.52,1.77-7.46,5.4.03,1.85,2.05,4.01.57,6.05-.42.58-1.08,2.03-.84,2.65,1.1,2.89,2.65-.46,4.19,8.25,2.54.08,4.6.51,6.47,2.84l-3.05,1.99c1,1.78.98,3.71-.07,5.69l-.12,3.18c-6.21,1.01-6.41-2.96-10.38-4.09-.99,1.57-2.3,2.57-3.95,2.8-4.66-10.58-8.52-7.36-11.22-11.91-1.35-2.28-3.76-2.95-5.55-4.4-2.47-2-3.59-6.23-7.35-6.65l-3.87-.44c-.88-.1-2.24.18-3.04-.35Z"/>
      <path class="cls-1" d="M571.05,423.61c-.2,8.35,5.44,6.41,2.87,10.76-.93-.19-2.36-.59-3.06-.42-.76.19-1.59,1.53-2.21,2.12l-4.61,4.41c-1.42-1.47-2.54-2.41-3.94-3.1-2.67-1.31.12-3.78-5.1-7.84-2.27-1.77-4.66-3.35-7.62-3.3.12-1.74-1.15-10.07-1.61-10.61l-.93-1.09c-.22-.25.61-1.1.68-1.56.29-1.81-.14-5.21-1.48-6.66-2.16-2.34-4.48-4.45-7.11-6.1-.99-.62-2.77-1.13-3.87-1.74l-3.72-2.06c-2.65.95-4.88.04-6.25-2.53-1.71-.35-3.6.24-6.12.84l1.18-6.41c.14-.76-.68-2.71-.36-3.41,1.94-1.33,4.68-.26,5.63,2.2l6.45,2.8c1.11.18,3.95-4.45,4.05-5.69.07-.78-1.33-1.94-1.75-2.63-2.07-3.37-4.74-5.12-8.6-6.17-1.09-.74-1.81-3.42-2.03-4.64l2.79-1.09c.94.5,2.8,1.51,3.5,2.28l2.57,2.86c.61.68,2.94,1.4,3.16.33.66-3.24-1.72-5.7-2.85-8.41l-.94-2.26c-1.79-.22-2.61-2.24-3.49-3.21-2.68-2.95-3.72-5.64-3.22-9.63.29-2.29-2.41-4.52-3.64-6.23-5.16-7.17-1.59-6.9-6.06-8.79l-.48-3.44c.04-.49.65-1.61.37-2l-1.24-1.74c-.92-1.29-1.71-2.32-2.8-3.6l-.38-3.83-1.13-5.21c-.22-1.01-2.5-.41-3.95.1,1.21-2.49,4.24-1.98,6.71-1.32,1.62.43,3.13-2,3.51-3.3.88-3.02.15-5.04-1.83-7.81,2.29-2.27,4.53-3.92,7.29-5.6l.32-6.83,4.93-2.02-.08,4.69.12,6.03c0,.45.2,1.62.31,2.01.1.37.8.34,1.37.5l1.93,5.27c-3.18,5.57-7.25,3.87-6.78,6.6.14.83,1.11,1.29,2.07,1.52l3.54.86c.05,2.02-1.85,2.73-1.17,4.44.18.45,1.52.66,1.91.97,1.66,1.3,3.62,1.73,5.67,1.01l1.24,1.54c.89,1.1,4.9-2.21,10.06-.88,2.25-2.84,7.73-5.87,11.27-5.96,2.59-.07,3.93.82,5.46,2.65.68.81,2.13,1.09,2.43,2.64l-5.41-2.27c-.66-.17-2.2-.06-2.81.24s-1.36,1.67-1.4,2.28c.74.94,2.09,2.55,2.99,3.07l5.66.84c.54.08,1.06,1.98.75,2.42s-.74.89-1.52,1.55c-2.54,2.17,2.01,3.95-1.5,4.18l-5.47.36c-.96.06-1.22,3.02-.45,3.63,1.2.94,3.54.2,4.78.74,2.27.99,4.21,2.21,6.44,3.4,3.04-1.38,6.72-2.28,10-1.03,4.83,1.84,4.75-.79,6.29,1.77l.91,1.5c.13.22-2.33,2.48-1,7.52l-2.78,4.78c1.92,1.83,2.42-1.43,5.35,3.39-1.18,1.58-1.71,2.69-2.37,4.66l-3.6,2.03c-1.95,3.65-3.61,7.58-4.4,11.62-.25,1.29-.44,1.62-1.62,2.45-2.98,2.08-4.83,6.05-5.1,9.68-.15,1.96,1.37,4.59-.24,6.24-.54.55-1.7,1.34-2.08,1.87-.44.6.46,2.33.27,3.14-.42,1.76-.41,3.68.37,5.41.9,2.01,1.11,4.35,2.49,6.15,1.84,2.39,2.55,5.02,2.48,8.07Z"/>
      <path class="cls-1" d="M318.82,186.07l.05-2.64c.01-.68-1.76-.95-2.41-1.27l-3.58-1.76c.76-1.6.99-2.5.72-3.76-1.18-5.51.16-3.01,0-6.78-.02-.5-1.81-.77-2.08-1.19l-3.63-5.57c-.29-.44-1.8-.9-1.7-1.37s.39-1.43.62-2.02l2.14-5.52c.31-.79,1.76-1.9,2.53-1.98,2.83-.28,1.66,2.93,5.98.81l1.39-.68c.29-.14,0-1.14,0-1.51l-.08-1.78c-.02-.47,1.3-.86,1.58-1.28,2.63-3.94,4.13-4.81,3.59-6.47l-.46-1.42c-.37-1.12,3.34-.86,4.27-2.44.54-.92.32-2.82-.24-3.64-.95-1.39-.31-2.02.22-3.31,1.05-2.54-.85-6.08-3.29-7.63.79-2.97,1.24-5.59.99-9.04l2.46-2.06c4.08,1.4,4-1.07,6.46,2.57.79.25,2.76.07,3.38-.24l.8-3.92c.3-1.45,1.13-2.88,2.25-3.63l3.08-2.05,4.54,3.32c.61.45.52,1.87.17,2.91l2.84,2.01c.73.52,2.78-1.44,2.32-2.18s-.93-1.59-1.15-2.08,1.12-1.31,1.69-1.5l4.99-1.58c1.44-.46,2.38-.51,2.76-2.27.77-3.53,3.65-.66,3.53-4.96-.04-1.56-.51-3.27-1.06-4.66l3.68-6.3c.8-1.38,3.57-3.12,3.83-4.59l.51-5.54c4.32,5.05,3.39,4.7,5.53,9.76.56,1.32,2.99,2.62,2.98,4.33-.02,4.23.62.82,4.06,5.11,3.11,3.88-.13,3.8,1.51,5.89.38.48,1.83.83,2.45.76l3.55-.41c-3.06,3.22-.35,3.89-3.12,10.46l1.16,2.47c-.26,2.39-.02,4.26.65,6.74-2.59.9-3.93,4.16-2.52,6.45,2.27,3.7-2.31,5.29-.44,7.01,3.03,2.8-.66,4.48,3.16,5.78,2.29.78,2.04,2.42,2.34,4.4.17,1.14.59,2.45-.01,3.48-3.1,5.27-3,2.21-4.6,7.52-1.22,4.05-3.7,2.45-4.61,3.02l-4.75,2.99c-3.73,2.34-2.5.43-7.59,2.95-2.23-2.03-4.98.58-6.44,2.14-1.27,1.36,3.02,4.5-.48,9.61-1.22,1.79-2.43,2.98-4.87,3.37l-.25-2.92c-1.27-1.24-3.25-1.16-4.75-.3-1-.82-2.5-1.83-3.45-2.73-2.97-2.82-7.86-4.04-11.24-.99l-2.8,2.53c-.91.82-1.7,3.21-1.84,4.5l1.18,4.07c-3.15.31-5.6.49-8.06,1.72-6.83,3.43-5.17-.04-10.4-.71ZM353.4,164.63l-1.97-2.49c1.68-1.05,2.59-1.95,2.41-3.66-.38-3.69-4.51-2.78-6.47-5.83-1.18-.3-3.53-.83-4.78-1.07-2.26-.43-2.98,2.48-3.5,3.89-.74,2-.89,3.02.86,4.74l-3.12.61c-.82.16-2.15.32-2.5.85-.58.88-1.65,5.11.31,7.86,1.01,1.42,2.16,2.59,3.44,2.73,1.87.21,3.12-.09,4.19-1.45,5.29-6.76,9.06-1.38,11.14-6.17Z"/>
      <path class="cls-1" d="M472.48,289.62c-.79-1.2-1.65-2.33-2.76-3.44l-1.09-2.61-2.63-2.83-4.58-4.41c-.6-.58.23-2.72.05-3.53l-1.36-6.02c-1.74-1.87-5.18-.22-6.34,2.01l-9.81.77-3.09-3.17,2.27-3.32c.42-.61,1.84-1.71,1.61-2.46-.54-1.77-2.2-3.86-3.99-5.01l6.55-3.75c4.22-.96,8.57,2.53,11.33-2.75.5-.95.92-2.21,1.2-3.32.54-2.17-1.33-2.5-1.94-3.59-1.11-1.97,2.03-3.86,3.82-3.55,4.49.78,7.23-4.52,7.14-5.96-.12-2.08-3.4-2.53-6.26-4.23l-3.96-2.35c-3.37-2-1.4.84-6.53.2-2.91-.36-5.69-1.86-7.01-4.99-.74-1.75-.85-3.16.28-4.87l.92-1.39c.21-.32-.49-1.52-.85-1.66l-4.45-1.75,4.33-1.8c1.53-.63,2.42-3.13,3.51-4.72.71-1.04,2.75-.57,3.86-.86,1.44-.37,3.38-1.97,4.94-.41,1.01,1.01,2.21,1.69,3.8,1.58l7.48-.54c1.81-3.54,1.73-1.61,7.83-4.91,1.61-.87,6.74,3.33,7.62,3.96,1.09.8,2.36,1.58,3.35,2.51l3.44,3.23c.87.81,2.06,1.56,2.61,2.68.33.67.58,1.45.98,1.58s1.37.06,1.93.05c7.3,6.53,4.45,2.9,9.61,4.56,1.84.59,2.28,2.02,3.17,3.33,1.64,2.43,2.62,4.83,1.06,7.54,3.45,6.21.41,7.87,2.05,9.35,2.61,2.36,5.04-1.55,8.31,1.52-1.85,4.01-3.46,1.76-8.73,5.06-1.41.88-1.48,3.07-1.52,4.74-.03,1.43-1.97,1.44-3.07,1.8-2.57.85-11.55,5.65-9.62,9.3.34.64,1.89.75,2.63,1.18,6.13,3.62.92,1.23,7.55,1.9l4.68-1.99,8,3.13c-.17.41-.82,1.54-1.27,2.28l-.56,3.22-4.29,1.14c-.23,1.86-1.44,5.05-3.24,5.45-3.93-.55-6.41.47-9.11,3l-4.1,3.84c-2.88-4.8-2.6.01-4.43-4.66l-2.19,2.49c-1.52.78-2.27,2.13-2.73,4.16-2.26-1.01-5.01.13-6.37,1.85-.46.58-2.38.23-3.08.35-1.33.25-3.27.59-4.7.79l-2.21.31Z"/>
      <path class="cls-1" d="M298.9,148.68c2.27-1.36,2.8-2.74,3.58-4.89.35-.96,1.41-2.38,1.4-3.36-.03-2.08-3.78-5.62-5.53-6.82l-1.97,2.37-1.66-1.25c-.37-.28-1.47.59-1.71.99-1.14,1.93-3.18,1.69-5.04,1.35-1.55-.28-4.26,1.81-6.26.23v-2.09s-2.27-1.84-2.27-1.84c-.52-2.16-1.58-3.84-3.61-4.76-3.5,3.46-1.69,7.04-10.87,6.07.11-3.05.12-5.62.42-8.29.18-1.59.45-2.42-.15-4.05-.26-.72-1.76-2.19-2.22-1.61l-1.08,1.36c-.22.28-1.19-.1-1.58.03-3.55,1.2-7.68-1.25-10.22-3.81-.37-.37-1.7-.51-2.07-.8-.71-.58,1.75-4.75,3.16-5.5.23-.61.98-2.55.89-3.33l-.57-4.95-8.41-1.54c-.65-.12-2.23-.34-2.35-.89-.23-1.06-.67-3.04-.77-3.92-.22-2.04,2.37-3.53,3.55-4.61-.33-2.05-1.48-4.34-2.61-5.71-4.11,1.98-3,.05-7.77.39l-3.05-4.98-3.26-.21c-.5-4.03,3.92-2.09,2.71-5.86-1.21-.53-3.61-1.66-3.49-3.06.13-1.5.44-2.97.04-4.14-.98-2.85-5.33-1.44-4.82-3.52,1.62-6.6,3.16-6.42,2.6-9.33-1.3-6.72,6.19-4.75,7.38-8.71.49-.03,1.85.29,2.39.66s.83,1.99,1.14,2.57c.83,1.56.68,2.41.53,4.09l-.35,4.04c-.19,2.18,1.34,3.86,2.82,5.29l3.91,3.79c4.01,2.62,7.4,3.41,10.82,7.25.71.8,2.95,1.13,3.82,1.66,6.67,5.18,6.61,2.62,13.77,4.77l1.07,2.98,6.08,1.53c1.42.36,2.79,1.14,4.43.92l10.15-1.36c1.16-.16,2.83-.84,4.31-1.28l2.27,7.46c2.38,2.85,4.78,5.72,4.36,9.71-.24,2.28.9,7.1,2.19,7.08,6.06-.11,2.68,2.53,7.2,1.8,10-1.62,4.03,2.36,12.12,1.92.22,2.6.29,6.01-.55,8.65l-.65,2.05c-.14.43.94.78,1.49,1.22,1.42,1.12,2.84,4.12,2.02,5.77-.73,1.47-1.32,2.49-.13,3.84.59.67.76,3-.06,3.2-2.49.63-3.98,1.34-5.33,3.43l1.91,1.35c-1.13,1.42-2.14,3.16-3.24,4.22-1.25,1.21-2.31,1.95-2.18,3.89.05.7-.6,2.01-1.13,2.27s-1.81.09-2.34-.33c-1.63-1.29-4.32-1.24-5.51.78-1.43,2.44-2.4,4.9-3.68,8l-6.94-2.21c-1.66-.53-1.97-2.17-2.08-3.56s.39-2.27,1.18-3.3c.51-.67,1.01-2.66,1.79-3.12Z"/>
      <path class="cls-1" d="M492.29,206.07c-2.27-2.88-6.58-4.53-8.74-7.42-.48-.65-.94-1.65-1.39-1.98s-1.85.68-2.51.59c-1.87-.24-4.08-.11-6.02,1.44-1.13.9-3.98,1.47-5.2,2.19-.44.26-1.37,1.71-1.95,1.73l-6.26.21c-.58-1.53-2.02-3.74-3.48-3.49-2.97,1.17-5.4,2.13-8.72,1.82-3.43,4.43-.41,5.05-5.96,7.37-2.26.94-4.4,1.71-6.49-.3l-2.37.61c-1.02-.75-2.19-2.01-2.35-2.97-.7-4.23,2.69-4.26,2.68-5.34l-.04-2.59c2.7-.31,3.04,2.31,5.22,2.39.5.02,1.17-.99,1.18-1.51s-.74-1.05-1.46-1.5l-.63-2.06-3.91-.46-4.4,2.06c-2.24,1.05-3.59,3.31-4.81,5.63-1.13.26-3.95.05-4.8-.79-1.42-1.4-1.11-3.93-.68-5.73l-2.82-1.29-3.05-3.2-3.64-5.84c-.49-.78-2.39-1.73-3.24-2.25-7.87-2.15-3.36-5.97-6.37-10.62-.99-1.53.95-3.23,2.42-4.28-.03-.92-.26-2.54-.45-3.9l3.44-1.81c1.73-.91,4.49.14,5.22-2.37l-.09-1.57c-.03-.49,1.78-.34,2.13.09,1.2,1.48,3.29,1.15,5,.23,3.33-1.79,9.74-.41,12.67,1.24.66-.33,1.05-2.38.4-2.97s-1.06-1.38-1.37-2.21c-1.04-2.74-1.25-.67,1.67-6.29,2.67-5.14,3.77,3.05,10.01-.67.62.76.3,2.19-.42,3.03-2,2.3-3.06,4.94-4.18,7.83-.18.48-1.08,1.31-1.22,1.8-.6,2.14,4.82,2.04,5.15,6.51.73.19,1.91-.32,2.85-.91.63-.39,2.01,1.05,2.54,1.39.79-.25,1.98-.49,3.14-.6,1.4.03-.18-3.61,2.17-5.82,2.16-2.04,7.39.99,7.14-1.15-.23-1.94-.23-3.13.23-4.83l-.84-4.41c1.24-.52,9.28,1.49,9.44,2.28.2,1-.02,3.16.69,3.64,1.73,1.18,4.56.86,6.59.36l3.2,10.01c.16.5,1.6.82,1.98.61,1.8-1.01-1.39-4.35.39-5.85,1.01-.85,2.77-1.23,4.46-1.38,1.38,1.73,1.04,5.58,3,5.68,2.35.11,2.16-2.88,4.24-1.73,1.59.88,2.31.06,3.36-.8,2.21-1.81,4.1-3.03,6.9-4.73l.21,4.97c-1.79,2.24-1.48,4.41-1.37,7.12.19,4.57,1.12,3.68,5.08,6.5l1.72,1.22c.91.65-1.03,3.03-.91,4.16.05.53.69,1.17,1.27,1.92.72.92.62,3.93-.37,4.52l-3.04,1.81-3.09,4.04c-.41.54-.97,1.77-1.03,2.42-.05.61,1.28,1.4,1.57,1.97,1.06,2.04,0,4.5-1.42,6.04l.25,4.25c.03.45-.64,1.61-1.04,1.7-.5.11-1.19-1.11-1.72-1.23-1.14-.24-2.84-.86-3.53-1.73l-2.18-2.77Z"/>
      <path class="cls-1" d="M99.35,175.07c-.3,2.14-.79,3.99-.77,5.97.01,2.09-.34,4.61-2.07,5.92-3.85-1.25-7.53-1.55-11.43-1.56h-7.6c-12.75-.04-13.77,3.16-26.14,5.01-1.47-.08-3.45-2.21-4.4-3.84l6.19-10.28,1.26-3.62c2.59-1.26,5.93-2.33,7.65-4.54,1.11-1.43,2.05-2.81,4.18-2.96.64-.03.63-1.97.21-2.48s-1.65-.98-2.58-1.51c-.77-.46.78-2.75,1.26-3.19l-4.9-1.38c1.71-2.1,2.69-3.33,4.08-5.4,1.31-1.96,1.65.21,3.66.12,2.55-.12,1.84-6.64,1.57-8.44-3.9-1.78-6.18,2.01-7.4-1.2-1.11-2.94-2.18-5.5-3.48-8.31l-2.34.31-1.12-6.96c-.18-1.11-.38-3.46-.5-4.55-.04-.37.91-1.35.66-1.63l-1.09-1.22-2.57-3.28,5.93-.46c.45-6.38-1.93-5.12,1.76-8.43l3.15,2.55c.34-.34,1.57-1.44,1.93-2.01,1.09-2.01,2.89-3.09,5.21-3.77,1.6-.47,2.93-1.59,4.98-.9,1.64.55,3.11-.18,4.93-1.15,2.97,4.64-.95,3.11,2.84,6.25,1.93,1.6,4.25,2.23,6.47.49l2.06,2.61-1.34,5.71c.41,1.2,1.29,3.24,2.01,4.49.58,1.02,3.27,1.79,4.44,1.51l6.21-1.5c1.87-.45,4.25-2.68,8.28-1.78,1.84.41,2.64,1.57,2.73,3.66,4.13.7,8.69,1.25,12.89,2.19l5.09,1.14c.41.6,1.67,1.81,2.11,1.44,1.19-1.13,2.99-2.43,4.71-1.95-1.15,2.45-2.73,4.34-2.3,6.82.18,1.03,1.98,2.21,3.08,3.08l-2.78,2.1c-2.46,1.86-2.2-.81-4.91-.57-.59.05-1.06,1.84-1.67,2.03-1.75.55-5.08,1.24-6.73,2.01-.39.79-1.13,2.76-1.88,2.45-.89-.37-2.42-.93-2.9-.41-4.13,4.54-6.29,1.15-8.02,5.75l-2.68,1.32c-.27,1.14-.63,2.42-1.05,2.99-2.01.08-5.92,5.34-5.47,7.47l-2.67,2.66c-.38.38-1.81.57-1.81,1.07l.03,2.25c-.56.73-1.22,1.43-1.49,1.97-.31.61.15,2.49.67,2.68l4.3.17-.44,3.13Z"/>
      <path class="cls-1" d="M195.65,172.42c.46-.93.17-3.62-.72-4.37-1.21-1.02-3.6-1.74-5.26-1.88-1.62-.11-2.57,7.19-6.67,5.46l-4.38-1.84-2.65,2.26-2.68,5.13-4.16-2.85c-.92-.63-2.28-1.94-2.98-2.65l.71-5.7c.08-.65.14-2.17-.08-2.76-.47-1.27-3.78-1.36-4.51-3.4-.36-1,1.73-4.18,2.06-4.4.49-.33,1.85-.04,2.7-.03,1.17,0,2.65-2.39,2.57-3.66s-1.63-2.38-2.57-2.57c-1.29-.26-2.7.09-4.35.79l-1.77-3.6c-.24-.5-.51-1.22-.55-1.62-.05-.5,1.2-1.42,1.71-1.43l3.83-.09c.56-1.25,1.43-1.98,2.42-1.73,1.31.34,1.46,1.36,1.96,2.72.36.98,2.8.7,4.18.65s1.1,2.31,1.53,3.43c.63,1.67,2.61,3.08,3.87,4.41,4.86,5.11,8.93.1,12.65.46.6-1.07.52-3.22.41-4.87l4.74-1.99c3,.64,6.2.06,8.82-1.61,1.85-1.18,2.65-1.95,2.31-4.63-.1-.79-.43-2.21-.91-2.74s-2.39-.58-3.05-1.12c-.96-.79-.28-3.54.15-4.44,2.05,1.56,3.37,2.37,5.7,2.64l1.87,7.07c.14.55,1.73,1.28,2.03.83.57-.86,1.34-2.91,1.51-3.94l-.1-6.73c.71-.02,2.02.19,2.47.61,3.39,3.2,9.02,3.31,12.97.23,1.62,2.26,4.25,1.83,4.79.8.34-.65.1-2.7.62-3.21l3.04-2.95-2.72-2.03-.05-4.24,5.78-1.34c1.21-.28,2.39-.62,3.66-.72,5.94-.45,2.92,4.81,8.97,4.2.62-.06,1.93.83,2.45,1.14.89-.76,3.58-1.16,3.67.28.04.54-.03,1.51-.05,1.92s1.67.56,1.89.96c.85,1.86.48,5.45-.02,7.88,3.47,1.6,7.82.93,10.62-1.65l1.44-3.35c2.59.02,1.97,2.46,3.12,3.71,1.01,1.1,1.92,2.51,2.18,4.08.32.63,1.66.88,3.17,1.38l-2.81,1.54c1.78.76,2.96,1.33,4.41,2.58l-4.28,6.69c-1.4,2.18-2.87,4.52-3.99,6.81-.13,1.58.61,3.79-1.95,4.34-4.31.92-4.4-3.52-9.38-2.39-7.22,1.64-.66,3.84-5.74,7.9-.82.66-2.06,1.59-3.18,1.63l-6.22.22c-11.55.41-4.38,7.89-14.58,4.23-2.23.81-4.65.91-6.14-1.35l.42-3.04c-.93-1.19-2.35-.86-3.78-.46l-6.86,1.91c-.62-.87-1.39-2.24-2.02-2.69-.71-.5-2.91,0-3.5.66-.85.93-2.57,2.93-3.61,2.07-1.78-1.48-3.13-2.88-5.32-2.96-1.56-.06-4.54,1.4-4.84,3.06,1.7,5.72-1.6,2.68,2.57,8.12-3.47,3.14-4,7.16-2.4,11.23.65,1.67,1.26,2.8,3.05,3.83.64.37-.65,1.88-1.42,2.18l-6.7,2.6c-1.82.71-3.02-2.28-2.71-3.59l.98-4.23-3.73-3.16c5.89-9.43-5.58-7.68,5.38-14.61Z"/>
      <path class="cls-1" d="M309.79,237.27c-1.84-.56-4.01-.24-6.21-.19l-2.84-4.99c.33-1.03.89-3.01.24-3.59-2.22-1.9-4.75.69-6.87.61-5.04-.2-10.88-3.85-13.8-.69l-1.35,1.46c-.89.96-2.51-2.61-6.58-2.97l.06-4.76c-1.11-1.01-1.89-1.87-1.99-2.88s1.37-3.18,2.13-2.73c2.68,1.64,4.28,2.25,7.33,1.95,1.26-.13,3.05.15,4.11-.34-.59-.96-1.05-1.81-1.16-2.66-.09-.69,1.03-2.16,1.58-2.26,1.71,3.33,6.1,7.6,9.36,5.77l3.78-2.12c1.82-2.43,3.92-3.32,6.87-3.02-.07-1.7,1.38-2.78,2.87-3.12.18-2.53.62-5.31,2.38-7.33l.75-2.2c1.47-4.32-1.26-4.98,1.33-6.29,1.32-.66,2.15-2.57.98-3.5l-2.77-2.21c-.86-.68-2.81-.22-4.87-.38.62-2.05,3.49-6.71,4.48-6.91.59-.12,7.3,1.9,6.29,5.91l5.3,1.66c.69.22,2.08,1.54,2.76,1.4,7.68-1.57,6.98-3.12,12.77-3.18.9,0,2.93-1.16,3.14-2.03.27-1.12-.57-2.88-.99-3.83-.99-2.26,1-3.41,2.28-4.68s2.39-2.38,4.05-2.58c1.96-.24,3.34,1.07,4.88,2.27l4.21,3.27,3.11.11c.28.48.68,1.94.92,2.95.8,3.38,5.44-1.59,6.94,1.64.6,1.29,1.42,3.98-.03,4.63-.83.37-2.96.54-3.74,1l-1.11,5.16c2.05,2.59-.09,7.51-2.36,9.09l.79,4.58,2.61,1.37c0,2.4.39,3.8,2.35,5.94l-4.46,3.93-2.87,2.56c-.72.64-1.73,2.07-2.56,2.94-2.35,2.44-5.17,4.45-7.14,7.13-.75,1.01-1.08,2.28-2.22,3.11-.55.4-1.31,1.17-1.33,1.67-.03.59.59,1.68,1,2.24l2.92,4c-1.03,1.29-.84,2.7-.27,3.83-3.76.59-8.12,7.38-5.78,10.43.33.43,1.83,1.22,1.62,1.71l-1.04,2.4c-.22.51-.48,1.78-.96,2.07l-5.69,3.49-3.15-1.39c.06-5.23-2.47-3.16-5.45-7.75-1.16-1.79-3.17-2.76-5.08-2.21-3.2.91-4.52-1.2-6.64-2.65l-6.08-4.17,1.93-3.23c.56-.93,2.99-1.76,3.22-3.07.45-2.58-1.4-5.58-3.97-6.36ZM353.55,204c.53.31,2.09-.25,2.37-.75,1.04-1.87.21-4.59-1.7-6.02-.76-.57-2.92-1.13-3.58-.05-1.45,2.38.43,5.37,2.92,6.82Z"/>
      <path class="cls-1" d="M129.75,148.77l-2.41-4.17c-.31-1.34,3.32-3.09,6.34-2.91,1.69.1,3.65-1.61,5.31-2.23,1.13-.42,3.94-.21,3.92-2.47,0-.83-.22-2.39-.32-3.5,1.16-.73,2.73-1.48,4.21-1.47,1.6,0,1.24,2.99,5.57,4.86,1.99.61,4.83.62,6.31,2.47l1.7-2.34c.74-1.01.15-2.34,0-3.57-.29-2.51-.65-5.92-4.15-5.72-.67.04-2.2-.23-2.69-.75-1.27-1.37,1.41-3.3,1-5.36-.27-1.36-3.81-.11-4.57-.06-.61.04-1.41-1.25-1.86-1.85-1.84-2.42.71-5.74.49-5.57.43-.32,1.78-.39,2.31-.5,2.74-.6,4.28.08,6.28,2.02.85.82,3.1,1.02,4.43,1.54,1.5.58,4.11,2.31,5.34,1.55,1.41-1.7,5.76-5.76,7.82-5.07l3.81-2.62,4.24-.9c1.97.41,3.22.95,5.41.05.67,2.07-2.08,4.59-2.68,7.3,2.35,2.42,3.11-1.07,7.41,2.11.8.59,2.82,1.12,3.39.45.79-1.53,1.7-3.44,2.71-4.61l7.07.71c.11-2.18-.34-4.44-.78-6.51l1.46-3.53c.69-1.67,2.8-3.27,3.13-5.05.14-.75.03-2.19.4-2.73.62-.9,1.43-2.28,1.74-3.12-1.89-.67-3.76-1.03-4.82-2.21-1.37-1.52-.17-4.16.8-5.53.34-.48-.82-1.94-1.33-1.67l-3.69,2c-.37.2-1.82-.19-1.78-.6l.18-1.89c.08-.87-1.53-1.91-2.45-2.84-.28-.58,1.03-1.8,1.75-1.84,1.11-.06,2,.45,2.87,1.43.81.91,2.42,1.28,3.58,1.93l3.11,1.74c.6.34,1.36,1.93,1.71,2.51,1.48.19,2.18.5,3.55,1.88.26-.12,1.02-1.46,1.19-2.17.14-.58-.71-1.23-1.71-2.25l3.63-1.62-.94-3.15,3.46-.81c.81-1.2,1.66-2.05,2.71-2.89l1.4-2.4,3.42,3c-2.42,1.21-3.42,2.94-3.1,5.35l3.47.25,3.35,4.92,6.39.6c.82.08,2.04-.28,2.4.19s1.01,2.18.69,2.67l-3.23,5.02,1.18,6.44c2.04-.21,4.18.17,6.32.66l2.59.59c1.28.29,1.83,4.08,1.91,5.62.06,1.22-1.28,1.76-2.04,2.67-2.78,3.33.28,3.16-4.48,5.24s-4.3-.8-7.49,1.59c-.99.74-1.79,6.09,1.33,7.7-3.57,1.83-2.05,7.21-4.05,5.72-.31-.23-.93-.8-1.13-1.15l-.55-.97c-.63-1.1-5.36,5.06-10.33,2.07-1.88-1.13-3.9-2.2-5.96-3.07-3.15,3.78.95,7.51-2.22,11.03-2.33-3.71-.7-7.5-1.85-7.65-5.59-.74-4.23-.03-7.91-6.39-2.4,1.61-1.11,3.72-.78,5.8.22,1.35.05,3.28.44,4.51l3.43.74c.59.77,1.1,3.55.36,4.38-4.13,4.6-9.55,2.68-10.47,3.03l-5.15,2.01.15,4.15c-5.98,1.53-6.45,4.69-11.86-.03-2.14-1.87-3.27-3.59-3.58-6.6-.15-1.5-3.66-1.67-5.17-.99-.19-.68-.45-2.52-1.01-2.76-1.14-.48-3.6-.98-4.76-1.21l-.31,1.94c-.07.44-1.29.5-1.98.35-1.56-.33-4.89,1.1-4.08,3l1.9,4.47c.35.82,1.49,1.98,2.17,1.36,1.61-1.47,4.19-1.47,5.09.55.33.73-.82,2.6-1.58,2.64l-3.69.18c-.48,1.3-1.19,2.92-2.12,3.31-2.89-.36-5.31-.06-8.18.78-1.9.09-3.56-2.55-5.34-3.39-3.7-1.74-6.48,4.63-12.22-.03-1.18-.96-3.21-2.07-3.86-3.24l-1.7-3.07Z"/>
      <path class="cls-1" d="M488.73,320.31l.39-4.55-4.69-2.69c-.38-.21-1.61-.17-1.94.09s-.67,1.34-1.07,1.63l-5.77,4.15c-1.49-.5-2.96-.95-4.21-.18-1.37.85-1.99,1.97-2.57,3.86l-3.66,2.08-1.61-2.58c-1.33-.4-1.85,1.11-2.73,1.89l-5.79,5.16c-1.13,1.01-2.17,2.72-3.52,2.71-1.78-.01-4.12-.67-4.28-2.5-.1-1.18-.41-2.65-1.43-3.02-1.2.26-2.78.77-3.81,1.37-2.67,1.54-5.12,2.78-7.85,4.11-1.51.73-2.71,1.27-4.43.82-1.86-.48-1.61-1.81-2.2-3.1-1.06-2.3-2.24-4.3-2.87-6.98l4.47.12c3.36-8.13,2.07-2.13,4.82-8.36.41-.92,1.29-2.72.67-3.55-2.33-3.1-4.12-6.69-5.75-10.06-3.58-1.96-3.9-5.98-5.25-4.9l-1.42,1.14c-1.01.81-2.61,2.56-3.99,1.21-.79-.77-2.52-2.14-2.88-3.09l-1.31-3.52c-.82-2.19.72-5.06.9-7.38.11-1.42-.18-3.53.38-4.63.38-.75,1.91-1.78,1.83-2.5l-1.83-5.59c-.18-.54-.8-1.45-1.14-1.93,2.37-1.29,4.44-.81,6.35.87l4.79-.05c.64-4.57,5.7-.96,5.43-4.68-.24-3.34-2.15-5.23-5.46-6.6l1.91-2,2.8,2.37c1.78,1.51,3.59,3.89,5.64,5.02,7.99,4.42,2.91,2.43,8.72,6.57,1.65-.5,2.64-.55,4.17-.71l5.45-.55c1.52-1.27,2.66-3.32,5.25-2.24l1.13,6.22c-.9,2.32-.52,3.33,1.6,4.66,1.45.91,2.66,3.11,4.01,4.34s1.93,2.49,2.87,4.05c.78,1.31,3.02,2.72,1.92,4.94-.2.41.34,1.77.7,1.57.91-.52,1.87-1.98,2.4-2.79l5.55-.8c.88-.13,2.18-.09,3.25-.09,3.41-4.26,4.86-1.81,6.55-2.1.95-.16.57-5.13,5.73-4.66.95.09,2.26,1.72,1.96,2.52-1.16,3.09-.15,4.39,2.23,7.29.39.48,1.78-.41,2.42-.65,2.96-1.08,5.62,1.23,6.19,4.26,1.01.94,7.51-1.08,8.99-2.3,2.57,4.31-3.85,4.58-7.04,9.55-.21,4.78,3.74,3.6,1.29,8.88l-2.18-1.34c-1.19,1.24-2.69,2.05-4.21,1.29l-6.02-3.01c-.57-.29-1.91.69-2.06,1.32-.18.71-.09,2.04.23,2.7l2.32,4.71-4.94,2.79c-1.62-1.25-3.44-1.34-5.41-.53Z"/>
      <path class="cls-1" d="M166.21,117.95l-4.3-1.65c-6.73-2.57-2.74-1.46-8.65-4.42-3.12,1.7-3.03-.03-5.85,1.08l-1.3,5.27,2.32,3.67c.98,1.54,2.89.55,5.1.02l-1.58,4.17-.59,1.27c-.12.27-1.05-.08-1.36-.08l-2.99,1.68-.64,1.51c-.19.43-1.52.11-2.09.06-.93.71-2.48,1.98-3.64,2.69-.57.35-2.36-.7-2.38-1.36-.08-3.85,5.89-2.71,4.03-7.26-.75-1.05-3.65-1.83-4.89-1.39-5.68,2.02-6.56.55-11.56-.33l-10.22-1.8c-.47-3.29-1.35-2.91-4.73-3.71-2.46-.58,2.86-4.4,2.92-5.95l-2.51-4.88-2.48-3.71,2.98.8c1.14-.23,2.36-.4,3.68-.31l4.99.34c.57.04,1.48-1.31,2.01-1.24.63.08,1.89.53,2.64.79,2.39-.75,4.82-1.94,7.52-1.14.99-.56-1.68,8.52-1.97,8.14-.45.85.2,3.03.91,3.7,2.25,2.11,4.34-3.26,7.47-4.76.34-.16,5.81,3.04,6.74,4.32,1.07-3.63,5.68-4.35,4.94-5.14l-.74-.79-.89-.94c-.78-.83,3.18-2.28,1.17-4.7-1.66-2-4.03-1.79-6.67-.07l.02-4.47c-1.66-1.84-3.54-3.27-5.64-3.77l-.7,1.69c-.19.46-1.65.54-2.19.69l-3.4.89.87-5.62c.11-.73-.86-1.92-.1-3.34l5.12,2.57,2.89-4.31c-.65-.76-2.36-2.64-2.34-3.85.13-8.4,9.39-11.18,9.86-10.94,1.32.68.55,1.17,2.44,2.6.75.57,1.11-1.51,1.88-2.76.85-1.39,3.22,2.05,5.3,1.49,1.79-.49,3.72-3.99,2.48-6.25-.26-.48.73-1.66,1.24-1.59,2.04.25,1.78,2.1,3.01,1.78,1.87-.49-1.47-3.76,2.4-5.76,2.01-1.04,4.12-4.62,4.27-6.66-3.19-4.88-7.1.22-7.5-2.64-.05-.39.57-1.56,1.13-1.58l9.65-.4c.89-1.53,3.11-6.51,1.58-8.5l3.23-4.63c.67-.96-.6-3.47-.88-4.46,1.31-1.15,2.47-2.29,2.85-3.81l.89-3.52c.58-2.28,6.18-7.32,7.8-6.24,2.12,1.41-.39,5.18,4.21,7.05l4.16,1.69c1.29.53.9,2.7,1.37,4.17l1.24,3.86c.3.94-.72,3.16-1.25,3.99-2.07,3.28-.61,5.49,1.67,7.53,4.14,3.71,5.85,4.45,11.19,5.42,7.51,1.36,2.65.32,10.01.41,1.76,8.43-1.61,6.02-2.05,13.39-.19,3.09,5.28,1.46,5.13,4.74-.17,3.49-2.99,6.5-5.36,8.72-.44.42-2.03-.08-2.61-.27l-1.08-.35c-1.45-.46,1.96,4.36.19,4.8-1.08-.62-1.91-1.09-2.26-1.1l-.89,5.02-4.14-5.03c-2.45.48-4.21-.2-5.65-1.99l-.82-1.02c-.84-1.03,3.26-3.4,2.51-6.69l4.43-2.86c1.28-.82,2.26-1.56,1.35-3.41-1.18-2.39,2.54-2.42,2.48-4.4-.02-.7-.87-2.22-1.48-2.01-1.91.75-3.8.7-5.3-.92-.74-.8-3.17-.87-4.27-1.25l-2.73-.94-.22,1.65c-.06.42-1.13.53-1.67.69l-3.76,1.13c-3.34,1.01-3.6,2.67-3.85,2-.97-2.64-.4-2.07-4.35-4.39-.73,3.05-3.27,4.12-6.46,4.26-1.09,2.63-.27,5.74.88,8.27.75,1.66-1.65,2.51-2.01,3.52l-2.38,6.83c-.29.9-.26,2.94-.37,3.88l4.95,2.43c-.09,1.83-.41,3.8-.02,5.14l1.6,3.78c1.35.38,3.59,1.47,4.75,2.1,5.86-1.35,4.05,5.62,9.56,2.08.77.65,3.11,1.45,3.59.12.43-1.18.7-2.57,1.52-3.27s2.17-.85,3.4-.68c3.57.48,3.24-2.25,5.67-.32-1.64,1.63-1.89,2.49-1.82,4.57.05,1.49-2.1,2.82-2.64,4l-2,4.36c.39,1.78.9,3.94,1.09,5.94l-6.24-.83c-1.34.91-2.51,3-3.45,5.22l-4.53-2.05c-.92-.42-2.97-.14-4.27-.27,1.81-2.63,3.86-6.85,1.78-8.54-.31-.26-1.27.12-1.64.43-2.67,2.22-3.01-2.11-5.77.54l-3.65.48c-1.29,2.12-3.56,3.07-5.84,2.78-.82.93-1.72,1.71-2.88,2.4l-2.55,2.7ZM161.63,102.85c5.76-2.37,1.19-3.82,4.81-6.1-.32-.93-.65-2.52-.65-3.63-.02-2.16-3.85-2-.1-8.14l4.06-.64c1.57-1.46.21-3.18-.88-4.62,1.57-.94,3.58-1.6,4.48-3.25-1.22-1.33-3.16-2.86-4.49-3.47l-4.89,1.77c-.92.92-1.8,3.58-2.96,4.31l-4.8,3.03-3.52-.38c-.77,2.98-3.47,3.69-6.61,3.52-.06,1.63,1.52,2.89,2,4.23.63,1.78.63,3.89,1.42,5.75.43,1.02,1.82.57,2.6.49l4.36-.39,3.17,3.64,1.33-.24c.97-.18-1.01,2.8.66,4.08ZM200.7,109.66c1.44-.98,1.66-1.17,1.53-1.42-.1-.21-.32-.68-.53-.63l-.85.2-.15,1.85Z"/>
      <path class="cls-1" d="M563.14,84.87c-9.82,3.78-3.62,6.1-7.53,7.99-.27.13-1.03.81-.85,1l.88.92c7.08,7.39.12,3.98,3.74,10.37-6.61,5.21-8.58-3.14-16.07,2.83l-.59-3.41c-.26-1.5-3.53-.81-4.85-2.27-.47-.52-.55-2.24-.85-2.89-1.07-2.25-2.02-4.11-2.52-6.58l-3.15-3.82c-5.76,3.57-7.81,1.78-10.57,6.57-1.66-1.45-1.9-3.38-.91-5.2.66-1.21.12-3.05.25-4.14.39-3.38,4.73-3.92,7.21-3.81l2.27.11c2.23-.54,4.68.13,5.44,3,1.32-.51,2.34-.99,3.59-1.74l-4.21-4.38c.95-2.65.71-5.93-1.27-7.62-4.27-3.67.71-2.19-2.46-5.7-1.63-1.82,1.24-4.04.96-5.73l-.69-4.19c-.22-1.37-1.24-3.85-2.1-5.05l-2.6-3.66c-.69-.97-2.23-3.06-1.73-4.08,1.11-2.26,2.58-5.76.7-7.69-2.12-2.17,2.27-5.36,3.76-5.5l4.13,3.04c1.08.79,2.56,2.99,3.31,4.08,2.06,3,4.21,3.44,7.67,3.46,2.59.01,5.35.24,8.05.07.9-.06,2.21-.21,2.85.03.73.27,1.65,1.87,1.64,2.71-.02,2.05,1.52,2.61,2.95,3.44,7.37,4.29,9.9-.12,15.03-2.71,3.65-1.84,7.93-3.03,10.74-6.28,1.76-2.03,3.58-4.21,5.4-5.99l6.25,1.98c-.72,2.25,1.88,2.3,2.34,3.16,4.2,7.87,4.77,6.73,2.39,9.21-1.23,1.28-.8,3.6-1.19,5.28-.45,1.95-1.28,3.56.9,5.09s3.18,4.92,2.98,6.59c-.1.77-1.54,1.43-2.62,1.86-2.88,1.14.02,6.26-1.39,7.76-1.28,1.36-3.21,3.26-4.45,4.42-4.59-.57-2.62,2.3-7.53,4.06l-.11,4.56c-1.11,1.62-5.35,6.94-7.47,4.43-1.43-1.69-3.16-3.81-4.88-4.84-1.65.93-2.77,1.11-4.52.65-1.59-.42-3.43-.38-5.05-.52-.81-.07-2.17-1.31-3.29-.88Z"/>
      <path class="cls-1" d="M55.58,110.06c.68,1.44,1.88,3.73-.05,4.61-1.03.47-3.43-.06-4.45.22-2.2.61-8.53,2.48-8.78-1.02l-1.81.43c-.47.11-1.69-1.48-1.26-1.78l3.56-2.54c-1.09-1.65-5.09-2.69-5.67-2.61-.54.07-1.3,1.01-1.89,1.6-.96.95-3.88,2.05-5.01,1.32-1.04-.68-1.5-2.79-2.18-3.4l-2.34-2.07c-2.18-1.93-7.33,1.2-8.64-3.58l-5.04-3.22,1.63-1.79c-.43-.56-1.18-1.81-1.03-2.35.18-.63.95-1.22,1.9-2.1l-.96-2.93c2.47-3.08,3.17-6.65,2.63-10.34l3.25-6.37c.23-.46,1.43-1.01,1.75-1.41.37-.46.27-1.55.14-2.67.44-.76,1.55-2.25,2.33-3.04l5.22-5.29c.95-.97,1.23-4.26,3.57-3.76l4.55.98c1.45.31,2.91,0,4.38-.54,11.66-4.35,4.47-3.12,9.44-6.08,3.21-1.91.05-3.77.73-5.51.89-2.27,3.72,2.43,7.09,2.01,4-.5,6.69-4.78,8.46-7.84,1.04-1.79,1.66-2.49.51-4.68l-3.33-6.35c-.12-.22-.22-1-.25-1.2-.04-.3.95-.71,1.11-.46,2.34,3.61,5.37.33,8.15,1.58-.82,2.42-1.51,5.11.5,6.68,1.68,1.31,3.79,3.3,3.18,5.93-1.66,7.28,6.32,9.32,1.59,12.48l.34,3.53c.1,1.06-.16,3.08.81,3.32.57.02,1.93-.22,1.82.17l-.49,1.64c-.11.38-.87-.32-1.59-.92-1.27,2.74-3.98,3.52-6.6,2.51-.36-.14-1.83-.35-1.7-.72l.6-1.65c.16-.44-.12-1.57-.57-1.73-.56-.2-1.62-.24-2.36-.23l-3.58.02-3.65,5.01,1.87,2.29c3.83,4.69,5.8,1.16,6.04,3.62l.46,4.54c6.92,2.09,5.16,4.42,5.76,4.57l1.51.38c.67.17,1.95.57,2.41.76-.57,6.21,3.67,6.81-.64,7.98l-3.81,1.04c1.98,2.5,1.56,5.15.89,7.79-.44,1.74,3.83,3.64,1.66,4.73-2.53,1.26-4.23-.76-7.54.75l-5.02,2.3-2.37,3.37-3.84-2.54-3.38,4.53Z"/>
      <path class="cls-1" d="M243.45,214.31l-2.43-.64c-4.76-3.39-1.33,2.28-9.85-.39-2.62.7-5.82,1.89-8.39.07l-1.21-.85c-.7-.49-.72,1.43-2.85,2.54-.53.28-1.39-.99-1.88-1.53-1.01-1.1-2.87.63-3.01,2.08-.18,1.85-.95,3.68-2.16,5.15-.7.85-.61,3.7.45,4.26,5.87,3.07,9.43.63,8.52,3.55-.3.95-2.69,1.26-3.63,1.49l-1.53.36c-.32.08-.78-1.05-1.11-1.05l-4.37-.08c-3.54,9.05-8.77,1.59-6.27,11.48-.44,1.68-3.02,3.68-4.5,4.94l-4.01-.35-1.36-2.81-4.41-2.84c-1.53-.98-2.94.81-3.6,2.69-2.68-2.35-5.1-4.33-8.43-3.9-2.97-9.03-2.06-6.73-7.03-11.66-2.72-2.7-1.95-5.8-7.74-8.86,3.22-2.65,6.72-4.89,8.41-8.55,1.25-2.7,3.78-4.72,5.74-8.67.91-1.83-.55-4.93-.7-6.8l-.49-6.25-.12-2.29c-.03-.55-.96-.76-1.88-1.47.46-2.02,3.88-11.37,5.84-11.05.54.09,1.41.57,2.09.91,3.74,1.87,7.39-.72,8.77-4.44.37-1,3.23.35,2.99,1.27l-5.44,5.03c-.34.32-.88,1.03-.93,1.43-.06.48.63,1.39,1.03,1.7,4.11,3.28-.82,6.19-.88,8.67-.04,1.63,4.95,2.29,3.91,5.13-1.69,4.59,1.91,8.05,4.51,8.63.56.12,1.6-1.08,2.14-1.29l8.09-3.24,1.22-4.89-2.76-1.62c-1.48-.87-2.58-6.38-.29-8.79.73-.11,2.57-1.05,2.46-1.85-.19-1.41-1.31-3.17-2.22-4.62-.69-1.1-.87-3.99.04-4.88,2.8-2.77,4.57,3.43,6.23,3.7.67.11,1.87-.65,2.48-1.14l3.69-2.97c.89.32.65,4.02,2.24,3.43,2.69-1,5.06-1.78,8.12-2.57,3.55,8.67,9.79,3.54,11.27,6.08,1.06,1.83-4.23,4.28-1.95,6.44l2.74,2.6c1.76.68,3.05,1.21,2.81,3.43l-.37,3.47c-3.68,2.76-6.74,2-8.66,4.13,2.31.33,5,2.02,4.37,4.33-.23.85-1.16,2.3-1.29,3.14s.92,2.53,1.81,2.76l6.16,1.61c.79.21,2.11,1.61,2.76,1.4-.79,3.23,1.76,5.47.68,5.69l-1.38.29c-.78-.2-1.49-.68-2.39-1.52Z"/>
      <path class="cls-1" d="M170.12,207.14c.16,3.82-5.54,8.84-8.87,9.57l-2.63-2.77c-3.13-3.3-7.22-5.47-11.88-3.53-6.11-2.38-14.09-5.48-19.83-1.21l-3.27-.11c.08-2.07-1.03-3.65-1.93-5.34-1.96-3.64-4.35-6.5-7.06-9.53-5.54-6.19-5.73-5.23-14.46-7.44l1.06-3.78c-2.24-6.46,6.93-16.39-1.81-13.66l.53-3.38,2.82-1.87c1.13-8.79,2.43-4.06,4.84-7.86,4.83-7.62,1.37-1.26,5.86-6.61,1.86-2.21,5.15-1.72,7.65-2.53,1.1-.36,2.57-1.1,3.52-.89,1.24.28,1.72,1.97,2.34,3.05l2.23,3.88c1.58,2.74,4.43,2.88,7.34,6.58,1.34-.41,2.35-.4,3.71-.08,2.59-.2,4.71-4.31,8.12-.7,4.32,4.58,7.56-.1,10.69,1.14,1.35,1.99,3.08,3.24,5.32,4.53.06,1.8-.47,4.5-1.04,6.34,1.58,6.59,8.51,4.76,9.69,13.51.88,1.21,1.47,2.31,1.54,3.93l.26,6.42c.07,1.65,1.88,4.2.71,5.88-3.57,5.14-1.3,3.35-5.45,6.46ZM153.61,177.53l6.4-2.7c.58-1.83-3.97-6.67-6.98-4.41l-3.03.15c-1.23,1.31-.32,5.59.54,6.53.45.49,2.41.72,3.08.43Z"/>
      <path class="cls-1" d="M432.66,146.18c-2.03.02-2.45,2.72-4.39,5.47-1.35,1.91-.64,3.95.72,5.89-1.13,1.38-1.49.28-5.65-.2-8.27-.96-6.74,4.36-11.09-.38l-2.35,1.02c-.56.24-.44,1.86-.82,2.68s-2.9.56-3.74.92l-4.58,2.01.64,4.09c-3.58,2.13-1.61,5.91-6.97,8.37-.47-1.75-.87-3.81-1.67-4.6l-2.99-2.96c-3.68-3.64-.76-3.09-3.49-4.23l-1.2-.5c-.23-.1-.08-.69-.05-1.05s1.06-.06,1.61-.15c1.59-.25,4.41-2.34,4.75-3.94.53-2.49,1.28-3.55,2.74-5.41,1.25-1.59,2.33-3.94,3.38-5.87-1.43-1.67-1.76-3.34-.79-5.29l-4.63-3.32c-.57-7.5,1.16-4.4-1.21-12.02-.27-.86.96-2.23,1.68-2.61,1.05-.55,2.53-.34,3.95.09,2.25.67,4.11-1.84,7.08.03l4.09-2.26c2.3-1.27,5.71-1.43,8.47-1.37.56.01,1.87.97,2.24.56.49-.55,1.02-1.38,1.28-2.03l.67-1.67c.18-.44,1.47.27,1.73.67,2.13,3.25,4.24,1.65,8.88,4.73-1.19,2.26-2.01,3.58-2.01,5.84,0,1.41,5.92,3.78,7.77,2.02,2.09-1.98,3.02-4.62,4.04-7.3,2.69-7.12,6.86-4.71,7.59-5.12,1.44-.8,1.8-5.51,4.9-4.56.73.22,1.22,2.31.79,2.81-2.35,2.69-2.06-.28-3.88,4.73-.45,1.23-.05,3.13,1.24,3.33,2.06.33,3.13,1.2,4.4,2.63l3.53,4,5.66,1.98c8.74-3.21,11.39,6.43,16.52.51,1.98-2.29,4.9-4.34,7.77-3.11l1.07,4.45-4.02,2.1c-1.27.67-2.15,2.37-2.11,3.7.07,2.41,2.13,3.1,3.91,4.8,1.48,1.41-3.42,2.7-5.52,5.72-.52.75.21,2.23.94,2.44s1.95.76,1.84,1.28c-1.89,9.08-4.88,1.37-7.71,9.16l-2.1-6.63c-1.12-3.53-4.65,1.2-7.09-1.74-.32-.39.07-2.04,0-2.53-.25-1.38-2.67-1.92-4.18-2.24-2.29-.48-4.69-1.71-6.8-.96-1.84.65-.31,2.71-.3,3.82.03,1.83-.25,3.81-.46,5.9-2.14-.16-4.56-.63-6.14.44s-1.72,3.86-2.41,5.27c-.88,1.8-3.43.23-4.47-.33-.26-.14-1.15.53-1.43.44-.35-.11-.79-.55-1.21-1l-2.56-2.78-1.2.04c-.26,0-.73-.49-.89-.69-.22-.26,1-.96,1.14-1.29.49-1.2,1.15-3.76,1.91-5,1.42-2.29,4.52-5.84,2.5-7.59-1.77-1.53-3.29,2.66-6.32-.13-.7-.65-1.94-1.1-2.98-1.09Z"/>
      <path class="cls-1" d="M61.18,158.49c1.59,2.02,1.29,4.25,4.79,4.92-1.07,1.12-2.39,1.36-3.57,1.55-.42,1.87-1.35,3.39-3.11,4.23l-5.48,2.6c-.68.74-1,2.9-1.52,3.84-1.95,3.52-3.83,6.43-6.18,10.13-3.1-4.04-5.96-7.87-6.96-12.65-1.52-7.24-3.64-2.33-6.95-9.56l-2.12.95c-5.39-5.2-9.08.32-11.38-2.02-1.43-1.45-3.23-2.88-4.25-4.45-4.82-7.48-4.36-3.28-4.96-7.49-.36-2.53-.65-4.99-.2-7.54s-1.67-4.37-2.31-6.52c-1.31-4.42-2.91-7.82-6.96-11.01l5.76-2.2c2.97-1.13,3.92-5.45,3.11-8.39l1.81-2.36c.63-3.75,4.87-7.24.4-9.67-2.61-1.42-.15-3.49-2.44-5.68l2.17-4.07c1.92,1.69.23,3.67.36,5.54,1.5,1.12,4.06,2.37,5.1,3.83.72,1,1.21,2.15,2.23,2.3l6.33.96c1.74,1.6,3.06,4.11,4.86,5.6,2.86,2.37,7.45-2.57,8.47-2.48.87.08,2.3.66,2.97,1.08l-3.42,1.96c.27,1.15,1.06,3.04,1.97,3.36,5.45,1.95-.67,1.11,6.7,1.7.34.03,1.12.75,1.4.59l1.42-.78c1.31-.72,2.68.93,3.49,2.22.62.99.46,2.33.09,3.15.99,1.21.87,2.64,1.02,4.18.28,2.79,1.76,5.35,1.03,8.9l3.39-.55,3.02,7.56c1.69,4.22,4.69-.12,7.32,1.49.29,2.18.27,4.93-.36,6.54l-5.02-1.32c.31,3.09-1.92,4.53-3.8,6.47-1.06,1.09,1.15,2.27,1.79,3.08Z"/>
      <path class="cls-1" d="M468.7,362.4c-4.09,2.05-5.08,2.81-8.06,6.14-2.01,2.24-5.66.98-7.49-1.01-2.45.35-3.01,3.17-4.79,4.2-.88.51-3.19.2-3.76,1.61-.48,1.2-1.75,2.71-2.78,2.93l-4.29-3.15-1.54,2.39,2.34,2.26c-3.58.44-6.01.82-8.87,2.54-.68.41-2.32.48-2.69-.15l-2.31-4.02-4.95-8.8c-3.9-6.93-7.75-13.32-13.23-19.39l3.14-.11c.68-.02,1.36-1.22,2.02-1.91.74-.78,2.41-1.78,2.93-2.56,1.38-2.04,3.29-2.17,5.09-1.47,12.58-12.69,7.68-3.84,15.49-7.67,3-1.47,5.81-2.97,8.98-4.78.99,1.31,2.43,4.1,3.86,4.42l4.55,1.02c2.63.59,3.74-2.91,5.13-4.15l4.5-4.02c2.23,1.11,3.99.92,6.11-.19,1.65-.87,2.64-1.29,3.13-3.49.14-.61.78-1.88,1.38-2.05,1.67-.48,1.64.52,4.48.84.48.05.9-1.07,1.36-1.56,1.32-1.42,5.53-4.36,6.96-4.01,2.58.64-1.24,5.39,2.22,7.14l3.71-1.11c1.44.63,3.96,1.53,5.15.88,1.5-1.94,3.12-2.96,5.51-2.43l3.21-1.59c1.35,2.48,1.14,4.8,1.36,7.4.1,1.1,1.44,2.15.19,3.49-.66.71-1.34,3.07-.64,3.83,1.07,1.17,2.7,1.88,3.97,2.75,1.41.96.23,4.07-.99,4.35l-3.36-1.04-1.17,4.88c-.21.13-2.84-.05-2.82-.82l.04-2.39c.01-.64-3.29-2.67-4.09-1.6l-4.46-4.31c-2.56,1.65.22,2.39-3.42,5.94-1.32-.37-2.57-.92-3.39-.41-1.27.79-1.78,1.74-2.43,3l-2.39,4.65-1.39-1.38c-.73.37-1.79.85-2.55.91l-3.56.28-1.27,1.45c-.34.38-1.49-.31-2.12-.54-1.36.69-3.16,2.43-4.05,3.78l1.53,3.27,1.33,1.05c.99.78-1.77,2.4-.83,4.68Z"/>
      <path class="cls-1" d="M508.18,422.47c-5.61-.06-5.55,5.51-9.45,1.95l-3.66-.32c-5.26-6.15-14.32,1.19-16.31-4.27-1.4-3.86-4.87-4.6-7.47-6.78-5.67-4.76-2.24-2.33-10.84-4.9-.65-.19-1.11-2.09-.97-2.66,2.2-1.66,4.34-3.62,6.52-4.88l4.07-2.35c1.31-.76,2.02-3.55,3.84-3.7.56-.04,1.49,0,1.75-.27.3-.33.49-1.05.71-1.84l2.93-.29,6.12-.88c-.35-1.37.07-2.44.96-3.24l3.05-2.72c.03-.7.12-2.2.39-2.96.34-.94,1.87-1.49,2.72-1.93,1.53-4.95,3.68-1.42,6.15-7.47.57.1,1.46.5,1.63.24l1.1-1.62c.91-1.07,3.55.23,4.97.81l2.17-3.32.15-3.36c-1.64-.74-3.29-1.25-5.6-1.93.06-1.64.77-4.15,1.61-6l3.91,1.22.45,2.41,2.49,2.27c2.5-.38,4.65.25,6.73,1.68l3.19,2.19-2.25.94c-1.7.71.62,6.1,1.18,7.16,1.25,2.36,4.43,2.63,6.04,4.03s2.12,3.04,4.23,4.12c.67.35.2,1.8-.38,2.42-1.47,1.59-4.73-.67-6.69-2.87-1.07-1.19-4.26-2.18-5.76-1.72-1.71.52-3,3.55-2.6,4.96.79,2.81.34,5.36-2.01,7.04-.36.74,2.06,4.36,2.75,4.72.53.28,2.17.1,2.48-.42.53-.9,2.39-2.4,3.32-1.34,1.45,1.64,2.97,2.71,5.21,2.73,8.29.1,3.11,6.76,9.21,3.27l4.21,3.49c2.48,2.05,3.25,4.71,1.61,7.69-.5.9.95,2.63,1.41,3.65,1.32,2.94,1.79,6.97.13,10.02-.89,1.63-5.36,2.05-6.76.92-3.33-2.69-6.19-5.72-9.83-7.68-6.29-3.4-12.97-1.67-18.8,1.8Z"/>
      <path class="cls-1" d="M470.53,395.45c-.31.25-.79,1.31-.99,1.65-.24.41-1.58-.07-1.86.31l-1.15,1.58c-.26.35-1.28-.04-1.84-.13l-1.23-.21c-.33-.06-.08,1.49-.29,1.75-.98,1.24-3.15,3.32-4.41,4.58-.7.7-1.32,1.53-2.15,1.34l-6.88-1.54c-1.04-.23-3.3.42-4.44.38-2.31-1.74-4.49-2.28-7.49-1.48l-3.5-4.63c-.89-1.17-2.35-2.66-3.24-3.73-.57-6-2.35-7.11-3.3-13.21,2.27-.95,3.97-2.23,6.07-2.51l5.98-.8.64-1.23,1.42-.24c4.14-.71,2.58-5.84,7.47-3.04.26-1.76,1.15-3.9,2.7-4.85.39-.24,1.69-.15,1.89.24l.89,1.77,3.01-.9c4.6.61,1.38-.27,7.18-4.78,1.32-1.03,2.48-1.72,4.17-1.83.91-.06,2.05-1.44,1.58-2.08-1.99-2.73,1.36-3.12.33-4.55-1.41-1.95-3.51-2.46-2.34-4.82.99-1.98,2.21-.34,3.51-.71,2.74-.76,5.19-2.99,8.29-2.2l1.01,2.17,1.61-3.36,2.6-5.1c.8-1.57,3.02-.31,4.33-.71,1.64-.5,2.4-2.97,3.24-4.9.29-.01,1.49.7,1.93,1.16.75.78-1.36,3.54.44,3.82.46.07,1.47-.1,1.89-.32l1.48-.77c.41-.21,1.62.51,1.61.98l-.03,2.86,4.92.69.79-4.68c4.29.25-1.03,5.18,4.55,4.69l1.15,3.28c1.36,1.01,2.72.09,4.19-1.28l1.07,3.2.47,1.42c.51,1.56-5.6-.38-7.76,1.43l.42,4.55-2.34-.92c-.96-.38-1.93-.91-2.92-1.56-1.56.81-2.31,3.03-2.81,4.97l-1.47,3.52c2.18.34,4.21.58,6.25,1.49.72.33-.24,2.28-.55,2.94l-.58,1.24c-.15.32-.78,0-1.33-.11l-3.62-.74-1,1.93c-2.06-.17-2.89,1.19-3.4,2.94-.44,1.12-2.95,2.04-3.8,2.93l-2.7,2.82c-3.07,3.21-2.84,7.71-6.38,6.9l.42,3.21-9.23,1.19-.35,1.71c-.08.42-1.38-.03-1.71.25l-2.42,2.01Z"/>
      <path class="cls-1" d="M578.26,106.83c-5.46,1.05-6.64-3.51-8.84-2.89-3.39.97-6.75,1.57-9.98-.35l.5-5.2-3.16-4.34c3.13-3.92-1.06-6.1,7.38-7.99,1.69.77,2.44,1.15,4.28.86,1.4-.22,3.9.73,5.27.84.76.06,2.63-.81,3.18-.22,1.29,1.39,2.47,3.1,3.64,4.09,1.96,1.66,4.55-.38,5.8-1.61l2.31-2.27c2.47-2.42-.54-4.95,1.06-5.6l1.96-.8c.67-2.4,2.83-2.69,4.88-2.95l6.36-6.41c1.39-.05,3.48.13,4.51-.19l5.76-1.81c.32-1.65,1.85-3.91,2.88-5.28.33-.44.42-1.84.6-2.34s1.71-.36,2.18-.61c3.85-2.04,6.4-5.33,8.41-4.05.61.39,1.22,1.18,1.95,2.09l2.92-.05-1.4,2.92c6.4,7.94,1.34,4.15,7.13,7.39,2.53,1.42-.03,4.86-1.18,6.31l-4.7,5.91c-4.72,5.93-8.96,12.12-13.15,18.44-.79,1.2-1.2,2.55-2.17,3.72l-3.05,3.67c-2.17,2.62-5.31,5.54-5.57,8.93-.04.51.68,1.77.31,1.95s-1.49.5-1.85.75c-1.45,1.02-3.6,3.54-4.22,5.23.43,2.01.05,4.48-2.03,4.48-.93-1.39-2.24-3.15-3.41-4.7-1.1-1.47-1.44-4.26-2.8-5.51l-2.78-2.55c-1.54-1.42-2.97-2.63-4.36-4.42l-2.43-.33c-1.72-1.65-3.89-4.58-6.2-5.13Z"/>
      <path class="cls-1" d="M525.56,295.56c-.06-2.33.65-4.96.96-7.36-.58-.58-1.98-.11-2.73.48-5.7,4.44-5.61.26-9.76,3.6-1.04.84-3.31,1.51-4.48,1.43-.64-3.45-5.73-4.81-8.38-4.31-.48.09-1.82-.29-1.78-.74.19-2.21,3.05-4.77,4.91-6.22,1.63-1.28,2.55-2.6,5.14-2.34,6.88.69,5.02-4.26,8.6-6.23,1.21-.67,3.13-1.18,3.81-2.06-.6-4.92,3.64-5.76,1.95-8.11-18.21-6.15-7.58-3.71-17.26-2.05-2.51.43-4.58-.52-5.12-3.32,1.53-1.06,3.33-2.62,4.99-3.22l7.16-2.59-.5-4.45c2.73-3.45,9.99-1.36,10.38-8.7,7.18-1.44,8.81-.26,12.47,5.57.79,1.26,2.92,1.82,4.2,2.68,2.06,1.38,4.02,1.75,6.5,2.1,1.7.24,2.83.6,4.83-.4l1.12,2.65c1.29.1,3.44-.26,4.59-.04l7.37,1.41c.62.83-.51,2.28-1.14,3.14-5.05,6.93-3.91,13.01-8.64,16.62-4.3,3.28.56,5.2-3.83,8.48.24.72.33,2.43.82,2.98l2.43,2.72,2.47.97c-1.76.81-2.72,1.18-3.72,1.96l-3.62,2.81c-.02,1.81-.5,3.33-1.52,4.84-4.24,6.29-3.92,4.92-10.51,8.79.27-1.99.56-3.89.24-5.33-2.59,1.78-6.23,4.95-8.78,3.76-.84-.39-.93-2.13-.48-3.19l-2.08-.04c-.47-.01-.47-1.46-.48-1.95l-.12-4.33Z"/>
      <path class="cls-1" d="M562.28,319.43c-2.56-1.07-5.52-2.61-7.96-1.75-3.88,1.36-6.9,2.91-9.94,5.59-.8.71-3.25-.34-4.22-.04l-4.57,1.45-1.16-2.44c-1.04.65-3.06,1.42-3.99.85l-3.32-2.05c.61-1.1,1.34-3.45.67-4.39-1.77-.52-3.53-1.07-4.82-1.75,2.34-1.74,4.74-3.49,5.97-5.1l.43-3.21,2.89-.5c1.05-.81,2.99-1.83,3.66-1.38.35,1.22.6,2.39,1.06,2.72s1.56-.26,2.19-.53c4.05-1.71,6.98-4.61,9.43-8.2,1.02-1.49,2.73-2.38,1.49-4.89,1.42-1.08,3.03-2.57,4.48-3.34l4.32-2.28c-1.58-.85-2.13-1.09-3.59-1.65s-3.12-3.07-2.52-4.61c2.76-7.08-.63-5.66,3.89-8.34,1.22-4.02,1.86-1.4,3.13-6.65.91-3.72,2.23-7.5,4.91-10.24.94,3.43,1.01,6.52,3.08,8.88,2.17.3,5.21.45,7.31,1.08,8.08,10.29,8.65-.41,9.82,7.21,1.57.37,3.82-.52,4.8-2.82,2.9,6.03,7.58,6.6,7.49,10.67-5.46.35-3.43-1.76-6.13-1.03-1.22.33-1.91,1.09-2.76,2.41l-3.8.48,1.7,3.58c.29.6-1.35,1.78-1.64,2.45-1.08,2.5-.29,6.69,1.52,8.87.77.93,2.06,2.07,1.89,3.06-.57,3.41.6,6.36,3.96,7.45l.41,4.87,3.17,2.96c.41.39.81,1.57.66,2.12-.62,2.21-2.47.48-5.3,2.91l-4.97-4.51c-.19-.17-.89-.44-1.14-.52,1.41.41-5.47,3.87-8.4,2.11l-4.23-2.54c-.9-.54-3.25.28-4.4.24-2.32-.07-3.81,1.13-5.5,2.75Z"/>
      <path class="cls-1" d="M302.43,279.49c-1.02.95-2.48,1.53-3.07,2.63-2.18,4-3.07-.54-8.15,4.93l-4.67-.61c-2.24-.29-3.17,2.79-4.45,3.53-1.74,1.01-4.68.44-6.7.06.52-2.53.77-3.96.89-6.61l2.36-1.53c-.36-3.04-3.23-4.53-6.65-4.7l-1.25-5.77-2.91-1.92,1.51-2.92c.36-1.66-.82-3.94-1.02-5.67-.5-4.26,6.92-3.37,8.13-5.37-1.34-1.24-2.24-2.25-3.41-3.57l-4.38-4.99-1.24.09c-1.2.09-.02-2.95-1.5-3.35-2.32-.63-1.91.77-3.96.71-.36-.01-.41-1.31-.23-1.62l1.62-2.8-2.33-2.9c5.32-2.31,4.24-4.28,6.91-7.48-2.75-.71-8.04-2.3-8.31-5.97l4.99.5,4.43,4.98c7.99.09,3.94,2.46,10.7,3.61l3.73-3.38c2.04.41,4.06,1.01,5.97,1.75,4.85,1.87,6.09-.45,8.21.13.32.09.36,1.12.53,1.42l4.13,7,4.7-.44c1.03-.1,2.56.43,3.1,1.07.72.84,1.24,2.72.42,3.03-1.29.48-2.35.82-2.95,1.26s-.61,2-.85,2.79l-1.05,3.46c3.56,3.23,6.88,3.89,9.55,7.45,1.8,2.4,2.85.63,7.89,1.14l2.81,3.78c.7.94,4.37,1.45,2.9,3.39l-4.38,2.97c-2.24,1.52-5.52-4.78-8.85-2.08-1.55,1.26-3.25,3.13-4.89,3.85-1.75.76-3.48,1.1-4.43,2.5l.51,1.3c.13.33-.71.94-1.02,1.23l-3.35,3.13Z"/>
      <path class="cls-1" d="M343.87,102.19c-1.04,1.4-2.13,2.73-3.5,3.46-4.41,2.34-1.01,4.58-5.13,8.12-1.46-2.38-3.25-3.07-6.03-2.34l-1.62-3.38c-1.2.72-2.43,1.7-3.41,2.73-1.64,1.74-3.76.35-4.8-1.04-4.77-2.29-6.3.61-8.5-.35s-3.38-1.82-5.88-1.66c-2.07-5.95.29-6.06-2.53-12.27-.7-1.54-2.68-3.08-3.24-4.7l-1.36-3.91c-.14-.41-.33-1.68-.08-2.03.32-.44,1.17-.64,2-.92,8.5-2.85,16.09-7.18,23.77-11.8,8.56-1.58,2.97.56,9.18-.35,2.41-.35,4.84-1.28,6.83-2.32l5.49,4.02c5.23,3.83,2.78.01,10.37,2.32,3.37,1.02,7.07-.3,10.03-2.38l5.95,2.47-.55,6.73c-.13,1.63-3.41,2.53-4.03,3.79-1.06,2.17-1.56,4.16-3.28,5.93-.37.38-.4,1.73-.02,2.18,1.2,1.42.8,1.67.27,5.08-.05.34-1.02.5-1.55.65l-1.76,3.53c-1.78.52-7.36,2.25-8.12,2.91-1.45,1.26-.92,3.07,0,4.75-1.16.57-2.2-.67-2.15-1.94.11-3.24-3.28-2.4-6.36-7.27Z"/>
      <path class="cls-1" d="M110.68,112.21c-5.05,2.85-1.76,5.01-3.22,5.76-2.61,1.33-10.85,4.37-13.36,3.64-1.98-.58-3.57-3.42-3.02-6.01l1.25-5.82-3.76-2.44c-1.1.87-3.06,1.71-3.79,1.08l-2.94-2.56c.61-4.19-4.21-6.6-4.24-8.92l-.09-7.25,3.84-1.05c2.05-2.63-1.71-3.91-.51-8.76.05-.56-1.35-1.28-2-1.23-4.2.36.7-2.24-7.87-5.11-.31-2.31-.78-4.73-1.67-6.46-1.02.42-2.29.83-2.88.57-1.11-.49-2.51-2.87-2.97-3.76-.21-.41.73-1.34.99-1.78l1.02-1.68c.23-.38,1.4-.11,1.89-.15l3.12-.25-.49,3.74,3.58.84c2.23.52,4.47-.67,6.2-1.62.58-.32,2.16-.37,2.54-.88.45-.6.54-1.95.28-2.93-.18-.7-1.5-.87-2.41-.99l-.57-5.25c4.07.71,3.91,4.31,8.27,7.26l3.44,2.32c.41.28,1.62.31,2.23.29.85,11.16,16.55,5.21,23.5,3.32.88,7.23,1.34,4.19,4.53,7.94-.05,1.5-.46,3.85.47,4.58,6.54,5.04,2.85,2.68,3.84,7.08.13.56,1.57.25,2.08,0l1.56-.77c.42-.21.78,1.51.58,1.98-1.16,2.81.5,4.33-1.12,10.4-.39.88-2.16,2.67-3.17,2.87-1.58.32-3.26-1.07-4.64-1.87-.79-.46-1.9.67-2.28,1.28-1.39,2.25-3.9.7-5.43.77-1.61.08-2.57.32-4.03-.78-1.15-.86-2.31.56-2.71,1.76l-1.42,4.27c-.29.88,1.99,2.04,3.2,2.11l2.18,4.45Z"/>
      <path class="cls-1" d="M306.38,317.83l-3.93-2.65c-1.72-3.91-4.92-7.99-9.35-8.71-5.85-.96-12.93.4-16.22-3.29-1.04-1.16-2.29-3.46-3.82-3.9-7.75-2.23-4.67-3.56-11.28-6.03-.39-.14-1.21-.95-.96-1.25,2.04-2.42,2.28.68,4.13-2.77,2.62,2.89,7.03,4.96,10.86,3.18,3.5-1.63,1.68-.12,7.83-1.1-.04-1.97,1.41-3.5,3.08-3.82,1.76-.33,3.46.66,4.77,2.38,1.92-7.08,7.32-2.23,9.43-8.4l2.47-.61c.71-2.1,2.76-3.62,4.97-4.47.23-.46-.09-1.45-.53-2.62l3.23-1.34c1.22-.51,2.88-1.53,3.9-2.13.68-.4,1.33-2.61,2.3-2.39,2.52.56,4.19,2.03,5.63,3.81l4.4-2.98c1.17-.79,2.37-.25,3.57.34l3.53,1.74,2.7,1.4-2.99,2.59c-.38.33-1.44,1.14-1.25,1.57l1.03,2.27c.34.76-1.53,2.07-1.74,2.86-.05.78.56,2.03.27,2.63-1.32,2.73-3.61,1.92-4.29,3.75,1.83,2.58,1.12,5.72-1.71,7.32l4.96,5.38c.79.85,1.09,3.35,1.98,4.18.45.42,1.96.8,2.58,1.05,2.44.99,1.83,4.09,2.03,6.03.13,1.26,1.06,4.53-1,4.7-3.64.31-7.66-1.21-11.08.05l-8.04,2.97-3.34-.85c-2.58,1.15-5.54.82-8.11-.91Z"/>
      <path class="cls-1" d="M510.06,220.63c-2.31-4.04-1.43-.68-4.87-4.57-1.71.94-3.64,1.16-5.33-1.01,3.71-1.64,3.18-4.95,3.65-7.99.13-.81,3.57-6.83-.22-10.09l2.95-3.48c.93-.88,2.8-1.75,4.07-2.45l.37-2.4c.31-2.02-.2-3.88-.58-5.93-.33-1.75,1.14-5.12-1.27-6.35-.93-.48-2.42-1.71-3.05-2.42-.35-.4-1.99-.39-2.09-.86s-.1-1.37-.18-1.97c-.18-1.35-.8-3.22,0-4.27.76-.99,1.82-2.34,1.68-3.23l-.83-5.56c.83-1.3,3.09-2.32,4.68-2.63,3.66-.72,6.53-2.36,9.99-3.86,2.21-.68,5.39.07,7.81-.28l8.75-1.28c2.92-.43,5.39-1.72,8.77-2.67,1.18,5.82-2.26,9.1-2.78,13.19l-.78,6.09-.78,5.14,1.7,1.8c-.22.59-.98,2.05-1.56,2.39s-1.79.22-2.88.28l-2.33,5.16c-.85,1.87-2.87,3.5-3.54,5.36l-1.39,3.84c2.63,5.68-2.56,5.85-2.65,9.66-.06,2.55-2.12,4-2.86,5.82-1.41,3.5-1.01,7.98-3.94,11.03-.29.31-1.01.87-1.27,1.18s-.06,1.27.1,1.63c1.55,3.55.25,6.85-3.21,8.41l-3.16,4.13c-3.14-5.76,2.04-3.05-2.98-11.83Z"/>
      <path class="cls-1" d="M567.06,172.65c-2.07-1.07.47-4.43-2.74-5.12s-3.98-4.74-9.56-7.3l.85,3.97c-.32.55-3.04,1.12-3.48.26l-2.67-5.12c-.98-1.88-1.98-9.68-3.79-12.69l4.54-3.89c-3.15-2.64-1.59-5.29-.16-8.4.55-.82,2.56-1.96,3.47-2.36l5.7-1.25c7.33-1.61,3.92-3.88,13.43-8.93l-.72-2.66c1.05-.78,1.96-1.53,3.19-2.75l3.06,1.34c3.89,5.56,8.16,3.43,14.81,4.66l1.24,2.9c.52,1.21,2.39,2.77,2.73,4l.92,3.33-8.33,13.92c-1.58,2.64-1.2,5.67.6,7.75,1.65,1.9,1.33,3.63.28,5.66l-3.3,6.4c-3.46.88-4.92-2.63-6.69-1.71-.74.38-1.93,3.19-.48,5.81-5.03,1.23-6.38-.47-10.28,2.12-.54.36-2.14.33-2.64.07Z"/>
      <path class="cls-1" d="M606.2,70.86l-4.14.14c-.52-.97-.68-3.69.1-4.72,2.21-.91,4.17-2.25,3.22-4.9-.48-1.35-1.19-3.26-1.8-4.48-.58-.49-2.07-1.28-2.39-1.91s.19-1.97.4-2.93c.37-1.7.01-4.26,1.33-5.37s2.13-1.82,1.14-3.39c-1.28-2.04-2.42-4.58-3.53-6.78-.5-.99-3.41-1.12-2.71-3.33l-6.12-1.91,4.48-8.9c2.07,2.39,4.62,2.84,7.19,3.2,4.08.56,7.42-.61,11.24-1.57,10.01-2.52,10.87-2.63,20.39-7.21l5.73-2.75c1.78,5.44,5.94,4.06,6.67,6.62.16.57-.63,1.73-.67,2.31-.54,7.25,1.58,4.48-2.22,11.16-1.43,2.5-.44,6.18-2.46,8.7-3.73,4.66.17,4.64-6.08,8.59-.56,1.26-3.85,9.46-6.25,6.89-.79-.85-2.21-1.82-3.41-1.88s-2.4.69-3.49,1.43l-4.36,2.97-2.65-.07-.66,3.51c-1.25,1.56-2.09,2.85-3,4.65-1.33.62-4.18,1.88-5.93,1.93Z"/>
      <path class="cls-1" d="M499.68,146.15c-1.96,2.28-3.52,1.58-5.32.67-1.2-.61-3.2-.2-3.64-2-.76-3.14-3.73-1.57-4.02-3.99-.23-1.92,2.49-2.05,5.76-3.92,1.7-.97-.87-4.9-.62-6s2.59-2.39,3.72-2.08c.59.16,1.08,1.81,1.7,2.12l6.09,3.04c4.13-1.1.53-9,.02-11.71-1.56-8.36-9.03-8.13-8.73-8.33l-2.52,1.65-.21-7.75c1.02.02,1.73-.02,2.08.15.44.21.82,1.29,1.11,1.95.26.59,1.69,1.06,2.29.81.75-.31,1.27-1.25,1.55-2.12l1.05-3.17c.61-1.85-2.12-2.9-3.63-3.26l.87-5.05,2.9-1.28c.57-1.02,1.39-2.01,2.28-2.02,2.4-.02,1.3,3.03,7.87,4.99l2.01,4.38-1.67,1.14-.05,4.35c2.13.53,3.41.42,6.13.03l-.18,3.28c-.27,4.98,3.92-1.52,7.25,6.49.96,2.31,2.81,5.4,4.65,7.23,3.12,3.12,13.54,9.06,14.18,11.06,1,3.12,1.19,6.26,1.6,9.51-5.3,2.11-13.01,3.89-18.27,4.04l-7.28.21c-3.8,2.05-8,3.61-12.02,4.51-.54.12-1.47,1.23-1.88,1.03-1.2-.59-3.94-2.61-4.5-4.51-.76-2.6,2.75-4.43,1.27-5.87-.34-.34-1.52.06-1.84.43Z"/>
      <path class="cls-1" d="M447.76,115.02l-4.33,1.26c-6.29,3.26-4.67,9.62-8.39,12.39-1.15.86-3.99-.68-3.24-2.13.83-1.61,2.19-3.81.96-5.36-1.85-2.33-5.38-2.04-7.6-3.72-1.58-1.19-3.35-3.87-5.9-2.97-3.22,6.54-7.41,1.31-15.51,6.7-4.36-.68-7.1,1.85-9.67-.46s-.01-4.21-1.67-8.16c1.88-12.95,3.73-5.45,4.65-12.34-2.55-.21-5.18-.18-8.15.1l-.11-4.05-1.97-1.83c-5.59-6.02-1.36-3.25-6.44-8.82-.42-.88-1.14-2.63-1.53-3.64-1.83-4.7-.33-.77-3.06-5-1.34-2.07,6.57,1.02,10.02.89l5.44-.21c1.43-.05,7.16,2.78,14.25-1.5,3.12,3.2,1.11,6.67,3.64,12.31l2.06,2.11c.63.64,1.78,1.09,2.83,1,.79-.07,1.64-1.28,2.12-2.26,3.6.76,5.33,3.96,7.3,6.6.95,1.27,2.24,2,2.4,4.01.6,7.72,2.33,3.78,5.3,9.54l1.6-1.09c9.24.4,6.76-1.85,9.99-2.19,1.27-.13,2.03-.5,3.18-1.21,4.34,4.11,3.41,2.68,8.73,4.14.56.15-.46,2.12-1.09,2.05-2.33-.27-5.06.83-5.8,3.85Z"/>
      <path class="cls-1" d="M270.2,226.44l-4.38-4.67-4.01-.53.53-3.22c.31-1.93,2.41-2.64,4.29-3.45.88-1.16,1.02-3.7,1.22-5.49l1.11-2.34c-1.34-2.97-.03-5.84-1.49-10.63l-2.83-3.33c-.36-.43-.38-1.99-.02-2.41,1.49-1.78,3.2,1.92,8.8.11,1.43-.46,3.69-1.71,5.01-1.68,3.17.07,4.55-1.19,6.45-3.35.86-.98,2.21-1.86,2.64-3.3.64-2.15.68-.7,6.04-.02,1.5.19,3.18,1,4.14-.75,2.27-4.17-2.58-5.84-3.23-7.98,2.08-2.27,3.88-6.85,1.21-9.06-1.18-.97-2.94-.9-3.75-2.67-.88-1.94-3.99-.88-5.4-.01l-3.28.53c-1.29.63-3.86,1.17-4.11-.45-.14-.89,1.24-3.01,2.01-2.75,1.14.4,2.5.81,3.53.87.88.05,2.34-1.11,2.35-2.26,0-.95-.82-3.35-.11-4.01l4.97-4.57c1.9,1.64,1.94,4.35,1.15,6.66l-.6,1.74c-.13.39.68,1.04,1.06,1.28l3.23,1.98c2.78,1.47,7.09,1.27,8.91,4.1l3.34,5.19c2.3,3.57,3.3,8.81-1.22,11.56-1.11.68-2.23,3.17-2.82,4.42l-1.54,3.27c.74.75,2.68,1.1,4.1.65,1.66-.52,1.68.45,4.72,2.43.32.21-.25,1.38-.59,1.53l-2.43,1.09.88,4.23c-.94,2.47-2.59,5.13-3.19,7.58s-.87,3.1-2.5,4.53c-1.31,1.15-1.98,1.75-4.14,1.98-1.26.14-3.31,3.49-7.24,4.79-6.73.17-6.21-6.86-9.03-5.83l-2.53.93c.32.93.61,3.01.41,3.85-3.9-.9-4.42,2.81-8.24-1.9-.82.16-3.06.81-3.52,1.67-.61,1.15-.78,3.76-.21,4.77.4.7,1.66,1.42,1.62,2.1-.06.96-.74,2.84-1.3,2.82Z"/>
      <path class="cls-1" d="M534.16,223.22l1.47,3.83c-1.35,1.74-1.41,3.26-.67,5.44l-2.79,4.82c-3.78-2.27-8.3-.39-11.62.62.35-.11-6.33.72-6.89.36-1.32-.85-.4-4.42,1.34-6.8,4.27-5.84,7.14-2.39,5.48-12.29,3.45-3.25,3.5-8.31,5.14-12.39.86-2.13,2.69-4.77,2.99-7.18.11-.89,3-4.6,4.36-4.69l-1.61-4.07c-.72-1.74,5.06-10.83,6.69-10.16l-.33-3.37c2.13.13,3.33-.08,4.12-1.69l.96-1.99c.25-.52-1.14-1.61-1.28-2.24-.86-3.8,1.32-5.89.82-10.81l3.64-9.39,2.54,8.68c.56,1.9,2.38,4.06,3.2,6.14l4.66-.4,1.96,6.39c.4,1.32.47,2.41,1.11,3.76.39.82.06,2.39-.08,3.23l1.26,6.13.42,2.15c-1.66-.09-3.87-.61-4.69-1.92l-2.03-3.26-3.69,1.95c-1.34,3.02-1.81,5.88-.99,8.76l1.65-.51c.36-.11,1.15.97,1.1,1.35l-.47,3.95c-.05.41.51,1.68.55,1.76-2.27,1.22-4.09,2.27-6.21,3.56-.75.45-2.83,1.14-2.58,2.36.29,1.37,1.3,2.75,2.17,3.97-3.45,4.89-.55,8.98-1.98,10.36-.62.6-1.86.84-2.37.42s-1.11-.88-1.3-.69l-1.04,1c-.25.24.58.78,1.04,1.31-2.05,2.94-2.87-.16-6.08,1.56Z"/>
      <path class="cls-1" d="M571.21,120.6c.75,1.43-4.55,2.68-6.54,5.87-1.41,2.26-3.28,2.69-5.77,3.25l-6.48,1.46-3.3,2.26-.84,2.32c-.88,2.45-1.41,4.8.04,7.18l-3.01,2.27-1.7-8.71c-.47-2.41-10.48-7.62-14.44-11.52-6.06-5.97-3.73-12.6-11.62-11.68.16-2.32.16-3.93-.15-5.73l-4.93.67c-.64.09-1.36-1.92-1.01-2.5.32-.54.82-.9,1.98-1.79l-2.21-6.02c-.18-.49.47-1.65.84-1.92,1.66-1.2,2.11,5,3.8,4.71,1.44-.56,3.28-1.06,4.42-1.67,2.11-1.12,3.32-4.04,5.82-4.95l3.38-1.23c1.97-.72,2.74,1.95,3.25,3.15,1,2.37,1.89,4.4,2.6,6.83,1,3.36,2.72,1.68,4.69,3.04.52.36.49,1.9.67,2.68.41,1.81,3.21,1.85,4.59.88,5.65-3.96,5.94,2.19,13.33-.92.84-.35,2.57-1.11,3.44-1.19l7.19-.63c1.56-.14,3.31,2.19,4.53,3.01.7.47,2.66-.32,3.48-.3,2.38.04,3.92,3.69,5.58,4.53,1.92.97,3.22,1.44,4.78,2.96l4.26,4.16c-13.37-1.1-6.56.66-16.37-6.41-.61-.43-1.76,1.25-2.13,2.08l-3.16,1.98.97,1.85Z"/>
      <path class="cls-1" d="M549.25,247.41c-3.45.04-7.85-1.71-10.64-3.49-1.71-1.09-2.55-4.01-3.99-5.33-.43-.39-1.2-.83-1.16-1.19s.43-1.2.73-1.54c1.57-1.76,1.58-4.1,1.79-6.31.19-2.04,1.38-3.67-.66-5.95,2.84.54,3.96.5,5.55-.58l5.36-3.67c-1.73-3.46-1.58-7.03.97-9.92l-1.71-2.55c-.26-.38-.54-1.35-.43-1.79.14-.53,1.66-.87,2.08-1.22,5.09-4.28,7.54-2.4,7.53-3.81-.03-2.16-2.12-1.21-.99-3.96,1.02-2.5-.67-4.35-2.93-5.42-1.4-1.39.61-5.19,1.56-6.48.34-.46,1.96-.44,2.25.07,3.22,5.75,2.65,1.41,7.86,5.53l1.4-2.21c5.57,1.97,6.49,6.56,7.72,11.05.16.59-.68,1.42-1.17,2.02l1.5,3.05c-1.27.53-2.88.89-2.73,1.53l.4,1.71c.09.36-.99.95-1.11,1.32-.64,1.92-2.17,3.88-3.83,5.2l-1.02,4.37c-1.22,5.21,1.41,18.67,1.03,25.45l-.42,7.51c-2.17-.3-5.08-1.08-6.7-1.54-.53-.15-1.9.33-2.38.31-1.29-.05-.46-3.21-3.29-3.74-.65-.12-1.88,1.21-2.52,1.58Z"/>
      <path class="cls-1" d="M589.81,357.29c-.64,1.66-2.9,4.15-4.59,3.01-1.16-.78-2.34-1.6-3.63-2.28l1.98-4.19c-.3-1.35-.34-2.07-.3-3.04l.1-2.17c.05-1.03,2.99-1.21,2.61-1.99-.98-2.03-.28.77-3.3-2.98-.8-1-3.16-.48-4.32-.81-4.44-1.26-7.77-1.61-12.44.29l-4.56-2.68c-2.15-1.26-2.5-.34-5.35-.95-.34-.07-.48-1.46-.17-1.59,1.54-.62,4.16-.71,6.22-.04,1.28-.27,1.36-3.23.36-4.44,1.44-.47,2.25-1.18,2.87-2.5.38-.82-.04-2.67-1.17-3.39-1.61-1.02-4.09-1.04-6.35-1.42l-2.37-2.75c1.67-.85,2.97-.68,4.43-.02l6.68,3.05c1.31-2.9-1.98-3.56-2.83-5.34-1.66-3.47,7.92-3.71,7.84-3.75,1.58.77,3.24,1.98,4.79,2.96,1.64,1.04,4.1-.08,5.93-.28,1.38-.15,1.94-.26,3.29-1.47l3.93,3.74,3.07.7c1.7-3.63,3.15.82,5.01-4.72l4.41,2.05c1.44.67,4.13-.24,5.85-.37,2.58,2,2,7.17-.75,8.8-1.51.9-3.1,1.37-3.59,2.79-.83,2.41.84,7.14,2.43,8.26,2.79,1.96,4.3-1.4,5.31-1.5,2.01-.19,2.11,3.93,5.36,6.76-2.06,2.54-3.33-1.66-5.21-2.47-1.64-.7-2.99,2.17-4.68,2.13-3.09-.07-5.47,2.85-4.84,6.05.11.57-1.38,1.44-1.87,1.64l-.35,1.4c-.08.31-1.05.46-1.44.41-2.07-.29-3.34,1.01-4.93,2.01-.72.45-2.86-.45-3.44,1.07Z"/>
      <path class="cls-1" d="M635.77,67.96l-2.03-3.27c-.81-.85-2.24-2.13-1.2-3.06,1.24-1.09.96-2.04,1.42-3.21.79-2.03,1.96-4.31,3.09-6.29.67-1.18,3.46-1.94,3.78-3.52.38-1.84.99-3.36,2-4.84,1.91-2.78,1.37-6.41,2.66-9.48.34-.81,2.86-2.19,2.32-7.56-.22-2.18,1.25-4.72.25-7.11-2.54-3.06-5.74-1.43-6.06-6.53l4.39-3.84,8.4-6.93c.89-.73,2.39-1.3,3.46-1.73,5.53-2.22,3.86,2.2,13.62,5.34l6.9,2.22-8.4,3.34c-2.58,1.03-5.06,6.2-5.88,9.19l-1.03,3.78c-.56,2.04-.69,4.03.28,5.97-2.83,4.54-6.08,9.34-8.15,14.34l-4.25,10.25c-.5,1.2-1.33,3.09-2,4.1l-3.69,5.58-5.25,5.67c-1.45-1.06-2.56-1.72-4.63-2.42Z"/>
      <path class="cls-1" d="M196.22,98.65c-.94.85-1.65,1.55-2.16,1.75s-1.23-1.29-1.67-1.65l-2.48-2.06-2.5.6-4.26-2.14-1.44-2.94c-.66-1.36-.24-3.59-.02-5.55l-4.87-2.43c-.18-2.17.71-4.31,1.39-6.42.62-1.93.8-3.45,2.51-4.57l1.75-2.86c-1.94-1.33-3.25-4.88-2.09-6.71,2.52-.42,4.22-1.57,6.15-3.23.83-.72,2.12,1,2.19,1.96.05.7,1.9,1.66,2.26,1.39.6-1.4,7.69-3.75,9.09-3.52,2.07-2.11,5.73-1.33,7.47,1.1l5.19.45-3.52,3.44c.36.45,1.37,2.48.76,3.01-1.53,1.32-4.75,2.54-5.48,4.3s-.96,5.69-5.13,7.6c-1.29.59-2.06,2.61-.92,3.45l1.69,1.25c.39.29-.07,1.55-.07,2.24,0,1.22,2.59,2.06,3.6,1.59l2.48-1.15-.47,4.98c.2.62,1.22,1.55,2.03,2.28-.95,1.14-2.88,1-4.25.08l-3.37,1.96-1.16,3.37-2.67-1.56Z"/>
      <path class="cls-1" d="M137.48,88.9c-3.66-.81-2.19-1.89-6.76-6.07l-7.12-6.52c1.08-2.02.89-3.38-.5-4.65l-2.79-2.56c-.77-.7-.74-3.29-.36-4.26l4.16-2.57c1.71-1.06,3.89-1.89,5.37-3.11,4.74-3.88,2.46.54,9.36-5.48,2.22.95,4.55.86,6.95,1.01,2.65.16,5.16,1.63,7.92.93.68-1.54,1.48-3.51,2.45-4.91,1.37-1.57,5.03-1.36,5.88.48.47,1.02,1.3,3.14,2.92,2.38,1.11-.52,4.13-1.22,4.47.75.47,2.74-2.44,5.73-4.97,6.48l-1.19,3.46c-1.48-1.5-4.78.32-4.5,2.08.21,1.34,1.1,2.53,0,3.88-3.35,4.09-2.21-2.31-7.44.18-.29.14-.7,1.54-.94,1.33l-1.19-1.02c-.28-.25-.99-.73-1.31-.92.46.28-8.52,2.42-10.55,9.61-.65,2.32-.21,4.5,1.46,6.4l-1.31,3.12Z"/>
      <path class="cls-1" d="M144.21,53.3c-1.1-.2-3.2-.09-3.82-.79-2.32-6.67-.17-8.01-4.79-13.12l3.25-.99c1.05-4.79,4.53-3.18,2.71-8.56.83-1.83,3.46-3.75,5.77-4.07,3.13-.43,4.67,4.44,8.33,1.16l.67,3.91c4.91,3.2,17.26-.87,19.95-6.18.54-.71,3.09-.89,3.84-.32.6.46-.15,2.34-.31,3.11-.91,4.52-3.63,2.67-3.18,3.8l.51,1.29c.35.9,1.15,2.39,1.02,3.2-.45,2.87-5.26,3.65-2.55,7.25l-1.74,5.47-9.83.71c-1.67.12-2.44.2-4.12-.49-2.46-1.01-6.21,1.83-6.93,3.88-.1.29.06,1.5.08,1.82.02.4-1.2.34-1.64.26l-7.23-1.33Z"/>
      <path class="cls-1" d="M582.25,179.63c-.46,4.11-.62,8.32.48,12.32-1.39,1.21-2.43,2.56-3.05,4.3l-2.84,1.9c-.33,2.12-1.48,4.25-4.04,4.47-1.44.13.3-4.25-.23-6.15l-1.63-3.74c-.41-.95-1.71-2.43-2.49-3.53-.68-.96-2.88-2.29-4-2.65-.34-.11-1.4.15-1.76.15-.45,0-1.04-.99-1.09-1.47-.76-7.08-.16-7.07-2.33-13.95l-2.64-8.39c2.36.95,3.81,3.48,5.28,4.81.52.48,2.65.72,2.75,1.43l.54,3.75c.07.49-.11,1.68.27,1.63.33-.05,4.99-.99,5.48-1.25.9-.48,2.51-1.36,3.52-1.06.77.23,1.46,1.11,2.4,1.92l.93-2c.22-.46,1.54-.35,2.59-.37,1.74-.04-.72-3,1-5.8l5.39,1.98.13,4.61c-4.12,5.58-4.09,1.95-4.67,7.11Z"/>
      <path class="cls-1" d="M139.75,108c-.32-.2-1.33-.58-1.54-.35l-.96,1.09-3.84,4.36c-.33.37-1.73-.51-1.75-1-.07-3.28.76-.26,1.55-5.09l.99-6.02-4.56-.3c2.21-2.91,5.65-4.62,9.27-3.71l1.36-1.48,2.43,3.17-.79,3.65c3.2,1.84,5.79-2.77,7.43.09,1.43,2.49-2.88,1.78-.79,5.58-1.04,1.02-1.82,1.93-2.99,3.49l-5.8-3.5Z"/>
      <path class="cls-1" d="M496.34,159.69l-3.94,2.67-2.08-1.37c-.45-.3-1.42.55-2.19.99-3.84-3.53,3-5.6-2.38-10.37,2.13-1.31,3.47-2.43,4.93-4.19,1.26-.56,3.78.45,5.06,1.45l4-.58c-1.94,3.33.44,5.97,2.62,7.51l-6.01,3.89Z"/>
      <path class="cls-1" d="M296.1,151.05c-1.18-2.08-2.8-4.97-4.27-7.19-.44-.66-2.13-1.23-2.27-1.96-.19-.99-.27-2.86.55-3.17,1.86-.71,2.81-1.26,4.22-2.55l2.07,1.22c.6.35,1.46-1.05,2.24-2.09.83.14,3.91,3.84,4.18,4.73.24.79-.82,2.37-1.2,3.21-.8,1.79-1.16,3.42-3.07,4.27-.91,1-1.34,1.63-2.45,3.55Z"/>
      <path class="cls-1" d="M159.11,133.81c.08.99.56,2.27.1,2.77-.69.74-1.61.37-2.63.25-4.1-.51-7.76-3.04-9.09-6.89,4.83-.01,2.8-1.9,9.28-1.01,2.5.34,2.19,2.89,2.34,4.88Z"/>
      <path class="cls-1" d="M284.55,157.28l-3.35-.76c-.41-.09-1.44-.52-1.53-.92-.11-.5.3-1.42.69-2l7.05-10.54-3.02-2.22c1.15-1.05,3.06-1.62,3.73-.75.45.59.5,2.51.58,3.29l3.03,1.66c-3.52,5.42-9.42,5.86-7.18,12.25Z"/>
      <path class="cls-1" d="M524.12,363.03c2.51,4.67,3.95,2.29,3.53,4.57-.07.37-1.34.36-1.63.05l-3.8-3.99-3.74-3.65c-1.07-1.04-1.75-2.64-1.52-4.19.21-1.38,1.72-2.44,3.3-2.89.31,7.16,1.62,5.93,3.86,10.1Z"/>
      <path class="cls-1" d="M513.27,349.04c-.9-.99-.89-2.26-.46-3.62l-2.89-.85,1.1-3.98c.15-.55.96-1.59,1.47-1.52,1.91.23.93,3.36,4.57,7.41l-3.79,2.56Z"/>
      <path class="cls-1" d="M413.49,268.92c-.98,2.1-2.18,2.81-4.66,2.67l-.05-4.57,4.7,1.9Z"/>
      <path class="cls-1" d="M515.41,360.52c-.13.41-2.25.39-2.41-.25-.29-1.14-.27-3.15.22-4.74,1.06,1.66,1.44,2.88,2.19,5Z"/>
      <path class="cls-1" d="M520.63,352.05c-2.35-.53-3.18-2.28-2.58-4.32,1.28.98,2.1,2.2,2.58,4.32Z"/>
      <path class="cls-1" d="M500.92,315.7l-1.39-2.4c.58-.01,1.54.16,1.92.4.46.29-.08,1.71-.54,2Z"/>
      <path class="cls-1" d="M324.95,112.12l1.56-2.19c.37,1.02-.09,1.96-1.56,2.19Z"/>
      <path class="cls-1" d="M495.72,105.17c-.09-.13.91-.33,1.01-.17s.23.49.26.67-.63.47-.73.31l-.55-.81Z"/>
      <path class="cls-1" d="M439.88,376.74c-.78.21-1.43-.47-1.26-1.4l1.26,1.4Z"/>
      <circle class="cls-1" cx="508.91" cy="332.22" r=".47"/>
      <circle class="cls-1" cx="204.54" cy="131.13" r=".3"/>
      <circle class="cls-1" cx="12.83" cy="91.45" r=".3"/>
      <path class="cls-1" d="M425.81,213.13c-1.35,2.68-2.8.21-5.02,3.5-.37.55-2.23.59-2.54-.01l.68-5.68c-.5-.81-1.06-1.74-1.36-2.33-.22-.42,2.5-4.87,3.56-3.57s1.74,2.72,2.86,3.38c.97.57,1.96,1.14,2.25,1.76.37.76.02,2.06-.43,2.96ZM424.1,213.22c.6-.32,1.54-1.87,1.28-2.48s-1.55-1.2-2.46-1.49l-2.65-3.37-1.48,3.13,1.34,1.77-.78,4.95,4.76-2.51Z"/>
      <path class="cls-1" d="M353.4,164.63c-2.08,4.79-5.85-.59-11.14,6.17-1.07,1.36-2.32,1.66-4.19,1.45-1.27-.14-2.43-1.31-3.44-2.73-1.95-2.75-.89-6.98-.31-7.86.35-.53,1.69-.69,2.5-.85l3.12-.61c-1.75-1.72-1.6-2.74-.86-4.74.52-1.41,1.24-4.32,3.5-3.89,1.25.24,3.6.76,4.78,1.07,1.97,3.06,6.1,2.14,6.47,5.83.17,1.71-.73,2.6-2.41,3.66l1.97,2.49ZM345.76,165.13l3.26-.93c-.24-1.32-.51-2.59-.22-3.3.26-.64,1.35-1.23,2.42-2.03-.77-3.29-3.78.17-5.18-3.69-.53-.59-2.66-1.04-3.52-.89-.76.29-1.37,2.6-.9,3.29.66.95,1.64,2.48,2.25,3.62-.29.59-1.35,1.73-1.85,1.95h-5.36c-1.49,2.49-.43,6.03,2.6,6.65.74.15,1.79-1.69,2.39-2.14.99-.74,2.7-1.82,4.09-2.54Z"/>
      <path class="cls-1" d="M353.55,204c-2.49-1.45-4.36-4.44-2.92-6.82.66-1.09,2.82-.52,3.58.05,1.91,1.43,2.74,4.15,1.7,6.02-.28.5-1.84,1.06-2.37.75Z"/>
      <path class="cls-1" d="M161.63,102.85c-1.67-1.28.32-4.26-.66-4.08l-1.33.24-3.17-3.64-4.36.39c-.79.07-2.17.52-2.6-.49-.79-1.86-.8-3.98-1.42-5.75-.48-1.35-2.06-2.6-2-4.23,3.14.17,5.84-.54,6.61-3.52l3.52.38,4.8-3.03c1.16-.74,2.04-3.39,2.96-4.31l4.89-1.77c1.33.61,3.27,2.14,4.49,3.47-.9,1.65-2.91,2.32-4.48,3.25,1.09,1.44,2.45,3.16.88,4.62l-4.06.64c-3.75,6.13.08,5.98.1,8.14,0,1.11.34,2.69.65,3.63-3.62,2.28.95,3.72-4.81,6.1ZM162.91,100.82c1.36-4.37,2.79-8-.12-10.41l1.41-5.62c.41-1.65,5.7-.36,5.2-2.29-.58-2.25-3.52-2.26-2.59-3.82,1.8-.48,3.39-.86,4.88-1.67-.38-1.08-2.04-2.72-2.96-2.49l-3.84.96-2.89,4.7c-2.19.29-5.62,3.74-6.04,3.51l-1.92-1.04c-1.1,2.74-3.68,3.48-6.42,3.98,3.94,4.15.75,3.5,2.78,7.98l6.84-.24c1.11,2.03,2.73,3.05,4.66,3.45l1,3Z"/>
      <path class="cls-1" d="M200.7,109.66l.15-1.85.85-.2c.2-.05.43.43.53.63.12.25-.1.44-1.53,1.42Z"/>
      <path class="cls-1" d="M153.61,177.53c-.68.28-2.64.06-3.08-.43-.86-.93-1.77-5.22-.54-6.53l3.03-.15c3.01-2.26,7.56,2.58,6.98,4.41l-6.4,2.7ZM155.02,174.28c.25-.13.78-.88.92-1.11.02-.03.07-1.7-3.81.44-.43.24.65,1.82,1.09,1.59l1.8-.92Z"/>
      <path class="cls-1" d="M424.1,213.22l-4.76,2.51.78-4.95-1.34-1.77,1.48-3.13,2.65,3.37c.91.3,2.2.88,2.46,1.49s-.68,2.17-1.28,2.48Z"/>
      <path class="cls-1" d="M345.76,165.13c-1.39.72-3.09,1.81-4.09,2.54-.6.45-1.65,2.29-2.39,2.14-3.04-.62-4.1-4.16-2.6-6.66h5.36c.5-.21,1.56-1.35,1.85-1.94-.61-1.14-1.6-2.67-2.25-3.62-.47-.69.14-3,.9-3.29.86-.16,2.99.3,3.52.89,1.4,3.85,4.4.4,5.18,3.69-1.07.8-2.16,1.39-2.42,2.03-.29.71-.02,1.98.22,3.3l-3.26.93Z"/>
      <path class="cls-1" d="M162.91,100.82l-1-3c-1.93-.4-3.55-1.41-4.66-3.45l-6.84.24c-2.03-4.49,1.16-3.83-2.78-7.98,2.75-.51,5.33-1.24,6.42-3.98l1.92,1.04c.43.23,3.85-3.21,6.04-3.51l2.89-4.7,3.84-.96c.92-.23,2.57,1.41,2.96,2.49-1.49.81-3.08,1.19-4.88,1.67-.93,1.56,2.02,1.58,2.59,3.82.5,1.93-4.79.65-5.2,2.29l-1.41,5.62c2.92,2.41,1.48,6.04.12,10.41Z"/>
      <path class="cls-1" d="M155.02,174.28l-1.8.92c-.44.23-1.53-1.35-1.09-1.59,3.88-2.14,3.83-.47,3.81-.44-.14.23-.66.98-.92,1.11Z"/>
    </g>
  </g>
</svg>