<?xml version="1.0" encoding="UTF-8"?>
<svg id="Layer_2" data-name="Layer 2" xmlns="http://www.w3.org/2000/svg" viewBox="0 0 101.24 100.84">
  <defs>
    <style>
      .cls-1 {
        fill: none;
        stroke: #f5f9fd;
        stroke-linecap: round;
        stroke-linejoin: round;
        stroke-width: 3.25px;
      }
    </style>
  </defs>
      <path class="cls-1" d="M50.62,14.83l18.77,15.42v21.62l30.23,9.95v37.4H1.62v-37.4l30.23-9.95v-21.62l18.77-15.42ZM50.62,14.83l-.08-13.2M44.75,6.07h11.57M69.39,44.89l-18.85-5.9-18.69,5.9M69.39,51.86v47.35M31.85,51.86v47.35M37.85,76.78v22.43h12.77v-23.67h-11.34c-.79,0-1.43.55-1.43,1.24ZM50.62,99.21h12.77v-22.43c0-.68-.64-1.24-1.43-1.24h-11.34v23.67Z"/>
      <circle class="cls-1" cx="50.54" cy="28.86" r="4.11"/>
      <path class="cls-1" d="M23.23,71.25v14.77h-12.75v-14.77M16.85,65.06c-.8.19-2.14.64-3.47,1.72-1.98,1.62-2.68,3.66-2.91,4.47M23.23,71.25c-.23-.81-.93-2.85-2.91-4.47-1.32-1.08-2.67-1.53-3.47-1.72"/>
      <path class="cls-1" d="M57,54.51v6.75h-12.75v-6.75M50.62,48.32c-.8.19-2.14.64-3.47,1.72-1.98,1.62-2.68,3.66-2.91,4.47M57,54.51c-.23-.81-.93-2.85-2.91-4.47-1.32-1.08-2.67-1.53-3.47-1.72"/>
      <path class="cls-1" d="M90.76,71.25v14.77h-12.75v-14.77M84.38,65.06c-.8.19-2.14.64-3.47,1.72-1.98,1.62-2.68,3.66-2.91,4.47M90.76,71.25c-.23-.81-.93-2.85-2.91-4.47-1.32-1.08-2.67-1.53-3.47-1.72"/>
</svg>