<?xml version="1.0" encoding="UTF-8"?>
<svg id="Layer_2" data-name="Layer 2" xmlns="http://www.w3.org/2000/svg" viewBox="0 0 110.01 101.7">
  <defs>
    <style>
      .cls-1 {
        fill: none;
        stroke: #f5f9fd;
        stroke-linecap: round;
        stroke-linejoin: round;
        stroke-width: 3.3px;
      }
    </style>
  </defs>
  <g id="check">
    <path id="fontana" class="cls-1" d="M94.82,100.05H15.19L1.94,83.68c-.9-1.11.36-2.44,2.32-2.44h101.48c1.96,0,3.22,1.33,2.32,2.44l-13.24,16.37ZM66.47,66.58h-22.94v14.66h22.94v-14.66ZM94.82,53.3H15.19c0,7.33,5.95,13.28,13.28,13.28h53.08c7.33,0,13.28-5.95,13.28-13.28h0ZM55.01,52.38v-16.08M94.82,14.37c0-7.03-8.91-12.73-19.91-12.73s-19.91,5.7-19.91,12.73M55.01,14.37c0-7.03-8.91-12.73-19.91-12.73-11,0-19.91,5.7-19.91,12.73M55.01,40.38V14.37M81.61,36.31c0-4.7-5.96-8.51-13.3-8.51s-13.3,3.81-13.3,8.51M55.01,36.31c0-4.7-5.96-8.51-13.3-8.51s-13.3,3.81-13.3,8.51"/>
  </g>
</svg>