<?xml version="1.0" encoding="UTF-8"?>
<svg id="Layer_2" data-name="Layer 2" xmlns="http://www.w3.org/2000/svg" viewBox="0 0 158.45 158.45">
  <defs>
    <style>
      .cls-1 {
        stroke-width: 6.18px;
      }

      .cls-1, .cls-2 {
        fill: none;
        stroke: #f5f9fd;
        stroke-linecap: round;
        stroke-linejoin: round;
      }

      .cls-2 {
        stroke-width: 3.25px;
      }
    </style>
  </defs>
  <g id="check">
    <g>
      <g id="chiesa">
        <path class="cls-2" d="M79.23,38.59l18.77,15.42v21.62l30.23,9.95v37.4H30.23v-37.4l30.23-9.95v-21.62l18.77-15.42ZM79.23,38.59l-.08-13.2M73.36,29.84h11.57M97.99,68.66l-18.85-5.9-18.69,5.9M97.99,75.63v47.35M60.46,75.63v47.35M66.45,100.54v22.43h12.77v-23.67h-11.34c-.79,0-1.43.55-1.43,1.24ZM79.23,122.98h12.77v-22.43c0-.68-.64-1.24-1.43-1.24h-11.34v23.67Z"/>
        <circle class="cls-2" cx="79.15" cy="52.63" r="4.11"/>
        <path class="cls-2" d="M51.84,95.01v14.77h-12.75v-14.77M45.46,88.82c-.8.19-2.14.64-3.47,1.72-1.98,1.62-2.68,3.66-2.91,4.47M51.84,95.01c-.23-.81-.93-2.85-2.91-4.47-1.32-1.08-2.67-1.53-3.47-1.72"/>
        <path class="cls-2" d="M85.6,78.27v6.75h-12.75v-6.75M79.23,72.08c-.8.19-2.14.64-3.47,1.72-1.98,1.62-2.68,3.66-2.91,4.47M85.6,78.27c-.23-.81-.93-2.85-2.91-4.47-1.32-1.08-2.67-1.53-3.47-1.72"/>
        <path class="cls-2" d="M119.37,95.01v14.77h-12.75v-14.77M112.99,88.82c-.8.19-2.14.64-3.47,1.72-1.98,1.62-2.68,3.66-2.91,4.47M119.37,95.01c-.23-.81-.93-2.85-2.91-4.47-1.32-1.08-2.67-1.53-3.47-1.72"/>
      </g>
      <path id="miss" class="cls-1" d="M155.36,79.23c0,42.05-34.09,76.14-76.14,76.14S3.09,121.27,3.09,79.23,37.18,3.09,79.23,3.09s76.14,34.09,76.14,76.14ZM133.06,133.06L25.39,25.39"/>
    </g>
  </g>
</svg>