<?xml version="1.0" encoding="UTF-8"?>
<svg id="Layer_2" data-name="Layer 2" xmlns="http://www.w3.org/2000/svg" viewBox="0 0 158.45 158.45">
  <defs>
    <style>
      .cls-1 {
        stroke-width: 6.18px;
      }

      .cls-1, .cls-2 {
        fill: none;
        stroke: #f5f9fd;
        stroke-linecap: round;
        stroke-linejoin: round;
      }

      .cls-2 {
        stroke-width: 3.3px;
      }
    </style>
  </defs>
  <g id="check">
    <g>
      <path id="fontana" class="cls-2" d="M119.04,123.79H39.41l-13.24-16.37c-.9-1.11.36-2.44,2.32-2.44h101.48c1.96,0,3.22,1.33,2.32,2.44l-13.24,16.37ZM90.69,90.32h-22.94v14.66h22.94v-14.66ZM119.04,77.04H39.41c0,7.33,5.95,13.28,13.28,13.28h53.08c7.33,0,13.28-5.95,13.28-13.28h0ZM79.23,76.12v-16.08M119.04,38.11c0-7.03-8.91-12.73-19.91-12.73s-19.91,5.7-19.91,12.73M79.23,38.11c0-7.03-8.91-12.73-19.91-12.73-11,0-19.91,5.7-19.91,12.73M79.23,64.12v-26M105.83,60.05c0-4.7-5.96-8.51-13.3-8.51s-13.3,3.81-13.3,8.51M79.23,60.05c0-4.7-5.96-8.51-13.3-8.51s-13.3,3.81-13.3,8.51"/>
      <path id="miss" class="cls-1" d="M155.36,79.23c0,42.05-34.09,76.14-76.14,76.14S3.09,121.27,3.09,79.23,37.18,3.09,79.23,3.09s76.14,34.09,76.14,76.14ZM133.06,133.06L25.39,25.39"/>
    </g>
  </g>
</svg>