<svg width="208" height="36" viewBox="0 0 208 36" fill="none" xmlns="http://www.w3.org/2000/svg">
<g clip-path="url(#clip0_179_947)">
<path d="M18.5 0C8.28282 0 0 8.05896 0 18C0 26.4413 5.97328 33.5246 14.0311 35.4701L14.0311 23.5008L10.2164 23.5008V18L14.0311 18L14.0311 15.6298C14.0311 9.50328 16.8809 6.6636 23.0628 6.6636C24.235 6.6636 26.2574 6.88752 27.0847 7.11072L27.0847 12.0967C26.6481 12.0521 25.8896 12.0298 24.9476 12.0298C21.9144 12.0298 20.7422 13.1479 20.7422 16.0546V18H26.785L25.7468 23.5008H20.7422L20.7422 35.8682C29.9027 34.7918 37.0007 27.203 37.0007 18C37 8.05896 28.7172 0 18.5 0Z" fill="white"/>
</g>
<g clip-path="url(#clip1_179_947)">
<path d="M75.5 3.24141C80.443 3.24141 81.0283 3.2625 82.9723 3.34687C84.7789 3.42422 85.7545 3.71953 86.4049 3.96562C87.2648 4.28906 87.8863 4.68281 88.5295 5.30859C89.1799 5.94141 89.5773 6.53906 89.9098 7.37578C90.1627 8.00859 90.4662 8.96484 90.5457 10.7156C90.6324 12.6141 90.6541 13.1836 90.6541 17.9859C90.6541 22.7953 90.6324 23.3648 90.5457 25.2563C90.4662 27.0141 90.1627 27.9633 89.9098 28.5961C89.5773 29.4328 89.1727 30.0375 88.5295 30.6633C87.8791 31.2961 87.2648 31.6828 86.4049 32.0062C85.7545 32.2523 84.7717 32.5477 82.9723 32.625C81.0211 32.7094 80.4357 32.7305 75.5 32.7305C70.557 32.7305 69.9717 32.7094 68.0277 32.625C66.2211 32.5477 65.2455 32.2523 64.5951 32.0062C63.7352 31.6828 63.1137 31.2891 62.4705 30.6633C61.8201 30.0305 61.4227 29.4328 61.0902 28.5961C60.8373 27.9633 60.5338 27.007 60.4543 25.2563C60.3676 23.3578 60.3459 22.7883 60.3459 17.9859C60.3459 13.1766 60.3676 12.607 60.4543 10.7156C60.5338 8.95781 60.8373 8.00859 61.0902 7.37578C61.4227 6.53906 61.8273 5.93437 62.4705 5.30859C63.1209 4.67578 63.7352 4.28906 64.5951 3.96562C65.2455 3.71953 66.2283 3.42422 68.0277 3.34687C69.9717 3.2625 70.557 3.24141 75.5 3.24141ZM75.5 0C70.4775 0 69.8488 0.0210937 67.876 0.105469C65.9104 0.189844 64.559 0.499219 63.3883 0.942187C62.167 1.40625 61.1336 2.01797 60.1074 3.02344C59.074 4.02187 58.4453 5.02734 57.9684 6.20859C57.5131 7.35469 57.1951 8.6625 57.1084 10.575C57.0217 12.5016 57 13.1133 57 18C57 22.8867 57.0217 23.4984 57.1084 25.418C57.1951 27.3305 57.5131 28.6453 57.9684 29.7844C58.4453 30.9727 59.074 31.9781 60.1074 32.9766C61.1336 33.975 62.167 34.5937 63.3811 35.0508C64.559 35.4937 65.9031 35.8031 67.8688 35.8875C69.8416 35.9719 70.4703 35.993 75.4928 35.993C80.5152 35.993 81.1439 35.9719 83.1168 35.8875C85.0824 35.8031 86.4338 35.4937 87.6045 35.0508C88.8186 34.5937 89.852 33.975 90.8781 32.9766C91.9043 31.9781 92.5402 30.9727 93.01 29.7914C93.4652 28.6453 93.7832 27.3375 93.8699 25.425C93.9566 23.5055 93.9783 22.8937 93.9783 18.007C93.9783 13.1203 93.9566 12.5086 93.8699 10.5891C93.7832 8.67656 93.4652 7.36172 93.01 6.22266C92.5547 5.02734 91.926 4.02187 90.8926 3.02344C89.8664 2.025 88.833 1.40625 87.6189 0.949219C86.441 0.50625 85.0969 0.196875 83.1313 0.1125C81.1512 0.0210938 80.5225 0 75.5 0Z" fill="white"/>
<path d="M75.5 8.75391C70.2535 8.75391 65.9971 12.8953 65.9971 18C65.9971 23.1047 70.2535 27.2461 75.5 27.2461C80.7465 27.2461 85.0029 23.1047 85.0029 18C85.0029 12.8953 80.7465 8.75391 75.5 8.75391ZM75.5 23.9977C72.0963 23.9977 69.3357 21.3117 69.3357 18C69.3357 14.6883 72.0963 12.0023 75.5 12.0023C78.9037 12.0023 81.6643 14.6883 81.6643 18C81.6643 21.3117 78.9037 23.9977 75.5 23.9977Z" fill="white"/>
<path d="M87.5973 8.38833C87.5973 9.58365 86.6 10.5469 85.3787 10.5469C84.1502 10.5469 83.1602 9.57662 83.1602 8.38833C83.1602 7.19302 84.1574 6.22974 85.3787 6.22974C86.6 6.22974 87.5973 7.20005 87.5973 8.38833Z" fill="white"/>
</g>
<g clip-path="url(#clip2_179_947)">
<path fill-rule="evenodd" clip-rule="evenodd" d="M151 18C151 27.9411 142.717 36 132.5 36C122.283 36 114 27.9411 114 18C114 8.05888 122.283 0 132.5 0C142.717 0 151 8.05888 151 18ZM133.163 13.2884C131.364 14.0166 127.767 15.5238 122.374 17.81C121.498 18.1488 121.04 18.4803 120.998 18.8045C120.927 19.3522 121.632 19.5679 122.592 19.8617C122.723 19.9016 122.858 19.943 122.997 19.9869C123.942 20.2857 125.212 20.6352 125.873 20.649C126.472 20.6616 127.141 20.4213 127.879 19.928C132.918 16.6185 135.519 14.9457 135.682 14.9097C135.798 14.8842 135.957 14.8522 136.066 14.9458C136.174 15.0393 136.163 15.2165 136.152 15.264C136.082 15.5537 133.314 18.0571 131.882 19.3527C131.435 19.7565 131.119 20.043 131.054 20.1085C130.909 20.255 130.761 20.3937 130.619 20.5269C129.742 21.35 129.084 21.9672 130.656 22.9752C131.411 23.4596 132.016 23.8601 132.619 24.2597C133.277 24.6961 133.934 25.1314 134.784 25.6735C135.001 25.8116 135.208 25.9551 135.409 26.0948C136.175 26.6265 136.864 27.1041 137.715 27.0279C138.209 26.9837 138.72 26.5314 138.979 25.1825C139.592 21.9947 140.797 15.0877 141.075 12.2415C141.099 11.9921 141.069 11.673 141.044 11.5329C141.02 11.3928 140.968 11.1932 140.781 11.0454C140.559 10.8704 140.217 10.8335 140.064 10.8361C139.368 10.8481 138.301 11.2092 133.163 13.2884Z" fill="white"/>
</g>
<path d="M207.631 10.8C207.631 10.8 207.27 8.31792 206.157 7.22808C204.748 5.7937 203.173 5.78667 202.45 5.70229C197.276 5.33667 189.507 5.33667 189.507 5.33667H189.493C189.493 5.33667 181.724 5.33667 176.55 5.70229C175.827 5.78667 174.252 5.7937 172.843 7.22808C171.73 8.31792 171.376 10.8 171.376 10.8C171.376 10.8 171 13.7179 171 16.6289V19.357C171 22.2679 171.369 25.1859 171.369 25.1859C171.369 25.1859 171.73 27.6679 172.836 28.7578C174.245 30.1921 176.095 30.1429 176.919 30.2976C179.881 30.5718 189.5 30.6562 189.5 30.6562C189.5 30.6562 197.276 30.6421 202.45 30.2835C203.173 30.1992 204.748 30.1921 206.157 28.7578C207.27 27.6679 207.631 25.1859 207.631 25.1859C207.631 25.1859 208 22.275 208 19.357V16.6289C208 13.7179 207.631 10.8 207.631 10.8ZM185.677 22.6687V12.5507L195.671 17.6273L185.677 22.6687Z" fill="white"/>
<defs>
<clipPath id="clip0_179_947">
<rect width="37" height="36" fill="white"/>
</clipPath>
<clipPath id="clip1_179_947">
<rect width="37" height="36" fill="white" transform="translate(57)"/>
</clipPath>
<clipPath id="clip2_179_947">
<rect width="37" height="36" fill="white" transform="translate(114)"/>
</clipPath>
</defs>
</svg>
