<?xml version="1.0" encoding="UTF-8"?>
<svg id="Layer_2" data-name="Layer 2" xmlns="http://www.w3.org/2000/svg" viewBox="0 0 157.5 178.98">
  <defs>
    <style>
      .cls-1 {
        fill: none;
        stroke: #f8f8f8;
        stroke-linecap: round;
        stroke-linejoin: round;
        stroke-width: 5.79px;
      }
    </style>
  </defs>
  <g id="Icons">
    <g>
      <path class="cls-1" d="M57.28,2.9h43.29c23.18,0,42.01,18.82,42.01,42.01v99.11c0,5.82-4.73,10.55-10.55,10.55H25.82c-5.82,0-10.55-4.73-10.55-10.55V44.9C15.27,21.72,34.09,2.9,57.28,2.9Z"/>
      <g>
        <path class="cls-1" d="M115.8,154.79h21.3v12.99c0,4.58-3.72,8.3-8.3,8.3h-4.69c-4.58,0-8.3-3.72-8.3-8.3v-12.99h0Z"/>
        <path class="cls-1" d="M20.73,154.79h21.3v12.99c0,4.58-3.72,8.3-8.3,8.3h-4.69c-4.58,0-8.3-3.72-8.3-8.3v-12.99h0Z"/>
      </g>
      <line class="cls-1" x1="142.57" y1="128.26" x2="111.23" y2="128.26"/>
      <line class="cls-1" x1="47.27" y1="128.26" x2="15.92" y2="128.26"/>
      <line class="cls-1" x1="15.27" y1="104.91" x2="142.57" y2="104.91"/>
      <path class="cls-1" d="M108.32,91.9c-7.18,0-13.01,5.82-13.01,13.01h26.02c0-7.18-5.82-13.01-13.01-13.01Z"/>
      <polyline class="cls-1" points="141.57 35.79 154.6 41.84 154.6 63.65"/>
      <polyline class="cls-1" points="15.92 35.79 2.9 41.84 2.9 63.65"/>
    </g>
  </g>
</svg>