<svg width="440" height="83" viewBox="0 0 440 83" fill="none" xmlns="http://www.w3.org/2000/svg">
<g filter="url(#filter0_d_122_88)">
<path d="M10.5602 54.776C10.9429 54.6667 11.9269 54.5847 13.5122 54.53C17.3936 54.4207 22.7509 53.956 29.5842 53.136C28.6002 40.3987 27.6709 30.8867 26.7962 24.6C25.8122 17.056 24.4182 12.382 22.6142 10.578C22.4502 10.578 21.6849 11.808 20.3182 14.268C19.0062 16.6733 17.4482 21.074 15.6442 27.47C13.8402 33.8113 12.1456 42.9133 10.5602 54.776ZM35.0782 74.948C33.0556 74.948 31.7982 74.1827 31.3062 72.652C30.8142 71.1213 30.5136 68.3607 30.4042 64.37L29.9942 58.548C24.6369 58.9853 19.9629 59.286 15.9722 59.45C12.0362 59.614 10.0136 59.696 9.90424 59.696C9.30291 63.0853 8.97491 65.3267 8.92024 66.42C8.81091 67.1853 8.42824 67.814 7.77224 68.306C7.11624 68.798 6.43291 69.044 5.72224 69.044C4.57424 69.044 4.00024 68.4427 4.00024 67.24C4.00024 60.7347 4.49224 53.7373 5.47624 46.248C6.51491 38.704 7.96357 31.6247 9.82224 25.01C11.7356 18.3407 14.0042 12.874 16.6282 8.60999C19.3069 4.34599 22.2862 2.21399 25.5662 2.21399C27.4796 2.21399 29.2562 2.92466 30.8962 4.34599C32.5909 5.76732 34.0122 7.78999 35.1602 10.414C36.1989 13.202 37.1282 17.6573 37.9482 23.78C39.3696 34.112 40.6269 47.1773 41.7202 62.976L42.0482 67.896C42.0482 69.9187 41.2282 71.586 39.5882 72.898C38.0029 74.2647 36.4996 74.948 35.0782 74.948ZM73.4562 69.126C71.7068 69.126 70.8322 68.142 70.8322 66.174C70.8322 65.518 70.9415 64.5887 71.1602 63.386C71.5975 60.8167 71.8708 56.99 71.9802 51.906C71.9802 48.7353 71.5155 45.2913 70.5862 41.574C70.5862 40.3713 69.5202 37.72 67.3882 33.62L67.4702 33.538C67.4155 33.538 67.3335 33.4833 67.2242 33.374C67.1695 33.21 67.1148 33.128 67.0602 33.128L66.1582 32.144C65.3382 32.964 64.5455 34.276 63.7802 36.08C62.3042 39.4693 60.7735 46.3027 59.1882 56.58C59.5162 57.728 59.6802 58.9307 59.6802 60.188C59.6802 62.32 58.9422 64.042 57.4662 65.354C55.9902 66.666 54.4322 67.322 52.7922 67.322C52.6828 67.3767 52.4915 67.404 52.2182 67.404C50.7968 67.404 49.5942 65.9553 48.6102 63.058C47.0248 58.6847 46.2322 50.8127 46.2322 39.442C46.2322 35.342 46.6148 32.2533 47.3802 30.176C48.1455 28.0987 49.0475 26.7047 50.0862 25.994C51.1248 25.2833 52.1088 24.928 53.0382 24.928C55.6075 24.928 56.9742 27.7433 57.1382 33.374C58.4502 30.258 59.8988 28.0167 61.4842 26.65C63.1242 25.2833 64.6002 24.4633 65.9122 24.19C67.2788 23.862 68.1262 23.698 68.4542 23.698C71.1328 23.8073 73.0188 24.7367 74.1122 26.486C75.2602 28.2353 76.0802 30.094 76.5722 32.062C77.5562 35.178 78.1848 37.966 78.4582 40.426C78.7315 42.886 78.8682 46.002 78.8682 49.774C78.8682 57.318 78.4308 62.4293 77.5562 65.108C76.6815 67.7867 75.3148 69.126 73.4562 69.126ZM89.2963 66.256C88.6403 66.256 87.9569 66.1193 87.2463 65.846C84.7863 64.862 83.5563 57.81 83.5563 44.69C83.5563 37.6927 84.0209 32.5267 84.9503 29.192L86.1803 26.896C87.4376 24.764 89.1049 23.698 91.1823 23.698C93.8609 23.698 95.2003 25.4747 95.2003 29.028C95.2003 30.0667 95.1183 31.324 94.9543 32.8C94.7356 34.9867 94.6263 37.5833 94.6263 40.59C94.6263 44.6353 94.8996 49.118 95.4463 54.038C95.7196 55.7873 95.8563 57.5367 95.8563 59.286C95.8563 60.9807 95.4463 62.3473 94.6263 63.386C93.8063 64.37 92.8769 65.108 91.8383 65.6C90.7996 66.0373 89.9523 66.256 89.2963 66.256ZM88.8863 17.712C86.0983 17.712 84.7043 16.318 84.7043 13.53C84.7043 9.21133 85.8796 6.25933 88.2303 4.67399C89.5423 3.85399 90.8543 3.44399 92.1663 3.44399C94.7356 3.44399 96.0203 4.72866 96.0203 7.29799C96.0203 7.84466 95.9383 8.60999 95.7743 9.59399C95.7743 9.92199 95.8016 10.168 95.8563 10.332C95.8563 12.5733 95.0363 14.3773 93.3963 15.744C91.8109 17.056 90.3076 17.712 88.8863 17.712ZM139.481 69.044C137.349 69.044 136.283 67.7867 136.283 65.272L136.775 47.56C136.775 42.312 136.283 38.212 135.299 35.26C133.659 38.212 132.566 41.3827 132.019 44.772C131.746 46.6853 131.308 48.3527 130.707 49.774C130.16 51.1407 129.012 51.824 127.263 51.824C126.115 51.824 125.35 51.1133 124.967 49.692C124.147 49.1453 123.409 46.658 122.753 42.23C122.097 36.7087 121.113 33.128 119.801 31.488L119.965 31.324L119.637 31.488C117.942 34.276 116.548 37.2553 115.455 40.426C114.088 45.838 113.268 50.02 112.995 52.972L112.421 56.58C112.694 57.892 112.831 59.204 112.831 60.516C112.831 62.7573 112.038 64.534 110.453 65.846C108.868 67.158 107.392 67.814 106.025 67.814C104.713 67.814 103.647 67.322 102.827 66.338C102.062 65.2993 101.488 63.2493 101.105 60.188C100.777 57.072 100.613 52.3707 100.613 46.084C100.613 37.556 101.105 32.0073 102.089 29.438C103.838 26.158 105.888 24.518 108.239 24.518C109.606 24.518 110.59 25.092 111.191 26.24C111.792 27.3333 112.093 28.5087 112.093 29.766L112.011 31.734C114.854 26.5953 118.106 24.026 121.769 24.026C124.776 24.026 126.826 25.5567 127.919 28.618C128.575 30.422 128.903 31.5427 128.903 31.98C129.996 29.9027 131.09 28.372 132.183 27.388C133.331 26.404 134.37 25.7753 135.299 25.502C136.228 25.2287 136.939 25.092 137.431 25.092C139.672 25.092 141.34 26.1853 142.433 28.372C143.581 30.504 144.346 33.128 144.729 36.244C145.112 39.3053 145.303 42.23 145.303 45.018C145.303 47.7513 145.248 50.266 145.139 52.562C145.084 54.8033 145.057 57.1813 145.057 59.696L145.139 61.172C145.139 66.42 143.253 69.044 139.481 69.044ZM159.853 60.598C160.236 60.5433 160.564 60.516 160.837 60.516C161.111 60.516 161.275 60.4887 161.329 60.434C161.384 60.3247 161.466 60.2427 161.575 60.188C161.739 60.1333 162.395 59.778 163.543 59.122C163.762 59.0127 164.5 58.302 165.757 56.99C167.179 55.2407 168.053 53.9833 168.381 53.218C168.6 52.7807 168.764 52.5347 168.873 52.48C169.147 51.7693 169.283 50.8673 169.283 49.774C169.283 48.626 169.147 47.5053 168.873 46.412C168.655 45.264 168.381 44.526 168.053 44.198C167.507 43.9247 166.823 43.788 166.003 43.788C164.965 43.788 163.926 43.9247 162.887 44.198C161.849 44.4167 161.193 44.608 160.919 44.772C157.585 47.7787 155.917 50.8947 155.917 54.12C155.917 55.2133 156.027 56.1153 156.245 56.826C156.573 58.0287 156.901 58.9033 157.229 59.45C157.612 59.942 158.487 60.3247 159.853 60.598ZM177.483 69.782C175.078 69.782 173.657 68.4427 173.219 65.764C173.055 64.616 172.919 62.6207 172.809 59.778C168.108 65.4633 163.106 68.306 157.803 68.306C155.234 68.306 152.993 67.3493 151.079 65.436C149.166 63.5227 148.209 60.6253 148.209 56.744C148.209 51.6053 150.205 46.8767 154.195 42.558C158.186 38.1847 162.45 35.998 166.987 35.998C168.245 35.998 169.557 36.2713 170.923 36.818C170.486 35.506 169.939 34.3307 169.283 33.292C167.917 31.4333 166.933 30.34 166.331 30.012C165.785 29.684 165.156 29.356 164.445 29.028C162.095 27.9347 160.919 26.7593 160.919 25.502C160.919 24.5727 161.411 23.616 162.395 22.632C163.434 21.5933 164.828 21.074 166.577 21.074C169.912 21.074 172.673 22.222 174.859 24.518C177.046 26.7593 178.768 29.6293 180.025 33.128C181.337 36.572 182.294 40.2073 182.895 44.034C183.551 47.806 183.961 51.332 184.125 54.612C184.289 57.892 184.371 60.3793 184.371 62.074C184.371 64.0967 183.907 65.682 182.977 66.83C182.048 67.9233 181.037 68.6887 179.943 69.126C178.85 69.5633 178.03 69.782 177.483 69.782ZM226.71 66.256C226.054 66.256 225.371 66.1193 224.66 65.846C222.2 64.862 220.97 57.81 220.97 44.69C220.97 37.6927 221.435 32.5267 222.364 29.192L223.594 26.896C224.852 24.764 226.519 23.698 228.596 23.698C231.275 23.698 232.614 25.4747 232.614 29.028C232.614 30.0667 232.532 31.324 232.368 32.8C232.15 34.9867 232.04 37.5833 232.04 40.59C232.04 44.6353 232.314 49.118 232.86 54.038C233.134 55.7873 233.27 57.5367 233.27 59.286C233.27 60.9807 232.86 62.3473 232.04 63.386C231.22 64.37 230.291 65.108 229.252 65.6C228.214 66.0373 227.366 66.256 226.71 66.256ZM226.3 17.712C223.512 17.712 222.118 16.318 222.118 13.53C222.118 9.21133 223.294 6.25933 225.644 4.67399C226.956 3.85399 228.268 3.44399 229.58 3.44399C232.15 3.44399 233.434 4.72866 233.434 7.29799C233.434 7.84466 233.352 8.60999 233.188 9.59399C233.188 9.92199 233.216 10.168 233.27 10.332C233.27 12.5733 232.45 14.3773 230.81 15.744C229.225 17.056 227.722 17.712 226.3 17.712ZM264.923 69.126C263.174 69.126 262.299 68.142 262.299 66.174C262.299 65.518 262.408 64.5887 262.627 63.386C263.064 60.8167 263.338 56.99 263.447 51.906C263.447 48.7353 262.982 45.2913 262.053 41.574C262.053 40.3713 260.987 37.72 258.855 33.62L258.937 33.538C258.882 33.538 258.8 33.4833 258.691 33.374C258.636 33.21 258.582 33.128 258.527 33.128L257.625 32.144C256.805 32.964 256.012 34.276 255.247 36.08C253.771 39.4693 252.24 46.3027 250.655 56.58C250.983 57.728 251.147 58.9307 251.147 60.188C251.147 62.32 250.409 64.042 248.933 65.354C247.457 66.666 245.899 67.322 244.259 67.322C244.15 67.3767 243.958 67.404 243.685 67.404C242.264 67.404 241.061 65.9553 240.077 63.058C238.492 58.6847 237.699 50.8127 237.699 39.442C237.699 35.342 238.082 32.2533 238.847 30.176C239.612 28.0987 240.514 26.7047 241.553 25.994C242.592 25.2833 243.576 24.928 244.505 24.928C247.074 24.928 248.441 27.7433 248.605 33.374C249.917 30.258 251.366 28.0167 252.951 26.65C254.591 25.2833 256.067 24.4633 257.379 24.19C258.746 23.862 259.593 23.698 259.921 23.698C262.6 23.8073 264.486 24.7367 265.579 26.486C266.727 28.2353 267.547 30.094 268.039 32.062C269.023 35.178 269.652 37.966 269.925 40.426C270.198 42.886 270.335 46.002 270.335 49.774C270.335 57.318 269.898 62.4293 269.023 65.108C268.148 67.7867 266.782 69.126 264.923 69.126ZM314.661 69.208C313.294 69.208 312.283 68.7433 311.627 67.814C311.19 67.2127 310.971 66.666 310.971 66.174L310.561 64.534C310.452 64.3153 310.151 61.6093 309.659 56.416C309.167 51.168 308.921 44.2527 308.921 35.67C308.921 24.4633 309.468 15.6073 310.561 9.10199C309.522 8.93799 308.757 8.55532 308.265 7.95399C307.992 7.62599 307.855 7.29799 307.855 6.96999C307.855 6.09532 308.347 5.32999 309.331 4.67399C310.315 3.96332 311.244 3.60799 312.119 3.60799L312.447 3.52599C313.212 2.32332 314.06 1.44866 314.989 0.90199C315.918 0.300658 316.82 -8.22544e-06 317.695 -8.22544e-06C319.39 -8.22544e-06 320.62 1.06599 321.385 3.19799L329.995 3.11599C330.487 3.11599 330.842 3.17066 331.061 3.27999C331.28 3.38933 331.471 3.47132 331.635 3.52599C332.674 3.90866 333.193 4.50999 333.193 5.32999C333.193 5.82199 333.002 6.34132 332.619 6.88799C332.236 7.37999 331.826 7.81733 331.389 8.19999C331.006 8.52799 330.706 8.69199 330.487 8.69199C330.378 8.69199 330.323 8.63732 330.323 8.52799C330.05 8.74666 329.722 8.91066 329.339 9.01999C328.956 9.07466 327.426 9.12932 324.747 9.18399H321.221C320.401 17.4387 319.964 24.5453 319.909 30.504L321.959 30.34C323.216 30.176 324.173 30.094 324.829 30.094C325.54 30.094 326.196 30.2853 326.797 30.668C327.398 31.0507 327.699 31.5973 327.699 32.308C327.699 32.8547 327.562 33.4013 327.289 33.948C327.016 34.44 326.688 34.8227 326.305 35.096C325.54 35.752 324.829 36.162 324.173 36.326C323.517 36.49 322.615 36.6267 321.467 36.736L319.909 36.818C320.182 46.2207 320.592 52.6167 321.139 56.006C321.412 58.1927 321.549 60.27 321.549 62.238C321.549 64.2607 320.784 65.928 319.253 67.24C317.777 68.552 316.246 69.208 314.661 69.208ZM338.758 40.508C340.398 39.4147 341.491 38.5947 342.038 38.048C343.131 36.736 343.814 35.834 344.088 35.342L344.416 34.932C344.689 34.3307 344.908 33.8933 345.072 33.62C345.236 33.3467 345.372 32.718 345.482 31.734C345.372 30.6407 345.154 29.93 344.826 29.602C344.552 29.274 344.006 29.0827 343.186 29.028L341.956 30.422L339.742 35.342C339.578 35.3967 339.359 36.1893 339.086 37.72C338.867 39.2507 338.758 40.18 338.758 40.508ZM344.17 68.798C344.115 68.798 343.514 68.6887 342.366 68.47C341.218 68.306 339.824 67.8687 338.184 67.158C336.544 66.3927 334.904 65.2173 333.264 63.632C331.678 61.992 330.312 59.778 329.164 56.99C328.07 54.1473 327.524 50.5393 327.524 46.166C327.524 39.77 329.054 33.8113 332.116 28.29C335.505 22.2767 339.933 19.27 345.4 19.27C346.657 19.27 347.942 19.598 349.254 20.254C350.566 20.8553 351.659 21.812 352.534 23.124C353.408 24.3813 353.846 25.994 353.846 27.962C353.846 30.75 352.998 33.5107 351.304 36.244C349.664 38.9227 347.696 41.2187 345.4 43.132C343.104 44.9907 340.917 46.166 338.84 46.658C339.222 49.0633 339.796 51.086 340.562 52.726C341.983 55.7327 344.552 57.8373 348.27 59.04C350.128 59.6413 351.194 60.0787 351.468 60.352L352.534 60.762C353.299 61.1447 353.682 61.664 353.682 62.32C353.682 63.9053 352.643 65.3813 350.566 66.748C348.543 68.1147 346.411 68.798 344.17 68.798ZM362.988 67.896C359.817 67.896 358.232 66.5567 358.232 63.878C358.232 63.0033 358.533 61.9373 359.134 60.68C360.173 58.6027 362.113 57.4273 364.956 57.154C365.065 56.4433 365.12 55.842 365.12 55.35C365.12 53.6553 364.983 52.6713 364.71 52.398V52.316C364.71 51.4413 363.89 49.364 362.25 46.084C360.501 42.476 359.107 38.8953 358.068 35.342C357.084 31.734 356.592 28.9733 356.592 27.06C356.592 24.3267 357.139 22.058 358.232 20.254C359.38 18.45 360.719 17.1107 362.25 16.236C363.781 15.3067 365.12 14.842 366.268 14.842C368.619 14.842 369.794 15.7713 369.794 17.63C369.794 19.1607 368.783 20.3907 366.76 21.32C366.159 21.7027 365.749 21.9487 365.53 22.058C365.366 22.1673 365.257 22.2767 365.202 22.386C365.147 22.4407 365.065 22.5227 364.956 22.632C364.901 22.7413 364.819 23.37 364.71 24.518C364.71 25.01 364.71 25.2833 364.71 25.338C364.765 25.338 364.792 25.42 364.792 25.584C364.792 25.6933 364.874 26.24 365.038 27.224C365.585 29.192 366.323 30.832 367.252 32.144C367.416 32.1987 368.209 33.21 369.63 35.178C373.949 41.1367 376.108 46.8493 376.108 52.316C376.108 55.924 375.343 58.876 373.812 61.172C372.281 63.468 370.477 65.1627 368.4 66.256C366.377 67.3493 364.573 67.896 362.988 67.896ZM396.341 72.898C392.35 72.898 388.906 71.176 386.009 67.732L383.139 63.55C382.975 63.1127 382.756 62.7027 382.483 62.32C380.733 58.3293 379.859 51.2773 379.859 41.164C377.891 41 376.907 40.3987 376.907 39.36C376.907 37.72 377.945 36.736 380.023 36.408C380.296 30.9413 380.843 25.2287 381.663 19.27C382.045 12.1633 384.533 8.41866 389.125 8.03599C389.835 8.03599 390.519 8.19999 391.175 8.52799C391.885 8.85599 392.377 9.45733 392.651 10.332C392.924 11.152 393.061 12.054 393.061 13.038C393.061 14.4047 392.787 16.974 392.241 20.746C391.749 24.518 391.284 29.7933 390.847 36.572C391.229 36.6267 391.639 36.654 392.077 36.654L393.635 36.572C395.985 36.572 397.161 37.2007 397.161 38.458C397.161 39.0593 396.915 39.6607 396.423 40.262C395.985 40.8633 395.466 41.2733 394.865 41.492C394.263 41.656 393.607 41.738 392.897 41.738L390.847 41.656C391.065 46.1933 391.53 50.922 392.241 55.842C392.405 57.7553 392.569 59.0947 392.733 59.86C392.951 60.6253 393.307 61.5273 393.799 62.566C395.22 64.37 396.149 65.3267 396.587 65.436C396.696 65.4907 396.86 65.6 397.079 65.764C397.352 65.8733 397.543 65.9553 397.653 66.01H397.817V66.092C398.527 66.2013 399.265 66.2833 400.031 66.338C401.343 66.502 401.999 67.322 401.999 68.798C401.944 69.6727 401.616 70.438 401.015 71.094C400.468 71.8047 399.785 72.2693 398.965 72.488C398.145 72.7613 397.27 72.898 396.341 72.898ZM410.818 60.598C411.201 60.5433 411.529 60.516 411.802 60.516C412.076 60.516 412.24 60.4887 412.294 60.434C412.349 60.3247 412.431 60.2427 412.54 60.188C412.704 60.1333 413.36 59.778 414.508 59.122C414.727 59.0127 415.465 58.302 416.722 56.99C418.144 55.2407 419.018 53.9833 419.346 53.218C419.565 52.7807 419.729 52.5347 419.838 52.48C420.112 51.7693 420.248 50.8673 420.248 49.774C420.248 48.626 420.112 47.5053 419.838 46.412C419.62 45.264 419.346 44.526 419.018 44.198C418.472 43.9247 417.788 43.788 416.968 43.788C415.93 43.788 414.891 43.9247 413.852 44.198C412.814 44.4167 412.158 44.608 411.884 44.772C408.55 47.7787 406.882 50.8947 406.882 54.12C406.882 55.2133 406.992 56.1153 407.21 56.826C407.538 58.0287 407.866 58.9033 408.194 59.45C408.577 59.942 409.452 60.3247 410.818 60.598ZM428.448 69.782C426.043 69.782 424.622 68.4427 424.184 65.764C424.02 64.616 423.884 62.6207 423.774 59.778C419.073 65.4633 414.071 68.306 408.768 68.306C406.199 68.306 403.958 67.3493 402.044 65.436C400.131 63.5227 399.174 60.6253 399.174 56.744C399.174 51.6053 401.17 46.8767 405.16 42.558C409.151 38.1847 413.415 35.998 417.952 35.998C419.21 35.998 420.522 36.2713 421.888 36.818C421.451 35.506 420.904 34.3307 420.248 33.292C418.882 31.4333 417.898 30.34 417.296 30.012C416.75 29.684 416.121 29.356 415.41 29.028C413.06 27.9347 411.884 26.7593 411.884 25.502C411.884 24.5727 412.376 23.616 413.36 22.632C414.399 21.5933 415.793 21.074 417.542 21.074C420.877 21.074 423.638 22.222 425.824 24.518C428.011 26.7593 429.733 29.6293 430.99 33.128C432.302 36.572 433.259 40.2073 433.86 44.034C434.516 47.806 434.926 51.332 435.09 54.612C435.254 57.892 435.336 60.3793 435.336 62.074C435.336 64.0967 434.872 65.682 433.942 66.83C433.013 67.9233 432.002 68.6887 430.908 69.126C429.815 69.5633 428.995 69.782 428.448 69.782Z" fill="#F5F9FF"/>
</g>
<defs>
<filter id="filter0_d_122_88" x="0" y="0" width="439.336" height="82.948" filterUnits="userSpaceOnUse" color-interpolation-filters="sRGB">
<feFlood flood-opacity="0" result="BackgroundImageFix"/>
<feColorMatrix in="SourceAlpha" type="matrix" values="0 0 0 0 0 0 0 0 0 0 0 0 0 0 0 0 0 0 127 0" result="hardAlpha"/>
<feOffset dy="4"/>
<feGaussianBlur stdDeviation="2"/>
<feComposite in2="hardAlpha" operator="out"/>
<feColorMatrix type="matrix" values="0 0 0 0 0 0 0 0 0 0 0 0 0 0 0 0 0 0 0.25 0"/>
<feBlend mode="normal" in2="BackgroundImageFix" result="effect1_dropShadow_122_88"/>
<feBlend mode="normal" in="SourceGraphic" in2="effect1_dropShadow_122_88" result="shape"/>
</filter>
</defs>
</svg>
