<svg width="365" height="87" viewBox="0 0 365 87" fill="none" xmlns="http://www.w3.org/2000/svg">
<g filter="url(#filter0_d_122_130)">
<path d="M10.8058 66.912C9.60313 66.912 8.53713 66.4747 7.6078 65.6C6.35047 65.5453 5.7218 64.9713 5.7218 63.878C5.7218 63.222 5.99513 62.566 6.5418 61.91C6.10447 54.4753 5.8858 46.6033 5.8858 38.294C5.8858 22.55 6.59647 11.8353 8.0178 6.15001C5.33913 5.76734 3.9998 4.97468 3.9998 3.77201C3.9998 2.56934 4.76513 1.74935 6.2958 1.31201C7.82647 0.874677 9.68513 0.628677 11.8718 0.574011C12.5278 0.191342 13.1838 8.34465e-06 13.8398 8.34465e-06C14.4411 8.34465e-06 14.9878 0.136675 15.4798 0.410008H15.9718C16.2451 0.410008 16.6551 0.437343 17.2018 0.492012C17.7485 0.546678 18.2405 0.710677 18.6778 0.98401C19.1698 1.25734 19.4158 1.72201 19.4158 2.37801C19.4158 2.87001 19.2518 3.38935 18.9238 3.93601C18.5958 4.42801 18.2131 4.81068 17.7758 5.08401V6.06801C17.7758 7.65334 17.6938 9.94935 17.5298 12.956C17.0925 18.4773 16.8738 26.0213 16.8738 35.588C16.8738 42.5853 17.1471 50.5667 17.6938 59.532L21.0558 59.368C23.0238 59.368 24.0078 60.0513 24.0078 61.418C24.0078 62.7847 23.5431 63.7687 22.6138 64.37C21.1378 65.2993 18.7325 65.764 15.3978 65.764L14.0858 65.846C12.8831 66.5567 11.7898 66.912 10.8058 66.912ZM52.8487 67.814C51.0994 67.814 50.2247 66.83 50.2247 64.862C50.2247 64.206 50.3341 63.2767 50.5527 62.074C50.9901 59.5047 51.2634 55.678 51.3727 50.594C51.3727 47.4233 50.9081 43.9793 49.9787 40.262C49.9787 39.0593 48.9127 36.408 46.7807 32.308L46.8627 32.226C46.8081 32.226 46.7261 32.1713 46.6167 32.062C46.5621 31.898 46.5074 31.816 46.4527 31.816L45.5507 30.832C44.7307 31.652 43.9381 32.964 43.1727 34.768C41.6967 38.1573 40.1661 44.9907 38.5807 55.268C38.9087 56.416 39.0727 57.6187 39.0727 58.876C39.0727 61.008 38.3347 62.73 36.8587 64.042C35.3827 65.354 33.8247 66.01 32.1847 66.01C32.0754 66.0647 31.8841 66.092 31.6107 66.092C30.1894 66.092 28.9867 64.6433 28.0027 61.746C26.4174 57.3727 25.6247 49.5007 25.6247 38.13C25.6247 34.03 26.0074 30.9413 26.7727 28.864C27.5381 26.7867 28.4401 25.3927 29.4787 24.682C30.5174 23.9713 31.5014 23.616 32.4307 23.616C35.0001 23.616 36.3667 26.4313 36.5307 32.062C37.8427 28.946 39.2914 26.7047 40.8767 25.338C42.5167 23.9713 43.9927 23.1513 45.3047 22.878C46.6714 22.55 47.5187 22.386 47.8467 22.386C50.5254 22.4953 52.4114 23.4247 53.5047 25.174C54.6527 26.9233 55.4727 28.782 55.9647 30.75C56.9487 33.866 57.5774 36.654 57.8507 39.114C58.1241 41.574 58.2607 44.69 58.2607 48.462C58.2607 56.006 57.8234 61.1173 56.9487 63.796C56.0741 66.4747 54.7074 67.814 52.8487 67.814ZM70.9028 78.474C69.7002 78.474 68.7435 78.0913 68.0328 77.326C67.3768 76.6153 66.7755 74.948 66.2288 72.324C64.0968 62.812 63.0308 53.6007 63.0308 44.69C61.5002 44.362 60.7348 43.624 60.7348 42.476C60.7348 41.328 61.5275 40.426 63.1128 39.77C63.6048 31.898 65.0262 25.0647 67.3768 19.27C70.0555 12.71 73.9095 9.43001 78.9388 9.43001C80.3602 9.43001 81.6448 9.81268 82.7928 10.578C83.9408 11.2887 84.6242 12.382 84.8428 13.858L85.0068 14.924C85.0068 15.8533 84.6515 16.728 83.9408 17.548C83.2302 18.3133 82.2735 18.696 81.0708 18.696C80.1962 18.696 79.6222 18.3133 79.3488 17.548C79.2942 17.3293 79.1028 17.22 78.7748 17.22C77.8455 19.4067 77.1348 21.2927 76.6428 22.878C75.5495 25.7207 74.7022 31.0507 74.1008 38.868H77.3808C80.7155 38.868 82.3828 39.5513 82.3828 40.918C82.3828 41.574 82.1368 42.2573 81.6448 42.968C80.7702 44.1707 79.3488 44.772 77.3808 44.772L74.1828 44.69C74.7842 54.0927 75.7135 61.3087 76.9708 66.338C77.5175 68.6887 77.7908 70.3287 77.7908 71.258C77.7908 73.4447 77.0255 75.194 75.4948 76.506C73.9642 77.818 72.4335 78.474 70.9028 78.474ZM100.863 57.072L100.781 56.99C100.781 57.0447 100.808 57.072 100.863 57.072ZM101.601 57.236C102.202 57.1267 102.585 56.9353 102.749 56.662C102.968 56.334 103.214 56.006 103.487 55.678C104.526 53.9833 105.154 50.7853 105.373 46.084C105.373 44.3893 105.264 42.968 105.045 41.82C104.061 35.9707 102.23 31.57 99.5509 28.618C98.4029 30.8047 97.4736 32.964 96.7629 35.096L96.4349 35.916V36.08L96.5989 35.67V35.834C96.1069 36.4353 95.6423 39.0867 95.2049 43.788C95.2049 46.6307 95.4236 48.5987 95.8609 49.692C95.8609 49.856 95.8883 49.9653 95.9429 50.02C96.0523 50.7307 96.5443 51.9333 97.4189 53.628C98.3483 54.8853 99.4416 55.9787 100.699 56.908C100.918 57.1267 101.218 57.236 101.601 57.236ZM95.5329 65.928C91.5969 65.928 88.6449 63.6867 86.6769 59.204C85.0369 55.596 84.2169 51.66 84.2169 47.396C84.2169 44.8267 84.6269 41.656 85.4469 37.884C86.3216 34.0573 87.6336 30.504 89.3829 27.224C91.1869 23.8893 93.4556 21.5387 96.1889 20.172C96.9543 19.024 98.1296 18.45 99.7149 18.45C100.426 18.45 101.437 18.9967 102.749 20.09C104.116 21.1833 105.51 22.8233 106.931 25.01C108.407 27.142 109.664 29.766 110.703 32.882C111.742 35.9433 112.261 39.442 112.261 43.378C112.261 50.43 110.676 55.8693 107.505 59.696C104.061 63.8507 100.07 65.928 95.5329 65.928ZM122.187 68.06H121.367C120.055 68.06 118.989 66.8027 118.169 64.288C117.021 60.5707 116.447 53.5187 116.447 43.132C116.447 38.868 116.638 34.604 117.021 30.34C117.458 25.092 118.36 21.7027 119.727 20.172C121.257 18.4227 122.87 17.548 124.565 17.548C125.221 17.548 125.877 17.712 126.533 18.04H126.451C126.724 18.1493 127.025 18.3953 127.353 18.778C127.735 19.1607 127.981 19.5707 128.091 20.008C128.419 21.1013 128.583 21.8667 128.583 22.304C128.583 22.796 128.528 23.3427 128.419 23.944C128.255 24.9827 128.036 27.5247 127.763 31.57C128.364 30.4767 129.047 29.356 129.813 28.208C132.546 24.2173 135.498 22.222 138.669 22.222C140.145 22.222 141.429 22.6867 142.523 23.616C143.671 24.4907 144.245 25.5293 144.245 26.732C144.245 27.6067 143.889 28.5633 143.179 29.602C142.523 30.6407 141.593 31.16 140.391 31.16C139.789 31.16 139.297 30.9687 138.915 30.586C138.587 30.1487 138.286 29.5747 138.013 28.864L136.865 28.208C136.755 28.208 136.619 28.2353 136.455 28.29C136.345 28.3447 136.236 28.4267 136.127 28.536C136.017 28.5907 135.853 28.7273 135.635 28.946C135.416 29.11 135.197 29.3287 134.979 29.602C132.464 32.6087 130.742 35.6427 129.813 38.704C128.938 41.7107 128.309 45.51 127.927 50.102C128.145 52.2887 128.309 54.0107 128.419 55.268C128.583 56.4707 128.719 57.482 128.829 58.302C128.993 59.0673 129.129 59.942 129.239 60.926C129.239 62.5113 128.555 64.0967 127.189 65.682C125.822 67.2673 124.155 68.06 122.187 68.06ZM184.457 67.732C182.325 67.732 181.259 66.4747 181.259 63.96L181.751 46.248C181.751 41 181.259 36.9 180.275 33.948C178.635 36.9 177.542 40.0707 176.995 43.46C176.722 45.3733 176.285 47.0407 175.683 48.462C175.137 49.8287 173.989 50.512 172.239 50.512C171.091 50.512 170.326 49.8013 169.943 48.38C169.123 47.8333 168.385 45.346 167.729 40.918C167.073 35.3967 166.089 31.816 164.777 30.176L164.941 30.012L164.613 30.176C162.919 32.964 161.525 35.9433 160.431 39.114C159.065 44.526 158.245 48.708 157.971 51.66L157.397 55.268C157.671 56.58 157.807 57.892 157.807 59.204C157.807 61.4453 157.015 63.222 155.429 64.534C153.844 65.846 152.368 66.502 151.001 66.502C149.689 66.502 148.623 66.01 147.803 65.026C147.038 63.9873 146.464 61.9373 146.081 58.876C145.753 55.76 145.589 51.0587 145.589 44.772C145.589 36.244 146.081 30.6953 147.065 28.126C148.815 24.846 150.865 23.206 153.215 23.206C154.582 23.206 155.566 23.78 156.167 24.928C156.769 26.0213 157.069 27.1967 157.069 28.454L156.987 30.422C159.83 25.2833 163.083 22.714 166.745 22.714C169.752 22.714 171.802 24.2447 172.895 27.306C173.551 29.11 173.879 30.2307 173.879 30.668C174.973 28.5907 176.066 27.06 177.159 26.076C178.307 25.092 179.346 24.4633 180.275 24.19C181.205 23.9167 181.915 23.78 182.407 23.78C184.649 23.78 186.316 24.8733 187.409 27.06C188.557 29.192 189.323 31.816 189.705 34.932C190.088 37.9933 190.279 40.918 190.279 43.706C190.279 46.4393 190.225 48.954 190.115 51.25C190.061 53.4913 190.033 55.8693 190.033 58.384L190.115 59.86C190.115 65.108 188.229 67.732 184.457 67.732ZM204.83 59.286C205.213 59.2313 205.541 59.204 205.814 59.204C206.087 59.204 206.251 59.1767 206.306 59.122C206.361 59.0127 206.443 58.9307 206.552 58.876C206.716 58.8213 207.372 58.466 208.52 57.81C208.739 57.7007 209.477 56.99 210.734 55.678C212.155 53.9287 213.03 52.6713 213.358 51.906C213.577 51.4687 213.741 51.2227 213.85 51.168C214.123 50.4573 214.26 49.5553 214.26 48.462C214.26 47.314 214.123 46.1933 213.85 45.1C213.631 43.952 213.358 43.214 213.03 42.886C212.483 42.6127 211.8 42.476 210.98 42.476C209.941 42.476 208.903 42.6127 207.864 42.886C206.825 43.1047 206.169 43.296 205.896 43.46C202.561 46.4667 200.894 49.5827 200.894 52.808C200.894 53.9013 201.003 54.8033 201.222 55.514C201.55 56.7167 201.878 57.5913 202.206 58.138C202.589 58.63 203.463 59.0127 204.83 59.286ZM222.46 68.47C220.055 68.47 218.633 67.1307 218.196 64.452C218.032 63.304 217.895 61.3087 217.786 58.466C213.085 64.1513 208.083 66.994 202.78 66.994C200.211 66.994 197.969 66.0373 196.056 64.124C194.143 62.2107 193.186 59.3133 193.186 55.432C193.186 50.2933 195.181 45.5647 199.172 41.246C203.163 36.8727 207.427 34.686 211.964 34.686C213.221 34.686 214.533 34.9593 215.9 35.506C215.463 34.194 214.916 33.0187 214.26 31.98C212.893 30.1213 211.909 29.028 211.308 28.7C210.761 28.372 210.133 28.044 209.422 27.716C207.071 26.6227 205.896 25.4473 205.896 24.19C205.896 23.2607 206.388 22.304 207.372 21.32C208.411 20.2813 209.805 19.762 211.554 19.762C214.889 19.762 217.649 20.91 219.836 23.206C222.023 25.4473 223.745 28.3173 225.002 31.816C226.314 35.26 227.271 38.8953 227.872 42.722C228.528 46.494 228.938 50.02 229.102 53.3C229.266 56.58 229.348 59.0673 229.348 60.762C229.348 62.7847 228.883 64.37 227.954 65.518C227.025 66.6113 226.013 67.3767 224.92 67.814C223.827 68.2513 223.007 68.47 222.46 68.47ZM242.827 66.338C242.499 66.338 241.925 66.338 241.105 66.338C240.339 66.2833 239.574 66.256 238.809 66.256C238.043 66.2013 237.442 66.1193 237.005 66.01L235.939 66.174C233.424 66.174 232.167 64.616 232.167 61.5C232.167 57.9467 238.153 46.6307 250.125 27.552C247.337 27.8253 245.068 28.0987 243.319 28.372C241.624 28.5907 240.339 28.7 239.465 28.7C238.371 28.7 237.551 28.454 237.005 27.962C236.458 27.4153 236.185 26.896 236.185 26.404C236.185 25.9667 236.294 25.5293 236.513 25.092C237.333 23.616 238.535 22.7413 240.121 22.468C240.995 22.304 245.095 22.0033 252.421 21.566C253.241 21.402 254.17 21.32 255.209 21.32L256.193 21.402C256.575 21.074 257.177 20.91 257.997 20.91C259.309 20.91 260.265 21.32 260.867 22.14C261.523 22.9053 261.851 23.7527 261.851 24.682C261.851 25.6113 261.577 26.5953 261.031 27.634C260.539 28.6727 259.582 30.34 258.161 32.636C256.247 35.6427 253.131 40.918 248.813 48.462C245.97 52.9447 244.002 56.9627 242.909 60.516C246.079 60.516 248.539 60.4613 250.289 60.352C252.038 60.188 253.405 60.0513 254.389 59.942C255.373 59.778 256.275 59.696 257.095 59.696C258.899 59.696 259.801 60.352 259.801 61.664C259.801 62.4293 259.445 63.1673 258.735 63.878C258.024 64.5887 256.466 65.19 254.061 65.682C251.71 66.1193 247.965 66.338 242.827 66.338ZM269.124 64.944C268.468 64.944 267.785 64.8073 267.074 64.534C264.614 63.55 263.384 56.498 263.384 43.378C263.384 36.3807 263.849 31.2147 264.778 27.88L266.008 25.584C267.266 23.452 268.933 22.386 271.01 22.386C273.689 22.386 275.028 24.1627 275.028 27.716C275.028 28.7547 274.946 30.012 274.782 31.488C274.564 33.6747 274.454 36.2713 274.454 39.278C274.454 43.3233 274.728 47.806 275.274 52.726C275.548 54.4753 275.684 56.2247 275.684 57.974C275.684 59.6687 275.274 61.0353 274.454 62.074C273.634 63.058 272.705 63.796 271.666 64.288C270.628 64.7253 269.78 64.944 269.124 64.944ZM268.714 16.4C265.926 16.4 264.532 15.006 264.532 12.218C264.532 7.89935 265.708 4.94734 268.058 3.36201C269.37 2.54201 270.682 2.13201 271.994 2.13201C274.564 2.13201 275.848 3.41668 275.848 5.98601C275.848 6.53268 275.766 7.29801 275.602 8.28201C275.602 8.61001 275.63 8.85601 275.684 9.02001C275.684 11.2613 274.864 13.0653 273.224 14.432C271.639 15.744 270.136 16.4 268.714 16.4ZM295.693 57.072L295.611 56.99C295.611 57.0447 295.638 57.072 295.693 57.072ZM296.431 57.236C297.032 57.1267 297.415 56.9353 297.579 56.662C297.798 56.334 298.044 56.006 298.317 55.678C299.356 53.9833 299.984 50.7853 300.203 46.084C300.203 44.3893 300.094 42.968 299.875 41.82C298.891 35.9707 297.06 31.57 294.381 28.618C293.233 30.8047 292.304 32.964 291.593 35.096L291.265 35.916V36.08L291.429 35.67V35.834C290.937 36.4353 290.472 39.0867 290.035 43.788C290.035 46.6307 290.254 48.5987 290.691 49.692C290.691 49.856 290.718 49.9653 290.773 50.02C290.882 50.7307 291.374 51.9333 292.249 53.628C293.178 54.8853 294.272 55.9787 295.529 56.908C295.748 57.1267 296.048 57.236 296.431 57.236ZM290.363 65.928C286.427 65.928 283.475 63.6867 281.507 59.204C279.867 55.596 279.047 51.66 279.047 47.396C279.047 44.8267 279.457 41.656 280.277 37.884C281.152 34.0573 282.464 30.504 284.213 27.224C286.017 23.8893 288.286 21.5387 291.019 20.172C291.784 19.024 292.96 18.45 294.545 18.45C295.256 18.45 296.267 18.9967 297.579 20.09C298.946 21.1833 300.34 22.8233 301.761 25.01C303.237 27.142 304.494 29.766 305.533 32.882C306.572 35.9433 307.091 39.442 307.091 43.378C307.091 50.43 305.506 55.8693 302.335 59.696C298.891 63.8507 294.9 65.928 290.363 65.928ZM337.927 67.814C336.178 67.814 335.303 66.83 335.303 64.862C335.303 64.206 335.412 63.2767 335.631 62.074C336.068 59.5047 336.342 55.678 336.451 50.594C336.451 47.4233 335.986 43.9793 335.057 40.262C335.057 39.0593 333.991 36.408 331.859 32.308L331.941 32.226C331.886 32.226 331.804 32.1713 331.695 32.062C331.64 31.898 331.586 31.816 331.531 31.816L330.629 30.832C329.809 31.652 329.016 32.964 328.251 34.768C326.775 38.1573 325.244 44.9907 323.659 55.268C323.987 56.416 324.151 57.6187 324.151 58.876C324.151 61.008 323.413 62.73 321.937 64.042C320.461 65.354 318.903 66.01 317.263 66.01C317.154 66.0647 316.962 66.092 316.689 66.092C315.268 66.092 314.065 64.6433 313.081 61.746C311.496 57.3727 310.703 49.5007 310.703 38.13C310.703 34.03 311.086 30.9413 311.851 28.864C312.616 26.7867 313.518 25.3927 314.557 24.682C315.596 23.9713 316.58 23.616 317.509 23.616C320.078 23.616 321.445 26.4313 321.609 32.062C322.921 28.946 324.37 26.7047 325.955 25.338C327.595 23.9713 329.071 23.1513 330.383 22.878C331.75 22.55 332.597 22.386 332.925 22.386C335.604 22.4953 337.49 23.4247 338.583 25.174C339.731 26.9233 340.551 28.782 341.043 30.75C342.027 33.866 342.656 36.654 342.929 39.114C343.202 41.574 343.339 44.69 343.339 48.462C343.339 56.006 342.902 61.1173 342.027 63.796C341.152 66.4747 339.786 67.814 337.927 67.814ZM353.767 64.944C353.111 64.944 352.428 64.8073 351.717 64.534C349.257 63.55 348.027 56.498 348.027 43.378C348.027 36.3807 348.492 31.2147 349.421 27.88L350.651 25.584C351.908 23.452 353.576 22.386 355.653 22.386C358.332 22.386 359.671 24.1627 359.671 27.716C359.671 28.7547 359.589 30.012 359.425 31.488C359.206 33.6747 359.097 36.2713 359.097 39.278C359.097 43.3233 359.37 47.806 359.917 52.726C360.19 54.4753 360.327 56.2247 360.327 57.974C360.327 59.6687 359.917 61.0353 359.097 62.074C358.277 63.058 357.348 63.796 356.309 64.288C355.27 64.7253 354.423 64.944 353.767 64.944ZM353.357 16.4C350.569 16.4 349.175 15.006 349.175 12.218C349.175 7.89935 350.35 4.94734 352.701 3.36201C354.013 2.54201 355.325 2.13201 356.637 2.13201C359.206 2.13201 360.491 3.41668 360.491 5.98601C360.491 6.53268 360.409 7.29801 360.245 8.28201C360.245 8.61001 360.272 8.85601 360.327 9.02001C360.327 11.2613 359.507 13.0653 357.867 14.432C356.282 15.744 354.778 16.4 353.357 16.4Z" fill="#F5F9FF"/>
</g>
<defs>
<filter id="filter0_d_122_130" x="0" y="0" width="364.491" height="86.474" filterUnits="userSpaceOnUse" color-interpolation-filters="sRGB">
<feFlood flood-opacity="0" result="BackgroundImageFix"/>
<feColorMatrix in="SourceAlpha" type="matrix" values="0 0 0 0 0 0 0 0 0 0 0 0 0 0 0 0 0 0 127 0" result="hardAlpha"/>
<feOffset dy="4"/>
<feGaussianBlur stdDeviation="2"/>
<feComposite in2="hardAlpha" operator="out"/>
<feColorMatrix type="matrix" values="0 0 0 0 0 0 0 0 0 0 0 0 0 0 0 0 0 0 0.25 0"/>
<feBlend mode="normal" in2="BackgroundImageFix" result="effect1_dropShadow_122_130"/>
<feBlend mode="normal" in="SourceGraphic" in2="effect1_dropShadow_122_130" result="shape"/>
</filter>
</defs>
</svg>
