<svg width="533" height="74" viewBox="0 0 533 74" fill="none" xmlns="http://www.w3.org/2000/svg">
<path d="M8.69207 71.34C6.9974 71.34 5.57606 70.7387 4.42806 69.536C3.33473 68.388 2.46006 66.1193 1.80406 62.73C1.14806 59.286 0.683398 54.284 0.410065 47.724C0.136731 41.164 6.44922e-05 32.5813 6.44922e-05 21.976C6.44922e-05 18.2587 0.109398 14.76 0.328065 11.48C0.546731 8.14533 1.14806 5.46666 2.13206 3.44399C3.11606 1.36666 4.72873 0.327991 6.97007 0.327991C9.75807 0.327991 11.1521 3.36199 11.1521 9.42999L11.0701 14.76C11.0154 16.892 10.9881 19.3793 10.9881 22.222C10.9881 42.1753 11.6714 54.5847 13.0381 59.45C13.4207 61.0353 13.7487 61.8827 14.0221 61.992C14.0767 61.992 14.1041 62.0193 14.1041 62.074C23.0694 60.9807 27.6887 60.4067 27.9621 60.352C28.2901 60.2973 28.7274 60.27 29.2741 60.27C30.5861 60.27 31.2421 60.9533 31.2421 62.32C31.2421 62.976 30.9961 63.6593 30.5041 64.37C30.0667 65.026 29.3834 65.5453 28.4541 65.928C27.5247 66.256 23.6707 66.748 16.8921 67.404L14.3501 67.732C13.8034 68.7707 13.0107 69.618 11.9721 70.274C10.9334 70.9847 9.84006 71.34 8.69207 71.34ZM40.4946 40.672C42.1346 39.5787 43.2279 38.7587 43.7746 38.212C44.8679 36.9 45.5513 35.998 45.8246 35.506L46.1526 35.096C46.4259 34.4947 46.6446 34.0573 46.8086 33.784C46.9726 33.5107 47.1093 32.882 47.2186 31.898C47.1093 30.8047 46.8906 30.094 46.5626 29.766C46.2893 29.438 45.7426 29.2467 44.9226 29.192L43.6926 30.586L41.4786 35.506C41.3146 35.5607 41.0959 36.3533 40.8226 37.884C40.6039 39.4147 40.4946 40.344 40.4946 40.672ZM45.9066 68.962C45.8519 68.962 45.2506 68.8527 44.1026 68.634C42.9546 68.47 41.5606 68.0327 39.9206 67.322C38.2806 66.5567 36.6406 65.3813 35.0006 63.796C33.4153 62.156 32.0486 59.942 30.9006 57.154C29.8073 54.3113 29.2606 50.7033 29.2606 46.33C29.2606 39.934 30.7913 33.9753 33.8526 28.454C37.2419 22.4407 41.6699 19.434 47.1366 19.434C48.3939 19.434 49.6786 19.762 50.9906 20.418C52.3026 21.0193 53.3959 21.976 54.2706 23.288C55.1453 24.5453 55.5826 26.158 55.5826 28.126C55.5826 30.914 54.7353 33.6747 53.0406 36.408C51.4006 39.0867 49.4326 41.3827 47.1366 43.296C44.8406 45.1547 42.6539 46.33 40.5766 46.822C40.9593 49.2273 41.5333 51.25 42.2986 52.89C43.7199 55.8967 46.2893 58.0013 50.0066 59.204C51.8653 59.8053 52.9313 60.2427 53.2046 60.516L54.2706 60.926C55.0359 61.3087 55.4186 61.828 55.4186 62.484C55.4186 64.0693 54.3799 65.5453 52.3026 66.912C50.2799 68.2787 48.1479 68.962 45.9066 68.962ZM97.5858 68.388C96.3832 68.388 95.3172 67.9507 94.3878 67.076C93.1305 67.0213 92.5018 66.4473 92.5018 65.354C92.5018 64.698 92.7752 64.042 93.3218 63.386C92.8845 55.9513 92.6658 48.0793 92.6658 39.77C92.6658 24.026 93.3765 13.3113 94.7978 7.62599C92.1192 7.24333 90.7798 6.45066 90.7798 5.24799C90.7798 4.04533 91.5452 3.22533 93.0758 2.78799C94.6065 2.35066 96.4652 2.10466 98.6518 2.04999C99.3078 1.66733 99.9638 1.47599 100.62 1.47599C101.221 1.47599 101.768 1.61266 102.26 1.88599H102.752C103.025 1.88599 103.435 1.91333 103.982 1.96799C104.528 2.02266 105.02 2.18666 105.458 2.45999C105.95 2.73333 106.196 3.19799 106.196 3.85399C106.196 4.34599 106.032 4.86533 105.704 5.41199C105.376 5.90399 104.993 6.28666 104.556 6.55999V7.54399C104.556 9.12933 104.474 11.4253 104.31 14.432C103.872 19.9533 103.654 27.4973 103.654 37.064C103.654 44.0613 103.927 52.0427 104.474 61.008L107.836 60.844C109.804 60.844 110.788 61.5273 110.788 62.894C110.788 64.2607 110.323 65.2447 109.394 65.846C107.918 66.7753 105.512 67.24 102.178 67.24L100.866 67.322C99.6632 68.0327 98.5698 68.388 97.5858 68.388ZM124.131 54.284L124.049 53.71L124.131 54.284ZM122.655 67.978C118.828 67.978 116.149 66.3107 114.619 62.976C113.088 59.5867 112.323 54.612 112.323 48.052C112.323 42.3667 112.569 38.0207 113.061 35.014C113.717 30.422 115.056 27.1147 117.079 25.092C119.648 22.14 122.491 20.664 125.607 20.664C127.848 20.664 129.98 21.484 132.003 23.124C134.08 24.764 135.119 26.6773 135.119 28.864L135.037 30.176C135.037 30.996 134.654 31.816 133.889 32.636C133.178 33.4013 132.358 33.784 131.429 33.784C130.445 33.784 129.734 33.2647 129.297 32.226C128.914 31.9527 128.641 31.7067 128.477 31.488C128.203 31.1053 126.919 30.5313 124.623 29.766C123.748 33.3193 123.311 38.13 123.311 44.198C123.311 47.9153 123.557 51.1407 124.049 53.874C124.049 54.858 124.978 56.58 126.837 59.04L127.083 59.122C128.067 58.63 128.777 58.22 129.215 57.892C129.215 57.728 129.843 57.2087 131.101 56.334C132.413 55.4593 133.479 55.022 134.299 55.022C136.103 55.022 137.005 55.842 137.005 57.482C137.005 59.0127 136.13 60.598 134.381 62.238C132.686 63.878 130.691 65.2447 128.395 66.338C126.153 67.4313 124.24 67.978 122.655 67.978ZM154.17 58.548L154.088 58.466C154.088 58.5207 154.116 58.548 154.17 58.548ZM154.908 58.712C155.51 58.6027 155.892 58.4113 156.056 58.138C156.275 57.81 156.521 57.482 156.794 57.154C157.833 55.4593 158.462 52.2613 158.68 47.56C158.68 45.8653 158.571 44.444 158.352 43.296C157.368 37.4467 155.537 33.046 152.858 30.094C151.71 32.2807 150.781 34.44 150.07 36.572L149.742 37.392V37.556L149.906 37.146V37.31C149.414 37.9113 148.95 40.5627 148.512 45.264C148.512 48.1067 148.731 50.0747 149.168 51.168C149.168 51.332 149.196 51.4413 149.25 51.496C149.36 52.2067 149.852 53.4093 150.726 55.104C151.656 56.3613 152.749 57.4547 154.006 58.384C154.225 58.6027 154.526 58.712 154.908 58.712ZM148.84 67.404C144.904 67.404 141.952 65.1627 139.984 60.68C138.344 57.072 137.524 53.136 137.524 48.872C137.524 46.3027 137.934 43.132 138.754 39.36C139.629 35.5333 140.941 31.98 142.69 28.7C144.494 25.3653 146.763 23.0147 149.496 21.648C150.262 20.5 151.437 19.926 153.022 19.926C153.733 19.926 154.744 20.4727 156.056 21.566C157.423 22.6593 158.817 24.2993 160.238 26.486C161.714 28.618 162.972 31.242 164.01 34.358C165.049 37.4193 165.568 40.918 165.568 44.854C165.568 51.906 163.983 57.3453 160.812 61.172C157.368 65.3267 153.378 67.404 148.84 67.404ZM196.404 69.29C194.655 69.29 193.78 68.306 193.78 66.338C193.78 65.682 193.889 64.7527 194.108 63.55C194.545 60.9807 194.819 57.154 194.928 52.07C194.928 48.8993 194.463 45.4553 193.534 41.738C193.534 40.5353 192.468 37.884 190.336 33.784L190.418 33.702C190.363 33.702 190.281 33.6473 190.172 33.538C190.117 33.374 190.063 33.292 190.008 33.292L189.106 32.308C188.286 33.128 187.493 34.44 186.728 36.244C185.252 39.6333 183.721 46.4667 182.136 56.744C182.464 57.892 182.628 59.0947 182.628 60.352C182.628 62.484 181.89 64.206 180.414 65.518C178.938 66.83 177.38 67.486 175.74 67.486C175.631 67.5407 175.439 67.568 175.166 67.568C173.745 67.568 172.542 66.1193 171.558 63.222C169.973 58.8487 169.18 50.9767 169.18 39.606C169.18 35.506 169.563 32.4173 170.328 30.34C171.093 28.2627 171.995 26.8687 173.034 26.158C174.073 25.4473 175.057 25.092 175.986 25.092C178.555 25.092 179.922 27.9073 180.086 33.538C181.398 30.422 182.847 28.1807 184.432 26.814C186.072 25.4473 187.548 24.6273 188.86 24.354C190.227 24.026 191.074 23.862 191.402 23.862C194.081 23.9713 195.967 24.9007 197.06 26.65C198.208 28.3993 199.028 30.258 199.52 32.226C200.504 35.342 201.133 38.13 201.406 40.59C201.679 43.05 201.816 46.166 201.816 49.938C201.816 57.482 201.379 62.5933 200.504 65.272C199.629 67.9507 198.263 69.29 196.404 69.29ZM212.244 66.42C211.588 66.42 210.905 66.2833 210.194 66.01C207.734 65.026 206.504 57.974 206.504 44.854C206.504 37.8567 206.969 32.6907 207.898 29.356L209.128 27.06C210.386 24.928 212.053 23.862 214.13 23.862C216.809 23.862 218.148 25.6387 218.148 29.192C218.148 30.2307 218.066 31.488 217.902 32.964C217.684 35.1507 217.574 37.7473 217.574 40.754C217.574 44.7993 217.848 49.282 218.394 54.202C218.668 55.9513 218.804 57.7007 218.804 59.45C218.804 61.1447 218.394 62.5113 217.574 63.55C216.754 64.534 215.825 65.272 214.786 65.764C213.748 66.2013 212.9 66.42 212.244 66.42ZM211.834 17.876C209.046 17.876 207.652 16.482 207.652 13.694C207.652 9.37533 208.828 6.42333 211.178 4.83799C212.49 4.01799 213.802 3.60799 215.114 3.60799C217.684 3.60799 218.968 4.89266 218.968 7.46199C218.968 8.00866 218.886 8.77399 218.722 9.75799C218.722 10.086 218.75 10.332 218.804 10.496C218.804 12.7373 217.984 14.5413 216.344 15.908C214.759 17.22 213.256 17.876 211.834 17.876ZM234.959 54.284L234.877 53.71L234.959 54.284ZM233.483 67.978C229.656 67.978 226.978 66.3107 225.447 62.976C223.916 59.5867 223.151 54.612 223.151 48.052C223.151 42.3667 223.397 38.0207 223.889 35.014C224.545 30.422 225.884 27.1147 227.907 25.092C230.476 22.14 233.319 20.664 236.435 20.664C238.676 20.664 240.808 21.484 242.831 23.124C244.908 24.764 245.947 26.6773 245.947 28.864L245.865 30.176C245.865 30.996 245.482 31.816 244.717 32.636C244.006 33.4013 243.186 33.784 242.257 33.784C241.273 33.784 240.562 33.2647 240.125 32.226C239.742 31.9527 239.469 31.7067 239.305 31.488C239.032 31.1053 237.747 30.5313 235.451 29.766C234.576 33.3193 234.139 38.13 234.139 44.198C234.139 47.9153 234.385 51.1407 234.877 53.874C234.877 54.858 235.806 56.58 237.665 59.04L237.911 59.122C238.895 58.63 239.606 58.22 240.043 57.892C240.043 57.728 240.672 57.2087 241.929 56.334C243.241 55.4593 244.307 55.022 245.127 55.022C246.931 55.022 247.833 55.842 247.833 57.482C247.833 59.0127 246.958 60.598 245.209 62.238C243.514 63.878 241.519 65.2447 239.223 66.338C236.982 67.4313 235.068 67.978 233.483 67.978ZM256.552 68.798C255.459 68.798 254.557 68.4427 253.846 67.732C253.136 66.9667 252.534 65.436 252.042 63.14C250.676 56.8533 249.992 49.528 249.992 41.164C249.992 39.9067 250.047 37.802 250.156 34.85C250.32 31.898 250.621 28.618 251.058 25.01C251.496 21.402 252.124 17.9307 252.944 14.596C253.819 11.2613 254.94 8.50066 256.306 6.31399C257.728 4.07266 259.504 2.95199 261.636 2.95199C262.784 2.95199 263.632 3.38933 264.178 4.26399C264.78 5.08399 265.08 6.06799 265.08 7.216C265.08 8.36399 264.78 10.086 264.178 12.382C262.976 16.482 261.964 23.0693 261.144 32.144V32.964C261.035 33.1827 260.98 34.7133 260.98 37.556C260.98 39.4147 261.117 42.5033 261.39 46.822L261.472 46.412C263.167 41.492 264.889 37.392 266.638 34.112C269.973 27.6613 273.608 24.436 277.544 24.436C282.246 24.436 285.006 28.372 285.826 36.244C286.701 41.4373 287.138 46.1933 287.138 50.512C287.138 53.6827 287.002 56.6073 286.728 59.286C286.51 61.9647 285.881 64.1513 284.842 65.846C283.804 67.486 282.054 68.306 279.594 68.306C278.665 68.306 277.9 68.1147 277.298 67.732C276.752 67.2947 276.369 66.83 276.15 66.338C275.932 65.846 275.822 65.436 275.822 65.108C275.822 63.96 275.904 62.4567 276.068 60.598C276.396 57.318 276.56 52.316 276.56 45.592C276.56 39.524 276.396 35.834 276.068 34.522V34.194C275.904 33.9753 275.768 33.7567 275.658 33.538C275.604 33.2647 275.467 33.0187 275.248 32.8C273.936 34.2213 273.171 35.2327 272.952 35.834C272.843 35.9433 272.788 36.0253 272.788 36.08C270.766 39.9613 269.18 43.624 268.032 47.068C266.939 50.512 266.064 53.5733 265.408 56.252C264.752 58.876 264.096 61.1173 263.44 62.976C262.784 64.8347 261.937 66.2833 260.898 67.322C259.86 68.306 258.411 68.798 256.552 68.798ZM301.549 40.672C303.189 39.5787 304.283 38.7587 304.829 38.212C305.923 36.9 306.606 35.998 306.879 35.506L307.207 35.096C307.481 34.4947 307.699 34.0573 307.863 33.784C308.027 33.5107 308.164 32.882 308.273 31.898C308.164 30.8047 307.945 30.094 307.617 29.766C307.344 29.438 306.797 29.2467 305.977 29.192L304.747 30.586L302.533 35.506C302.369 35.5607 302.151 36.3533 301.877 37.884C301.659 39.4147 301.549 40.344 301.549 40.672ZM306.961 68.962C306.907 68.962 306.305 68.8527 305.157 68.634C304.009 68.47 302.615 68.0327 300.975 67.322C299.335 66.5567 297.695 65.3813 296.055 63.796C294.47 62.156 293.103 59.942 291.955 57.154C290.862 54.3113 290.315 50.7033 290.315 46.33C290.315 39.934 291.846 33.9753 294.907 28.454C298.297 22.4407 302.725 19.434 308.191 19.434C309.449 19.434 310.733 19.762 312.045 20.418C313.357 21.0193 314.451 21.976 315.325 23.288C316.2 24.5453 316.637 26.158 316.637 28.126C316.637 30.914 315.79 33.6747 314.095 36.408C312.455 39.0867 310.487 41.3827 308.191 43.296C305.895 45.1547 303.709 46.33 301.631 46.822C302.014 49.2273 302.588 51.25 303.353 52.89C304.775 55.8967 307.344 58.0013 311.061 59.204C312.92 59.8053 313.986 60.2427 314.259 60.516L315.325 60.926C316.091 61.3087 316.473 61.828 316.473 62.484C316.473 64.0693 315.435 65.5453 313.357 66.912C311.335 68.2787 309.203 68.962 306.961 68.962ZM367.825 38.786L372.827 37.064C373.592 36.6813 374.439 36.1347 375.369 35.424C375.587 35.2053 375.806 35.0687 376.025 35.014C377.391 33.9207 378.731 32.6633 380.043 31.242C382.065 29.11 383.787 26.076 385.209 22.14C386.411 18.86 387.013 15.9353 387.013 13.366C387.013 9.53933 385.865 7.62599 383.569 7.62599C381.218 7.62599 378.266 11.2067 374.713 18.368C371.925 23.9987 369.629 30.8047 367.825 38.786ZM357.575 73.226C356.536 73.226 355.607 72.9253 354.787 72.324C354.021 71.7227 353.557 70.848 353.393 69.7C352.627 62.7573 352.245 55.8967 352.245 49.118C352.245 46.6033 352.327 43.3233 352.491 39.278C352.709 35.178 353.065 30.8867 353.557 26.404C354.049 21.8667 354.732 17.6027 355.607 13.612C356.536 9.62133 357.711 6.36866 359.133 3.85399C360.554 1.28466 362.303 -9.53674e-06 364.381 -9.53674e-06C366.786 -9.53674e-06 367.989 1.36666 367.989 4.09999C367.989 5.68533 367.661 7.81733 367.005 10.496C366.13 14.1587 365.201 20.0627 364.217 28.208C366.239 21.8667 368.699 16.2633 371.597 11.398C375.806 4.40066 380.316 0.901994 385.127 0.901994C388.133 0.901994 390.347 2.07733 391.769 4.42799C393.19 6.77866 393.901 9.48466 393.901 12.546C393.901 22.1127 389.992 30.7227 382.175 38.376C379.004 41.5467 375.943 44.0067 372.991 45.756C370.039 47.4507 367.77 48.298 366.185 48.298C365.802 51.5233 365.556 54.366 365.447 56.826C365.283 60.0513 364.955 62.9487 364.463 65.518C364.463 68.0873 363.643 70.0007 362.003 71.258C360.363 72.57 358.887 73.226 357.575 73.226ZM400.988 66.42C400.332 66.42 399.649 66.2833 398.938 66.01C396.478 65.026 395.248 57.974 395.248 44.854C395.248 37.8567 395.713 32.6907 396.642 29.356L397.872 27.06C399.13 24.928 400.797 23.862 402.874 23.862C405.553 23.862 406.892 25.6387 406.892 29.192C406.892 30.2307 406.81 31.488 406.646 32.964C406.428 35.1507 406.318 37.7473 406.318 40.754C406.318 44.7993 406.592 49.282 407.138 54.202C407.412 55.9513 407.548 57.7007 407.548 59.45C407.548 61.1447 407.138 62.5113 406.318 63.55C405.498 64.534 404.569 65.272 403.53 65.764C402.492 66.2013 401.644 66.42 400.988 66.42ZM400.578 17.876C397.79 17.876 396.396 16.482 396.396 13.694C396.396 9.37533 397.572 6.42333 399.922 4.83799C401.234 4.01799 402.546 3.60799 403.858 3.60799C406.428 3.60799 407.712 4.89266 407.712 7.46199C407.712 8.00866 407.63 8.77399 407.466 9.75799C407.466 10.086 407.494 10.332 407.548 10.496C407.548 12.7373 406.728 14.5413 405.088 15.908C403.503 17.22 402 17.876 400.578 17.876ZM421.817 60.762C422.2 60.7073 422.528 60.68 422.801 60.68C423.074 60.68 423.238 60.6527 423.293 60.598C423.348 60.4887 423.43 60.4067 423.539 60.352C423.703 60.2973 424.359 59.942 425.507 59.286C425.726 59.1767 426.464 58.466 427.721 57.154C429.142 55.4047 430.017 54.1473 430.345 53.382C430.564 52.9447 430.728 52.6987 430.837 52.644C431.11 51.9333 431.247 51.0313 431.247 49.938C431.247 48.79 431.11 47.6693 430.837 46.576C430.618 45.428 430.345 44.69 430.017 44.362C429.47 44.0887 428.787 43.952 427.967 43.952C426.928 43.952 425.89 44.0887 424.851 44.362C423.812 44.5807 423.156 44.772 422.883 44.936C419.548 47.9427 417.881 51.0587 417.881 54.284C417.881 55.3773 417.99 56.2793 418.209 56.99C418.537 58.1927 418.865 59.0673 419.193 59.614C419.576 60.106 420.45 60.4887 421.817 60.762ZM439.447 69.946C437.042 69.946 435.62 68.6067 435.183 65.928C435.019 64.78 434.882 62.7847 434.773 59.942C430.072 65.6273 425.07 68.47 419.767 68.47C417.198 68.47 414.956 67.5133 413.043 65.6C411.13 63.6867 410.173 60.7893 410.173 56.908C410.173 51.7693 412.168 47.0407 416.159 42.722C420.15 38.3487 424.414 36.162 428.951 36.162C430.208 36.162 431.52 36.4353 432.887 36.982C432.45 35.67 431.903 34.4947 431.247 33.456C429.88 31.5973 428.896 30.504 428.295 30.176C427.748 29.848 427.12 29.52 426.409 29.192C424.058 28.0987 422.883 26.9233 422.883 25.666C422.883 24.7367 423.375 23.78 424.359 22.796C425.398 21.7573 426.792 21.238 428.541 21.238C431.876 21.238 434.636 22.386 436.823 24.682C439.01 26.9233 440.732 29.7933 441.989 33.292C443.301 36.736 444.258 40.3713 444.859 44.198C445.515 47.97 445.925 51.496 446.089 54.776C446.253 58.056 446.335 60.5433 446.335 62.238C446.335 64.2607 445.87 65.846 444.941 66.994C444.012 68.0873 443 68.8527 441.907 69.29C440.814 69.7273 439.994 69.946 439.447 69.946ZM459.814 67.814C459.486 67.814 458.912 67.814 458.092 67.814C457.326 67.7593 456.561 67.732 455.796 67.732C455.03 67.6773 454.429 67.5953 453.992 67.486L452.926 67.65C450.411 67.65 449.154 66.092 449.154 62.976C449.154 59.4227 455.14 48.1067 467.112 29.028C464.324 29.3013 462.055 29.5747 460.306 29.848C458.611 30.0667 457.326 30.176 456.452 30.176C455.358 30.176 454.538 29.93 453.992 29.438C453.445 28.8913 453.172 28.372 453.172 27.88C453.172 27.4427 453.281 27.0053 453.5 26.568C454.32 25.092 455.522 24.2173 457.108 23.944C457.982 23.78 462.082 23.4793 469.408 23.042C470.228 22.878 471.157 22.796 472.196 22.796L473.18 22.878C473.562 22.55 474.164 22.386 474.984 22.386C476.296 22.386 477.252 22.796 477.854 23.616C478.51 24.3813 478.838 25.2287 478.838 26.158C478.838 27.0873 478.564 28.0713 478.018 29.11C477.526 30.1487 476.569 31.816 475.148 34.112C473.234 37.1187 470.118 42.394 465.8 49.938C462.957 54.4207 460.989 58.4387 459.896 61.992C463.066 61.992 465.526 61.9373 467.276 61.828C469.025 61.664 470.392 61.5273 471.376 61.418C472.36 61.254 473.262 61.172 474.082 61.172C475.886 61.172 476.788 61.828 476.788 63.14C476.788 63.9053 476.432 64.6433 475.722 65.354C475.011 66.0647 473.453 66.666 471.048 67.158C468.697 67.5953 464.952 67.814 459.814 67.814ZM489.122 67.814C488.794 67.814 488.22 67.814 487.4 67.814C486.635 67.7593 485.87 67.732 485.104 67.732C484.339 67.6773 483.738 67.5953 483.3 67.486L482.234 67.65C479.72 67.65 478.462 66.092 478.462 62.976C478.462 59.4227 484.448 48.1067 496.42 29.028C493.632 29.3013 491.364 29.5747 489.614 29.848C487.92 30.0667 486.635 30.176 485.76 30.176C484.667 30.176 483.847 29.93 483.3 29.438C482.754 28.8913 482.48 28.372 482.48 27.88C482.48 27.4427 482.59 27.0053 482.808 26.568C483.628 25.092 484.831 24.2173 486.416 23.944C487.291 23.78 491.391 23.4793 498.716 23.042C499.536 22.878 500.466 22.796 501.504 22.796L502.488 22.878C502.871 22.55 503.472 22.386 504.292 22.386C505.604 22.386 506.561 22.796 507.162 23.616C507.818 24.3813 508.146 25.2287 508.146 26.158C508.146 27.0873 507.873 28.0713 507.326 29.11C506.834 30.1487 505.878 31.816 504.456 34.112C502.543 37.1187 499.427 42.394 495.108 49.938C492.266 54.4207 490.298 58.4387 489.204 61.992C492.375 61.992 494.835 61.9373 496.584 61.828C498.334 61.664 499.7 61.5273 500.684 61.418C501.668 61.254 502.57 61.172 503.39 61.172C505.194 61.172 506.096 61.828 506.096 63.14C506.096 63.9053 505.741 64.6433 505.03 65.354C504.32 66.0647 502.762 66.666 500.356 67.158C498.006 67.5953 494.261 67.814 489.122 67.814ZM517.6 40.672C519.24 39.5787 520.333 38.7587 520.88 38.212C521.973 36.9 522.657 35.998 522.93 35.506L523.258 35.096C523.531 34.4947 523.75 34.0573 523.914 33.784C524.078 33.5107 524.215 32.882 524.324 31.898C524.215 30.8047 523.996 30.094 523.668 29.766C523.395 29.438 522.848 29.2467 522.028 29.192L520.798 30.586L518.584 35.506C518.42 35.5607 518.201 36.3533 517.928 37.884C517.709 39.4147 517.6 40.344 517.6 40.672ZM523.012 68.962C522.957 68.962 522.356 68.8527 521.208 68.634C520.06 68.47 518.666 68.0327 517.026 67.322C515.386 66.5567 513.746 65.3813 512.106 63.796C510.521 62.156 509.154 59.942 508.006 57.154C506.913 54.3113 506.366 50.7033 506.366 46.33C506.366 39.934 507.897 33.9753 510.958 28.454C514.347 22.4407 518.775 19.434 524.242 19.434C525.499 19.434 526.784 19.762 528.096 20.418C529.408 21.0193 530.501 21.976 531.376 23.288C532.251 24.5453 532.688 26.158 532.688 28.126C532.688 30.914 531.841 33.6747 530.146 36.408C528.506 39.0867 526.538 41.3827 524.242 43.296C521.946 45.1547 519.759 46.33 517.682 46.822C518.065 49.2273 518.639 51.25 519.404 52.89C520.825 55.8967 523.395 58.0013 527.112 59.204C528.971 59.8053 530.037 60.2427 530.31 60.516L531.376 60.926C532.141 61.3087 532.524 61.828 532.524 62.484C532.524 64.0693 531.485 65.5453 529.408 66.912C527.385 68.2787 525.253 68.962 523.012 68.962Z" fill="#F5F9FF"/>
</svg>
