<?xml version="1.0" encoding="UTF-8"?>
<svg id="Layer_2" data-name="Layer 2" xmlns="http://www.w3.org/2000/svg" viewBox="0 0 147.2 144.29">
  <defs>
    <style>
      .cls-1 {
        fill: none;
        stroke: #000;
        stroke-linecap: round;
        stroke-linejoin: round;
        stroke-width: 6.26px;
      }
    </style>
  </defs>
  <g id="Icons">
    <g id="agrigento">
      <polyline class="cls-1" points="144.07 3.13 144.07 33.84 3.13 33.84 3.13 3.13"/>
      <line class="cls-1" x1="21.69" y1="141.17" x2="125.95" y2="141.17"/>
      <circle cx="73.82" cy="53.43" r="10.61"/>
      <line class="cls-1" x1="68.06" y1="108.8" x2="58.12" y2="136.88"/>
      <line class="cls-1" x1="79.46" y1="108.8" x2="89.4" y2="136.88"/>
      <path d="M73.82,68.01c-5.86,0-10.61,5.38-10.61,12.02v20.39c0,2.01,1.44,3.65,3.22,3.65h14.78c1.78,0,3.22-1.63,3.22-3.65v-20.39c0-6.64-4.75-12.02-10.61-12.02Z"/>
      <polyline class="cls-1" points="87.95 73.05 101.8 62.42 101.8 40.78"/>
      <polyline class="cls-1" points="59.7 73.05 45.85 62.42 45.85 40.78"/>
    </g>
  </g>
</svg>