<?xml version="1.0" encoding="UTF-8"?>
<svg id="Layer_2" data-name="Layer 2" xmlns="http://www.w3.org/2000/svg" viewBox="0 0 153.55 119.36">
  <defs>
    <style>
      .cls-1 {
        fill: none;
        stroke: #231f20;
        stroke-miterlimit: 10;
        stroke-width: 7px;
      }
    </style>
  </defs>
  <g id="Icons">
    <path id="catania" class="cls-1" d="M123.18,86.84c0-4.22-3.52-7.63-7.64-7.54-3.99.09-7.29,3.45-7.29,7.54v15.59c0,7.42-6.01,13.43-13.43,13.43h0c-7.42,0-13.43-6.01-13.43-13.43v-15.59c0-4.22-3.52-7.63-7.64-7.54-3.99.09-7.29,3.45-7.29,7.54v15.59c0,7.42-6.01,13.43-13.43,13.43h0c-7.42,0-13.43-6.01-13.43-13.43v-56.83c0,13.91-17.67,28.19-32.49,24.2M88.99,29.34c5.02-.19,22.34-.23,38.32,12.08,20.04,15.42,22.73,30.16,22.73,42.07M48.85,55.18h14.3c14.27,0,25.84-11.57,25.84-25.84h0c0-14.27-11.57-25.84-25.84-25.84h-14.3c-14.27,0-25.84,11.57-25.84,25.84h0v17.5c0,4.22-3.52,7.63-7.64,7.54-3.99-.09-7.29-3.45-7.29-7.54v-19.29M8.09,27.54c0-4.47-3.62-8.09-8.09-8.09M150.05,83.49v18.94c0,7.42-6.01,13.43-13.43,13.43h0c-7.42,0-13.43-6.01-13.43-13.43v-15.59M48.54,21.23c-1.14,0-2.06.92-2.06,2.06s.92,2.06,2.06,2.06,2.06-.92,2.06-2.06-.92-2.06-2.06-2.06Z"/>
  </g>
</svg>