<?xml version="1.0" encoding="UTF-8"?>
<svg id="Layer_2" data-name="Layer 2" xmlns="http://www.w3.org/2000/svg" viewBox="0 0 106.69 132.18">
  <defs>
    <style>
      .cls-1 {
        fill: none;
        stroke: #323333;
        stroke-linecap: round;
        stroke-linejoin: round;
        stroke-width: 6px;
      }
    </style>
  </defs>
  <g id="Icons">
    <path id="enna" class="cls-1" d="M79.28,41.98H27.41L10.88,21.13h84.92l-16.53,20.85ZM103.69,3H3v18.13h100.69V3ZM103.69,111.04H3v18.13h100.69v-18.13ZM79.28,65c.84-3.02,1.68-7.3,1.57-12.46-.09-4.26-.81-7.86-1.57-10.56M79.28,88.02c.88-2.54,1.87-6.34,1.93-11.03.07-5.17-1.02-9.33-1.93-11.99M79.28,111.04c.89-2.57,1.94-6.55,1.94-11.51s-1.05-8.94-1.94-11.51M27.41,41.98c-.75,2.7-1.47,6.29-1.57,10.56-.11,5.16.73,9.45,1.57,12.46M27.41,65c-.92,2.65-2,6.81-1.93,11.99.06,4.69,1.06,8.5,1.93,11.03M27.41,88.02c-.89,2.57-1.94,6.55-1.94,11.51s1.05,8.94,1.94,11.51M27.41,41.98c0,12.72,23.2,23.02,51.87,23.02M27.41,65c0,12.72,23.2,23.02,51.87,23.02M27.41,88.02c0,12.72,23.2,23.02,51.87,23.02"/>
  </g>
</svg>