<?xml version="1.0" encoding="UTF-8"?>
<svg id="Layer_2" data-name="Layer 2" xmlns="http://www.w3.org/2000/svg" viewBox="0 0 113.95 152.16">
  <g id="Icons">
    <g id="messina">
      <path d="M93.11,77.75c-1.32-2.31-3.99-4.7-6.94-3.14,5.73,23.05,20.98,21.14,20.53,32.07-3.12-.89-13.51-4.31-14.46,1.08l15.52,5.87c6.71-2.07,9.42-12.29.56-17.59-9.11-7.36-8.57-8.6-15.22-18.28Z"/>
      <path d="M85.26,90.84c2.26,2.19,9.79,10.78,3.93,12.31-6.92-9.16-15.92-14.55-26.09-20.23,3.22-7.68.48-11.86-3.74-18.35l-13.75-21.14c-6.64-8.77-7.66-34.82,7.51-32.52-21.7,24.67,19.18,45.2,17.24,69.06,5.48,3.27,10.45,6.57,14.9,10.87Z"/>
      <path d="M16.76,66.64c8.95.84,14.5,15.48,5.04,18.65,3.4-13.46-15.85-18.64-15.89-3.89,1.54,12.09,21.09,6.49,29.65.16,7.24-5.36,10.93-13.38,12.22-22.26,2.61,1.22,3.13,3.86,2.85,6.33-1.92,17.75-20.7,30.05-37.72,28.81-19.56-1.61-15.78-31.67,3.85-27.8Z"/>
      <path d="M77.81,32.59c-6.28-5.68-.68-12.48,6.74-12.61l.5-4.46-8.24-2.17c-1.08,2.63-2.11,4.32-5.1,3.46,1.65-13.3-14.02-12.82-22.95-9.85C50.22-1.58,61.97-.39,68.28.92c3.61.79,5.14,3.97,7.82,5.43,4.78,2.6,10.45,2.81,15.82,4.9l-2.16,14.96c-5.56-1.8-14.31.64-6.71,6.18-.86,1.73-3.47,1.49-5.23.21Z"/>
      <path d="M28.87,123.79c-2.77,1.66-4.02,4.2-3.84,7.3-5.27,1.68-5.07-10.05.26-12.13,4.84-2.44,11.27-6.3,17.79-12.28,6.59-6.04,11.01-12.18,13.86-16.83-.46,8.54-3.26,13.47-5.61,16.36-5.88,7.2-21.69,17.13-22.44,17.58Z"/>
      <path d="M5.92,139.45c3.92-.54,4.74,3.59,5.53,6.68l16.49-.02c2.74-5.56-3.87-5.17-7.47-3.93.22-9.14,20.39-7.79,12.26,9.96l-28.12.02,1.3-12.71Z"/>
      <path d="M22.14,98.55c-20.88,20.96-6,19.51-14.42,34.75-9.51-16.29,7.9-32.73,14.42-34.75Z"/>
      <path d="M80.71,73.71c-2.08.53-3.86-.11-4.93-1.94,10.38-4.96,16.68-16.25,11.31-27.46,14.27-1.4,6.57,28.29-6.38,29.4Z"/>
      <path d="M43.52,128.69c-.1,1.7,0,2.43-1.99,1.19-9.38-13.37,17.11-13.93,15.25-28.01,7.78,2.25,2.56,13.73-2.68,16.53-3.27,2.48-10.81,5.11-10.58,10.29Z"/>
      <path d="M36.22,151.06c-.97-5.34,6.47-5.97,10.3-6.18,2.45-5.77-4.13-4.81-7.78-3.91,1.58-9.8,20.59-6.64,12.35,10.14l-14.87-.06Z"/>
      <path d="M85.08,39.89c-1.87,1.92-4.49,2.58-7,1.96-8.09-2.01-10.99.8-15.86-1.72-2.55-1.38-3.36-4.41-1.2-6.59,6.16,6.61,9.19.18,17.62,3.42,2.22.85,4.37,0,6.24-1.13,1.21.6,1.39,2.85.21,4.07Z"/>
    </g>
  </g>
</svg>