<?xml version="1.0" encoding="UTF-8"?>
<svg id="Layer_2" data-name="Layer 2" xmlns="http://www.w3.org/2000/svg" viewBox="0 0 124.3 134.1">
  <defs>
    <style>
      .cls-1, .cls-2 {
        stroke-linecap: round;
        stroke-linejoin: round;
      }

      .cls-1, .cls-2, .cls-3 {
        fill: none;
        stroke: #000;
      }

      .cls-1, .cls-3 {
        stroke-width: 5px;
      }

      .cls-2 {
        stroke-width: 3px;
      }

      .cls-3 {
        stroke-miterlimit: 10;
      }
    </style>
  </defs>
  <g id="Icons">
    <g id="palermo">
      <path class="cls-3" d="M77.55,12l-.72-4.53c-6.68-8.3-16.08-4.8-23.31.3-5.99,4.23-13.87,4.63-20.05.59-2.77-1.81-9.24-6.08-12.09-3.65-4.55,3.87,3.61,16.58,1.3,16.49s-6.82-3.19-8.27-1.02c-2.28,3.42,1.99,9.47,4.77,12.52.35.39.74,1.57.51,2.01-.76,1.45-5.41-1.61-7.98-.52-1.48,3.87,7.43,16.17,10.25,18.99l3.6,3.27M79.85,49.38c6.06-2.83,9.47,2.05,16.9-.39,4.61-1.51,7.37-4.73,8.52-6.1,4.5-5.36,4.93-11.38,4.98-13.41.85-1.21,2.46-3.18,5.11-4.74,1.98-1.16,3.83-1.69,5.11-1.94-.5-.92-1.64-2.69-3.8-3.96-.83-.48-3.05-1.79-5.9-1.3-.62.1-1.88.4-3.15,1.3-2.2,1.57-2.98,3.98-3.28,4.86-1.62,4.8-4.54,13.42-9.56,16.06-2.33,1.22-4.56.88-8.35.29-7.22-1.12-12.39-4.8-15.2-7.21-.5-1.93-.08-4.2.73-6.03l5.42,1.28c1.5.35,3.16-.9,3.26-2.5l.4-6.72-3.5-6.87c-2.25,5.01-5.97,8.66-11.05,9.51l-3.34,12.26c-19.71,1.1-11.22,23.98-37.59,22.69,9.63,8.92,22.16-.18,30.73-7.32,2.57,3.83,1.82,8.58.73,12.68l-2.51,9.45c7.52,2.66,19.21,4.6,25.14-1.65-2.24-2.13-3.98-4.12-5.15-6.61-.74-1.59-1.41-2.96-1.39-4.68.05-3.74,3.29-7.34,6.74-8.95ZM54.51,71.27l-.7,2.52c-.59,3.51.68,7.33,2.24,10.59,5.66,11.76,16.98,12.63,20.33,21.5,1.51,3.99-.29,7.93-2.8,10.9-6.18,7.33-19.87,3.44-25.68-3.02.15-16.94-6.78-26.21-23.75-30.05-.92,8.51,2.19,17.04,5.57,24.41.22.48.33,1.33.32,1.67-.01.34-1.19.68-1.57.68-9.06-.12-17.69,2.68-24.89,8.85.96,1.04,2.42,2.45,4.46,3.77,5.14,3.32,10.31,3.7,14.32,3.95,5.07.31,7.8.48,11.09-.88,5.4-2.22,7.15-7.13,11.04-6.54,1.73.26,3.26,1.49,3.35,1.56,1.58,1.29,1.96,2.73,2.63,3.88,1.36,2.32,3.74,3.17,7.46,4.5,8.35,2.97,16.01,1.86,16.69,1.76,2.68-.41,8.37-1.36,13.78-5.52,9.64-7.42,10.74-19.18,10.96-21.47,1.25-13.37-6.19-22.93-8.39-25.4-2.7-3.04-5.83-5.29-9.18-7.7l-2.13-1.59"/>
      <path class="cls-1" d="M28.19,39.43c2.17.29,6.1.52,10.63-.97,3.35-1.1,5.8-2.75,7.33-3.97"/>
      <path class="cls-1" d="M37.17,22.22c2.14.48,6.04,1.04,10.68-.06,3.43-.81,6.01-2.24,7.64-3.33"/>
      <path class="cls-2" d="M62.85,82.98c1.61.81,3.09.91,3.84.91s2.23-.1,3.84-.91"/>
      <path class="cls-2" d="M79.85,83.43c1.61.81,3.09.91,3.84.91s2.23-.1,3.84-.91"/>
      <path class="cls-2" d="M72.17,90.84c1.61.81,3.09.91,3.84.91s2.23-.1,3.84-.91"/>
      <path class="cls-2" d="M84.69,98.45c1.61.81,3.09.91,3.84.91s2.23-.1,3.84-.91"/>
      <path class="cls-2" d="M82.69,111.64c1.71.56,3.18.44,3.94.33s2.19-.43,3.67-1.46"/>
    </g>
  </g>
</svg>