<?xml version="1.0" encoding="UTF-8"?>
<svg id="Layer_2" data-name="Layer 2" xmlns="http://www.w3.org/2000/svg" viewBox="0 0 126.35 136.55">
  <g id="check">
    <path d="M115.56,86.81H10.79v-8.88h104.77v8.88ZM119.05,94.66H7.3l-7.3,7.18v4.57h126.35v-4.57l-7.3-7.18ZM8.5,114.26v22.15h7.52v-3.16c0-7.04,5.7-12.74,12.74-12.74s12.74,5.7,12.74,12.74v3.16h8.94v-3.16c0-7.04,5.7-12.74,12.74-12.74s12.74,5.7,12.74,12.74v3.16h8.94v-3.16c0-7.04,5.7-12.74,12.74-12.74s12.74,5.7,12.74,12.74v3.16h7.52v-22.15H8.5ZM102.16,133.14v3.4h-9.13v-3.4c0-2.52,2.04-4.57,4.57-4.57s4.57,2.04,4.57,4.57ZM67.74,133.14v3.4h-9.13v-3.4c0-2.52,2.04-4.57,4.57-4.57s4.57,2.04,4.57,4.57ZM33.32,133.14v3.4h-9.13v-3.4c0-2.52,2.04-4.57,4.57-4.57s4.57,2.04,4.57,4.57ZM64.7,17.76V4c0-.84-1.01-3.49-1.52-4-.55.55-1.52,3.17-1.52,4v13.76c-28.22.81-50.86,23.92-50.86,52.34h104.77c0-28.42-22.64-51.54-50.86-52.34Z"/>
  </g>
</svg>