<?xml version="1.0" encoding="UTF-8"?>
<svg id="Layer_2" data-name="Layer 2" xmlns="http://www.w3.org/2000/svg" viewBox="0 0 120.83 153.14">
  <defs>
    <style>
      .cls-1 {
        fill: none;
        stroke: #000;
        stroke-miterlimit: 10;
        stroke-width: 4.55px;
      }
    </style>
  </defs>
  <g id="Icons">
    <path id="siracusa" class="cls-1" d="M94.05,97.82c-5.53.85-9.93,5.22-12.92,9.54-7.51,10.88-6.73,26.63-3.8,39.56-21.58-18.54-45.81-29.57-74.48-32.02,3.95-15.73,12.72-30.2,24.95-40.56-5.04-1.66-9.9-.61-14.75,1.61,4.85-7.48,14.24-12.3,23.17-13.26-9.98-5.63-15.35-16.45-14.16-27.84,5.64,13.16,17.61,17.2,31.22,18.92,5.19.66,10.12,1.18,15.25,2.2,10.61,2.1,21.83,6.42,29.96,13.63,2.12,1.88,2.63,4.46,2.51,7.25,3.62,1.38,7.34,2.56,10.63,4.48,9.04,5.28,8.18,15.59,3.33,23.57-.53-2.88-1.32-5.18-3.25-7.48-5.89.51-11.62-.54-17.67.39ZM86.58,78.34l-12.98-6.02c-.54,2.07.02,4.37,1.41,6.06,2.71,3.3,8.22,3.11,11.57-.04ZM63.57,47.38c4.23.51,9.49,1.52,15.31,3.55,6.3,2.2,11.38,4.93,15.17,7.34,5.18-9.83,10.36-19.65,15.54-29.48l-19.59,16.53-.57-20.02-12.02,15.22-3.38-29.07-10.46,35.94Z"/>
  </g>
</svg>