<?xml version="1.0" encoding="UTF-8"?>
<svg id="Layer_2" data-name="Layer 2" xmlns="http://www.w3.org/2000/svg" viewBox="0 0 134.68 120.16">
  <g id="Icons">
    <g id="trapani">
      <path d="M67.46,117.68c-5.12-.23-15.96,3.85-28.35,1.91-3.58-.56-6.53-2.65-7.38-6.31-.37-1.59,0-3.34.85-4.95l-15.31-6.19c-3.48-1.41-6.7-3.04-9.71-5.2s-5.06-4.66-6.52-7.89c-2.9-6.4.46-13.92,7.42-15.67C3.55,66.98.16,58.47,1.28,50.52c1.37-9.34,10.26-15.35,19.33-13.24-2.12-11.1,2.64-24.38,14.79-27.17,4.6-.95,9.09-.12,13.44,1.71,2.87-5.8,7.85-9.91,14.1-11.31,9.44-2.12,18.81,2.56,22.82,11.38,4.03-1.78,8.18-2.57,12.49-1.97,13.09,2.24,17.87,16.07,15.86,27.36,8.48-2.05,16.65,3.4,18.95,11.51,2.5,8.65-1.94,17.41-6.86,24.63,6.27,1.57,9.81,7.65,8.02,13.82s-6.78,10.24-12.52,12.94c-6.35,2.98-12.66,5.54-19.39,8.08,1.18,2,1.35,4.21.53,6.29-4.01,10.15-26.89,3.53-35.37,3.15ZM67.34,105.1l10.77-43.99c1.76-7.2,3.08-14.05,4.29-21.31.93-5.59,1.53-11,1.6-16.65s-1.8-10.36-5.48-14.14c-6.07-6.24-15.62-6.39-21.95-.4-4.05,3.83-6.07,9.13-5.91,14.83.18,6.69.97,13.06,2.18,19.66,1.84,10.03,3.85,19.7,6.35,29.61l8.15,32.38ZM63.12,106.4l-7.17-28.59c-2.97-11.82-5.48-23.43-7.66-35.4-1.25-6.84-2.94-20.08-1.08-26.51-7.74-3.71-17.19-1.8-20.8,6.68-5.44,12.78,2.84,30.77,9.06,42.33,7.52,13.96,18.07,30.84,27.65,41.5ZM80.94,94.55c7.79-11.19,14.72-22.49,20.8-34.52,3.42-6.75,5.99-13.57,7.59-20.91,1.16-5.33,1.13-10.65-.71-15.69-3.31-9.06-12.93-11.42-21.19-7.53,2.45,7.02-1.02,28.51-2.82,36.02l-12.99,54.34c3.37-3.69,6.33-7.43,9.32-11.71ZM38.45,97.6c6.9,5.44,14.25,9.31,22.33,12.77-4.02-4.54-7.92-9.4-11.59-14.74-7.5-10.9-14.3-22.02-20.25-33.83-3.25-6.44-5.68-12.9-7.46-19.86-3.42-1.09-7.21-1.11-10.33.85-4.55,2.87-6.6,8.28-5.71,13.56,1.13,6.7,5.11,12.95,9.39,18.16,7.02,8.55,14.78,16.13,23.61,23.09ZM120.83,73.28c4.31-5.36,8.35-12.45,8.57-19.25.15-4.43-2-8.72-5.69-11.11-3.17-2.05-7.01-2.14-10.52-.97-2.16,7.97-5.21,15.38-8.96,22.8-8.32,16.5-18.7,31.89-30.32,45.61,7.05-3.08,13.6-6.3,19.69-10.8,10.2-7.56,19.2-16.29,27.23-26.28ZM45.93,107.88c-13.24-7.9-24.27-18.42-34.24-30.32-3.46-.37-6.86,1.96-7.25,5.62-.62,5.86,4.97,10.41,9.74,12.72,10.23,4.97,20.73,8.92,31.76,11.97ZM116.19,97.94c5.75-2.55,11.69-5.35,13.75-11.52.78-2.35.42-4.69-1.14-6.59-1.32-1.6-3.48-2.55-5.83-2.25-9.6,11.49-21.19,22.41-33.99,30.23,9.44-2.58,18.23-5.89,27.22-9.87ZM56.08,114.87c-6.38-1.47-12.68-3.11-19.02-5.06-.76.53-1.21,1.64-1.06,2.58.12.72.81,1.81,1.65,2.22,4.02,1.98,13.67.94,18.44.26ZM98.95,112.38c.14-.95-.32-2.03-1.1-2.64-6.44,1.98-12.85,3.65-19.14,5.11,4.35.47,19.46,2.86,20.25-2.48Z"/>
    </g>
  </g>
</svg>