<svg width="324" height="91" viewBox="0 0 324 91" fill="none" xmlns="http://www.w3.org/2000/svg">
<path d="M7.68042 61.536C8.12842 61.408 9.28042 61.312 11.1364 61.248C15.6804 61.12 21.9524 60.576 29.9524 59.616C28.8004 44.704 27.7124 33.568 26.6884 26.208C25.5364 17.376 23.9044 11.904 21.7924 9.79201C21.6004 9.79201 20.7044 11.232 19.1044 14.112C17.5684 16.928 15.7444 22.08 13.6324 29.568C11.5204 36.992 9.53642 47.648 7.68042 61.536ZM36.3844 85.152C34.0164 85.152 32.5444 84.256 31.9684 82.464C31.3924 80.672 31.0404 77.44 30.9124 72.768L30.4324 65.952C24.1604 66.464 18.6884 66.816 14.0164 67.008C9.40842 67.2 7.04042 67.296 6.91242 67.296C6.20842 71.264 5.82442 73.888 5.76042 75.168C5.63242 76.064 5.18442 76.8 4.41642 77.376C3.64842 77.952 2.84842 78.24 2.01642 78.24C0.672422 78.24 0.000421911 77.536 0.000421911 76.128C0.000421911 68.512 0.576422 60.32 1.72842 51.552C2.94442 42.72 4.64042 34.432 6.81642 26.688C9.05642 18.88 11.7124 12.48 14.7844 7.48801C17.9204 2.49601 21.4084 7.62939e-06 25.2484 7.62939e-06C27.4884 7.62939e-06 29.5684 0.832006 31.4884 2.496C33.4724 4.16001 35.1364 6.52801 36.4804 9.6C37.6964 12.864 38.7844 18.08 39.7444 25.248C41.4084 37.344 42.8804 52.64 44.1604 71.136L44.5444 76.896C44.5444 79.264 43.5844 81.216 41.6644 82.752C39.8084 84.352 38.0484 85.152 36.3844 85.152ZM65.7919 51.36L67.5199 48.864L73.1839 33.024C72.5439 30.208 71.7759 28.064 70.8799 26.592C70.8799 26.4 70.5279 25.888 69.8239 25.056C69.1839 24.16 68.0959 23.264 66.5599 22.368L65.8879 22.272C65.0559 22.4 64.1279 23.136 63.1039 24.48C62.8479 24.8 62.2079 26.272 61.1839 28.896C60.6719 31.328 60.2879 33.76 60.0319 36.192C60.2239 39.968 60.6719 42.944 61.3759 45.12C61.9519 46.848 62.9759 48.512 64.4479 50.112C64.8319 50.56 65.0239 50.816 65.0239 50.88L65.7919 51.36ZM62.4319 90.432C60.8319 90.432 58.9439 90.176 56.7679 89.664C54.5919 89.152 52.6719 88.352 51.0079 87.264C49.4079 86.176 48.6079 84.768 48.6079 83.04C48.6079 81.696 49.3119 80.128 50.7199 78.336C52.1279 76.544 54.0479 75.648 56.4799 75.648C57.1199 75.648 57.5679 75.712 57.8239 75.84C58.1439 75.968 58.4639 76.16 58.7839 76.416C59.1679 76.608 59.6479 76.864 60.2239 77.184L67.6159 77.76C69.5359 76.992 70.5599 76.512 70.6879 76.32L72.1279 74.304C72.4479 73.984 72.9599 72.096 73.6639 68.64C74.2399 66.144 74.5279 63.36 74.5279 60.288L74.4319 53.184C72.1919 56.512 69.7599 58.816 67.1359 60.096C64.5759 61.376 62.3039 62.016 60.3199 62.016C59.1039 62.016 58.1759 61.856 57.5359 61.536C54.2719 60.192 51.9039 58.048 50.4319 55.104C48.3199 50.816 47.2639 46.048 47.2639 40.8C47.2639 35.488 48.5119 30.56 51.0079 26.016C52.0959 23.328 54.4639 20.256 58.1119 16.8C61.1839 13.92 64.5439 12.48 68.1919 12.48C70.8799 12.48 73.1519 13.344 75.0079 15.072C76.2239 12.448 78.4319 11.072 81.6319 10.944C82.1439 10.944 82.6559 11.136 83.1679 11.52C83.6799 11.84 84.1919 12.704 84.7039 14.112C85.2159 15.52 85.6639 17.792 86.0479 20.928C86.4959 24.064 86.8159 28.32 87.0079 33.696C87.2639 39.072 87.3919 45.984 87.3919 54.432L87.4879 56.736C87.4879 58.336 87.3279 60.512 87.0079 63.264C86.7519 66.016 86.1759 68.96 85.2799 72.096C84.4479 75.168 83.1039 78.08 81.2479 80.832C79.4559 83.648 77.0239 85.952 73.9519 87.744C70.9439 89.536 67.1039 90.432 62.4319 90.432ZM100.616 78.624H99.6559C98.1199 78.624 96.8719 77.152 95.9119 74.208C94.5679 69.856 93.8959 61.6 93.8959 49.44C93.8959 44.448 94.1199 39.456 94.5679 34.464C95.0799 28.32 96.1359 24.352 97.7359 22.56C99.5279 20.512 101.416 19.488 103.4 19.488C104.168 19.488 104.936 19.68 105.704 20.064H105.608C105.928 20.192 106.28 20.48 106.664 20.928C107.112 21.376 107.4 21.856 107.528 22.368C107.912 23.648 108.104 24.544 108.104 25.056C108.104 25.632 108.04 26.272 107.912 26.976C107.72 28.192 107.464 31.168 107.144 35.904C107.848 34.624 108.648 33.312 109.544 31.968C112.744 27.296 116.2 24.96 119.912 24.96C121.64 24.96 123.144 25.504 124.424 26.592C125.768 27.616 126.44 28.832 126.44 30.24C126.44 31.264 126.024 32.384 125.192 33.6C124.424 34.816 123.336 35.424 121.928 35.424C121.224 35.424 120.648 35.2 120.2 34.752C119.816 34.24 119.464 33.568 119.144 32.736L117.8 31.968C117.672 31.968 117.512 32 117.32 32.064C117.192 32.128 117.064 32.224 116.936 32.352C116.808 32.416 116.616 32.576 116.36 32.832C116.104 33.024 115.848 33.28 115.592 33.6C112.648 37.12 110.632 40.672 109.544 44.256C108.52 47.776 107.784 52.224 107.336 57.6C107.592 60.16 107.784 62.176 107.912 63.648C108.104 65.056 108.264 66.24 108.392 67.2C108.584 68.096 108.744 69.12 108.872 70.272C108.872 72.128 108.072 73.984 106.472 75.84C104.872 77.696 102.92 78.624 100.616 78.624ZM134.734 74.976C133.966 74.976 133.166 74.816 132.334 74.496C129.454 73.344 128.014 65.088 128.014 49.728C128.014 41.536 128.558 35.488 129.646 31.584L131.086 28.896C132.558 26.4 134.51 25.152 136.942 25.152C140.078 25.152 141.646 27.232 141.646 31.392C141.646 32.608 141.55 34.08 141.358 35.808C141.102 38.368 140.974 41.408 140.974 44.928C140.974 49.664 141.294 54.912 141.934 60.672C142.254 62.72 142.414 64.768 142.414 66.816C142.414 68.8 141.934 70.4 140.974 71.616C140.014 72.768 138.926 73.632 137.71 74.208C136.494 74.72 135.502 74.976 134.734 74.976ZM134.254 18.144C130.99 18.144 129.358 16.512 129.358 13.248C129.358 8.19201 130.734 4.73601 133.486 2.88C135.022 1.92001 136.558 1.44001 138.094 1.44001C141.102 1.44001 142.606 2.94401 142.606 5.95201C142.606 6.592 142.51 7.488 142.318 8.64001C142.318 9.02401 142.35 9.31201 142.414 9.50401C142.414 12.128 141.454 14.24 139.534 15.84C137.678 17.376 135.918 18.144 134.254 18.144ZM165.167 51.36L166.895 48.864L172.559 33.024C171.919 30.208 171.151 28.064 170.255 26.592C170.255 26.4 169.903 25.888 169.199 25.056C168.559 24.16 167.471 23.264 165.935 22.368L165.263 22.272C164.431 22.4 163.503 23.136 162.479 24.48C162.223 24.8 161.583 26.272 160.559 28.896C160.047 31.328 159.663 33.76 159.407 36.192C159.599 39.968 160.047 42.944 160.751 45.12C161.327 46.848 162.351 48.512 163.823 50.112C164.207 50.56 164.399 50.816 164.399 50.88L165.167 51.36ZM161.807 90.432C160.207 90.432 158.319 90.176 156.143 89.664C153.967 89.152 152.047 88.352 150.383 87.264C148.783 86.176 147.983 84.768 147.983 83.04C147.983 81.696 148.687 80.128 150.095 78.336C151.503 76.544 153.423 75.648 155.855 75.648C156.495 75.648 156.943 75.712 157.199 75.84C157.519 75.968 157.839 76.16 158.159 76.416C158.543 76.608 159.023 76.864 159.599 77.184L166.991 77.76C168.911 76.992 169.935 76.512 170.063 76.32L171.503 74.304C171.823 73.984 172.335 72.096 173.039 68.64C173.615 66.144 173.903 63.36 173.903 60.288L173.807 53.184C171.567 56.512 169.135 58.816 166.511 60.096C163.951 61.376 161.679 62.016 159.695 62.016C158.479 62.016 157.551 61.856 156.911 61.536C153.647 60.192 151.279 58.048 149.807 55.104C147.695 50.816 146.639 46.048 146.639 40.8C146.639 35.488 147.887 30.56 150.383 26.016C151.471 23.328 153.839 20.256 157.487 16.8C160.559 13.92 163.919 12.48 167.567 12.48C170.255 12.48 172.527 13.344 174.383 15.072C175.599 12.448 177.807 11.072 181.007 10.944C181.519 10.944 182.031 11.136 182.543 11.52C183.055 11.84 183.567 12.704 184.079 14.112C184.591 15.52 185.039 17.792 185.423 20.928C185.871 24.064 186.191 28.32 186.383 33.696C186.639 39.072 186.767 45.984 186.767 54.432L186.863 56.736C186.863 58.336 186.703 60.512 186.383 63.264C186.127 66.016 185.551 68.96 184.655 72.096C183.823 75.168 182.479 78.08 180.623 80.832C178.831 83.648 176.399 85.952 173.327 87.744C170.319 89.536 166.479 90.432 161.807 90.432ZM204.599 44.832C206.519 43.552 207.799 42.592 208.439 41.952C209.719 40.416 210.519 39.36 210.839 38.784L211.223 38.304C211.543 37.6 211.799 37.088 211.991 36.768C212.183 36.448 212.343 35.712 212.471 34.56C212.343 33.28 212.087 32.448 211.703 32.064C211.383 31.68 210.743 31.456 209.783 31.392L208.343 33.024L205.751 38.784C205.559 38.848 205.303 39.776 204.983 41.568C204.727 43.36 204.599 44.448 204.599 44.832ZM210.935 77.952C210.871 77.952 210.167 77.824 208.823 77.568C207.479 77.376 205.847 76.864 203.927 76.032C202.007 75.136 200.087 73.76 198.167 71.904C196.311 69.984 194.711 67.392 193.367 64.128C192.087 60.8 191.447 56.576 191.447 51.456C191.447 43.968 193.239 36.992 196.823 30.528C200.791 23.488 205.975 19.968 212.375 19.968C213.847 19.968 215.351 20.352 216.887 21.12C218.423 21.824 219.703 22.944 220.727 24.48C221.751 25.952 222.263 27.84 222.263 30.144C222.263 33.408 221.271 36.64 219.287 39.84C217.367 42.976 215.063 45.664 212.375 47.904C209.687 50.08 207.127 51.456 204.695 52.032C205.143 54.848 205.815 57.216 206.711 59.136C208.375 62.656 211.383 65.12 215.735 66.528C217.911 67.232 219.159 67.744 219.479 68.064L220.727 68.544C221.623 68.992 222.071 69.6 222.071 70.368C222.071 72.224 220.855 73.952 218.423 75.552C216.055 77.152 213.559 77.952 210.935 77.952ZM257.096 78.336C255.048 78.336 254.024 77.184 254.024 74.88C254.024 74.112 254.152 73.024 254.408 71.616C254.92 68.608 255.24 64.128 255.368 58.176C255.368 54.464 254.824 50.432 253.736 46.08C253.736 44.672 252.488 41.568 249.992 36.768L250.088 36.672C250.024 36.672 249.928 36.608 249.8 36.48C249.736 36.288 249.672 36.192 249.608 36.192L248.552 35.04C247.592 36 246.664 37.536 245.768 39.648C244.04 43.616 242.248 51.616 240.392 63.648C240.776 64.992 240.968 66.4 240.968 67.872C240.968 70.368 240.104 72.384 238.376 73.92C236.648 75.456 234.824 76.224 232.904 76.224C232.776 76.288 232.552 76.32 232.232 76.32C230.568 76.32 229.16 74.624 228.008 71.232C226.152 66.112 225.224 56.896 225.224 43.584C225.224 38.784 225.672 35.168 226.568 32.736C227.464 30.304 228.52 28.672 229.736 27.84C230.952 27.008 232.104 26.592 233.192 26.592C236.2 26.592 237.8 29.888 237.992 36.48C239.528 32.832 241.224 30.208 243.08 28.608C245 27.008 246.728 26.048 248.264 25.728C249.864 25.344 250.856 25.152 251.24 25.152C254.376 25.28 256.584 26.368 257.864 28.416C259.208 30.464 260.168 32.64 260.744 34.944C261.896 38.592 262.632 41.856 262.952 44.736C263.272 47.616 263.432 51.264 263.432 55.68C263.432 64.512 262.92 70.496 261.896 73.632C260.872 76.768 259.272 78.336 257.096 78.336ZM288.888 82.752C284.216 82.752 280.184 80.736 276.792 76.704L273.432 71.808C273.24 71.296 272.984 70.816 272.664 70.368C270.616 65.696 269.592 57.44 269.592 45.6C267.288 45.408 266.136 44.704 266.136 43.488C266.136 41.568 267.352 40.416 269.784 40.032C270.104 33.632 270.744 26.944 271.704 19.968C272.152 11.648 275.064 7.26401 280.44 6.81601C281.272 6.81601 282.072 7.00801 282.84 7.392C283.672 7.77601 284.248 8.48001 284.568 9.50401C284.888 10.464 285.048 11.52 285.048 12.672C285.048 14.272 284.728 17.28 284.088 21.696C283.512 26.112 282.968 32.288 282.456 40.224C282.904 40.288 283.384 40.32 283.896 40.32L285.72 40.224C288.472 40.224 289.848 40.96 289.848 42.432C289.848 43.136 289.56 43.84 288.984 44.544C288.472 45.248 287.864 45.728 287.16 45.984C286.456 46.176 285.688 46.272 284.856 46.272L282.456 46.176C282.712 51.488 283.256 57.024 284.088 62.784C284.28 65.024 284.472 66.592 284.664 67.488C284.92 68.384 285.336 69.44 285.912 70.656C287.576 72.768 288.664 73.888 289.176 74.016C289.304 74.08 289.496 74.208 289.752 74.4C290.072 74.528 290.296 74.624 290.424 74.688H290.616V74.784C291.448 74.912 292.312 75.008 293.208 75.072C294.744 75.264 295.512 76.224 295.512 77.952C295.448 78.976 295.064 79.872 294.36 80.64C293.72 81.472 292.92 82.016 291.96 82.272C291 82.592 289.976 82.752 288.888 82.752ZM310.12 65.76L310.024 65.664C310.024 65.728 310.056 65.76 310.12 65.76ZM310.984 65.952C311.688 65.824 312.136 65.6 312.328 65.28C312.584 64.896 312.872 64.512 313.192 64.128C314.408 62.144 315.144 58.4 315.4 52.896C315.4 50.912 315.272 49.248 315.016 47.904C313.864 41.056 311.72 35.904 308.584 32.448C307.24 35.008 306.152 37.536 305.32 40.032L304.936 40.992V41.184L305.128 40.704V40.896C304.552 41.6 304.008 44.704 303.496 50.208C303.496 53.536 303.752 55.84 304.264 57.12C304.264 57.312 304.296 57.44 304.36 57.504C304.488 58.336 305.064 59.744 306.088 61.728C307.176 63.2 308.456 64.48 309.928 65.568C310.184 65.824 310.536 65.952 310.984 65.952ZM303.88 76.128C299.272 76.128 295.816 73.504 293.512 68.256C291.592 64.032 290.632 59.424 290.632 54.432C290.632 51.424 291.112 47.712 292.072 43.296C293.096 38.816 294.632 34.656 296.68 30.816C298.792 26.912 301.448 24.16 304.648 22.56C305.544 21.216 306.92 20.544 308.776 20.544C309.608 20.544 310.792 21.184 312.328 22.464C313.928 23.744 315.56 25.664 317.224 28.224C318.952 30.72 320.424 33.792 321.64 37.44C322.856 41.024 323.464 45.12 323.464 49.728C323.464 57.984 321.608 64.352 317.896 68.832C313.864 73.696 309.192 76.128 303.88 76.128Z" fill="#F5F9FF"/>
</svg>
