<svg width="412" height="84" viewBox="0 0 412 84" fill="none" xmlns="http://www.w3.org/2000/svg">
<path d="M16.7991 80.256C13.5991 80.256 10.9111 79.04 8.73506 76.608C6.62306 74.176 4.92706 71.104 3.64706 67.392C2.36706 63.68 1.43906 59.808 0.863063 55.776C0.287063 51.744 -0.000937432 48.128 -0.000937432 44.928C-0.000937432 36.352 1.15106 28.896 3.45506 22.56C5.82306 16.224 8.76706 11.328 12.2871 7.87199C15.8711 4.41599 19.4231 2.68799 22.9431 2.68799C25.3751 2.68799 27.4551 3.32799 29.1831 4.60799C30.9111 5.88799 32.2871 7.45599 33.3111 9.31199C34.3991 11.168 35.1991 13.024 35.7111 14.88C36.2231 16.672 36.4791 18.048 36.4791 19.008C36.4791 19.328 36.3831 20 36.1911 21.024C36.0631 22.048 35.6791 23.008 35.0391 23.904C34.3991 24.8 33.4071 25.248 32.0631 25.248C31.0391 25.248 30.3351 24.864 29.9511 24.096C29.5671 23.264 29.2471 22.24 28.9911 21.024C28.6711 19.488 28.0631 17.824 27.1671 16.032C26.2711 14.176 24.6711 12.512 22.3671 11.04L21.7911 10.944C21.1511 11.008 20.6711 11.136 20.3511 11.328C20.0311 11.456 19.6151 11.744 19.1031 12.192L18.5271 12.768C17.8871 13.6 17.3431 14.624 16.8951 15.84C16.4471 16.992 16.0951 18.048 15.8391 19.008C15.6471 19.904 15.5511 20.384 15.5511 20.448L15.2631 21.792C13.7271 28.832 12.9591 35.68 12.9591 42.336C12.9591 48.288 13.7591 53.792 15.3591 58.848C16.9591 63.904 19.2951 67.424 22.3671 69.408L23.2311 68.736C25.0231 67.392 27.1671 63.52 29.6631 57.12C30.5591 54.496 31.4231 52.512 32.2551 51.168C33.1511 49.76 34.4631 49.056 36.1911 49.056C37.0231 49.056 37.7271 49.28 38.3031 49.728C38.8791 50.176 39.1671 50.848 39.1671 51.744C39.1671 52.32 38.8791 53.664 38.3031 55.776C37.7271 57.888 36.8631 60.32 35.7111 63.072C34.5591 65.76 33.0871 68.416 31.2951 71.04C29.5031 73.664 27.3911 75.872 24.9591 77.664C22.5911 79.392 19.8711 80.256 16.7991 80.256ZM53.8318 69.6C54.2798 69.536 54.6638 69.504 54.9838 69.504C55.3038 69.504 55.4958 69.472 55.5598 69.408C55.6238 69.28 55.7198 69.184 55.8478 69.12C56.0398 69.056 56.8078 68.64 58.1518 67.872C58.4078 67.744 59.2718 66.912 60.7438 65.376C62.4078 63.328 63.4318 61.856 63.8158 60.96C64.0718 60.448 64.2638 60.16 64.3918 60.096C64.7118 59.264 64.8718 58.208 64.8718 56.928C64.8718 55.584 64.7118 54.272 64.3918 52.992C64.1358 51.648 63.8158 50.784 63.4318 50.4C62.7918 50.08 61.9918 49.92 61.0318 49.92C59.8158 49.92 58.5998 50.08 57.3838 50.4C56.1678 50.656 55.3998 50.88 55.0798 51.072C51.1758 54.592 49.2238 58.24 49.2238 62.016C49.2238 63.296 49.3518 64.352 49.6078 65.184C49.9918 66.592 50.3758 67.616 50.7598 68.256C51.2078 68.832 52.2318 69.28 53.8318 69.6ZM74.4718 80.352C71.6558 80.352 69.9918 78.784 69.4798 75.648C69.2878 74.304 69.1278 71.968 68.9998 68.64C63.4958 75.296 57.6398 78.624 51.4318 78.624C48.4238 78.624 45.7998 77.504 43.5598 75.264C41.3198 73.024 40.1998 69.632 40.1998 65.088C40.1998 59.072 42.5358 53.536 47.2078 48.48C51.8798 43.36 56.8718 40.8 62.1838 40.8C63.6558 40.8 65.1918 41.12 66.7918 41.76C66.2798 40.224 65.6398 38.848 64.8718 37.632C63.2718 35.456 62.1198 34.176 61.4158 33.792C60.7758 33.408 60.0398 33.024 59.2078 32.64C56.4558 31.36 55.0798 29.984 55.0798 28.512C55.0798 27.424 55.6558 26.304 56.8078 25.152C58.0238 23.936 59.6558 23.328 61.7038 23.328C65.6078 23.328 68.8398 24.672 71.3998 27.36C73.9598 29.984 75.9758 33.344 77.4478 37.44C78.9838 41.472 80.1038 45.728 80.8078 50.208C81.5758 54.624 82.0558 58.752 82.2478 62.592C82.4398 66.432 82.5358 69.344 82.5358 71.328C82.5358 73.696 81.9918 75.552 80.9038 76.896C79.8158 78.176 78.6318 79.072 77.3518 79.584C76.0718 80.096 75.1118 80.352 74.4718 80.352ZM93.8578 79.104C92.8978 79.104 92.0018 78.88 91.1698 78.432C90.4018 77.984 89.7298 76.896 89.1538 75.168C88.6418 73.44 88.2258 70.72 87.9058 67.008C87.5858 63.232 87.4258 58.08 87.4258 51.552C87.4258 42.976 88.0978 33.76 89.4418 23.904C90.8498 13.216 92.6738 6.11199 94.9138 2.59199C96.0018 0.863993 97.4738 -7.62939e-06 99.3298 -7.62939e-06C100.738 -7.62939e-06 101.602 0.447992 101.922 1.34399C102.242 2.17599 102.466 3.35999 102.594 4.89599C102.594 5.79199 101.986 11.488 100.77 21.984C100.386 25.888 100.194 31.424 100.194 38.592C100.194 49.728 100.546 58.688 101.25 65.472C101.506 67.072 101.634 68.608 101.634 70.08C101.634 72.128 101.186 73.824 100.29 75.168C99.3938 76.448 98.3378 77.408 97.1218 78.048C95.9698 78.752 94.8818 79.104 93.8578 79.104ZM127.351 84C122.679 84 118.647 81.984 115.255 77.952L111.895 73.056C111.703 72.544 111.447 72.064 111.127 71.616C109.079 66.944 108.055 58.688 108.055 46.848C105.751 46.656 104.599 45.952 104.599 44.736C104.599 42.816 105.815 41.664 108.247 41.28C108.567 34.88 109.207 28.192 110.167 21.216C110.615 12.896 113.527 8.51199 118.903 8.06399C119.735 8.06399 120.535 8.25599 121.303 8.63999C122.135 9.02399 122.711 9.72799 123.031 10.752C123.351 11.712 123.511 12.768 123.511 13.92C123.511 15.52 123.191 18.528 122.551 22.944C121.975 27.36 121.431 33.536 120.919 41.472C121.367 41.536 121.847 41.568 122.359 41.568L124.183 41.472C126.935 41.472 128.311 42.208 128.311 43.68C128.311 44.384 128.023 45.088 127.447 45.792C126.935 46.496 126.327 46.976 125.623 47.232C124.919 47.424 124.151 47.52 123.319 47.52L120.919 47.424C121.175 52.736 121.719 58.272 122.551 64.032C122.743 66.272 122.935 67.84 123.127 68.736C123.383 69.632 123.799 70.688 124.375 71.904C126.039 74.016 127.127 75.136 127.639 75.264C127.767 75.328 127.959 75.456 128.215 75.648C128.535 75.776 128.759 75.872 128.887 75.936H129.079V76.032C129.911 76.16 130.775 76.256 131.671 76.32C133.207 76.512 133.975 77.472 133.975 79.2C133.911 80.224 133.527 81.12 132.823 81.888C132.183 82.72 131.383 83.264 130.423 83.52C129.463 83.84 128.439 84 127.351 84ZM144.301 69.6C144.749 69.536 145.133 69.504 145.453 69.504C145.773 69.504 145.965 69.472 146.029 69.408C146.093 69.28 146.189 69.184 146.317 69.12C146.509 69.056 147.277 68.64 148.621 67.872C148.877 67.744 149.741 66.912 151.213 65.376C152.877 63.328 153.901 61.856 154.285 60.96C154.541 60.448 154.733 60.16 154.861 60.096C155.181 59.264 155.341 58.208 155.341 56.928C155.341 55.584 155.181 54.272 154.861 52.992C154.605 51.648 154.285 50.784 153.901 50.4C153.261 50.08 152.461 49.92 151.501 49.92C150.285 49.92 149.069 50.08 147.853 50.4C146.637 50.656 145.869 50.88 145.549 51.072C141.645 54.592 139.693 58.24 139.693 62.016C139.693 63.296 139.821 64.352 140.077 65.184C140.461 66.592 140.845 67.616 141.229 68.256C141.677 68.832 142.701 69.28 144.301 69.6ZM164.941 80.352C162.125 80.352 160.461 78.784 159.949 75.648C159.757 74.304 159.597 71.968 159.469 68.64C153.965 75.296 148.109 78.624 141.901 78.624C138.893 78.624 136.269 77.504 134.029 75.264C131.789 73.024 130.669 69.632 130.669 65.088C130.669 59.072 133.005 53.536 137.677 48.48C142.349 43.36 147.341 40.8 152.653 40.8C154.125 40.8 155.661 41.12 157.261 41.76C156.749 40.224 156.109 38.848 155.341 37.632C153.741 35.456 152.589 34.176 151.885 33.792C151.245 33.408 150.509 33.024 149.677 32.64C146.925 31.36 145.549 29.984 145.549 28.512C145.549 27.424 146.125 26.304 147.277 25.152C148.493 23.936 150.125 23.328 152.173 23.328C156.077 23.328 159.309 24.672 161.869 27.36C164.429 29.984 166.445 33.344 167.917 37.44C169.453 41.472 170.573 45.728 171.277 50.208C172.045 54.624 172.525 58.752 172.717 62.592C172.909 66.432 173.005 69.344 173.005 71.328C173.005 73.696 172.461 75.552 171.373 76.896C170.285 78.176 169.101 79.072 167.821 79.584C166.541 80.096 165.581 80.352 164.941 80.352ZM208.903 79.584C206.855 79.584 205.831 78.432 205.831 76.128C205.831 75.36 205.959 74.272 206.215 72.864C206.727 69.856 207.047 65.376 207.175 59.424C207.175 55.712 206.631 51.68 205.543 47.328C205.543 45.92 204.295 42.816 201.799 38.016L201.895 37.92C201.831 37.92 201.735 37.856 201.607 37.728C201.543 37.536 201.479 37.44 201.415 37.44L200.359 36.288C199.399 37.248 198.471 38.784 197.575 40.896C195.847 44.864 194.055 52.864 192.199 64.896C192.583 66.24 192.775 67.648 192.775 69.12C192.775 71.616 191.911 73.632 190.183 75.168C188.455 76.704 186.631 77.472 184.711 77.472C184.583 77.536 184.359 77.568 184.039 77.568C182.375 77.568 180.967 75.872 179.815 72.48C177.959 67.36 177.031 58.144 177.031 44.832C177.031 40.032 177.479 36.416 178.375 33.984C179.271 31.552 180.327 29.92 181.543 29.088C182.759 28.256 183.911 27.84 184.999 27.84C188.007 27.84 189.607 31.136 189.799 37.728C191.335 34.08 193.031 31.456 194.887 29.856C196.807 28.256 198.535 27.296 200.071 26.976C201.671 26.592 202.663 26.4 203.047 26.4C206.183 26.528 208.391 27.616 209.671 29.664C211.015 31.712 211.975 33.888 212.551 36.192C213.703 39.84 214.439 43.104 214.759 45.984C215.079 48.864 215.239 52.512 215.239 56.928C215.239 65.76 214.727 71.744 213.703 74.88C212.679 78.016 211.079 79.584 208.903 79.584ZM227.447 76.224C226.679 76.224 225.879 76.064 225.047 75.744C222.167 74.592 220.727 66.336 220.727 50.976C220.727 42.784 221.271 36.736 222.359 32.832L223.799 30.144C225.271 27.648 227.223 26.4 229.655 26.4C232.791 26.4 234.359 28.48 234.359 32.64C234.359 33.856 234.263 35.328 234.071 37.056C233.815 39.616 233.687 42.656 233.687 46.176C233.687 50.912 234.007 56.16 234.647 61.92C234.967 63.968 235.127 66.016 235.127 68.064C235.127 70.048 234.647 71.648 233.687 72.864C232.727 74.016 231.639 74.88 230.423 75.456C229.207 75.968 228.215 76.224 227.447 76.224ZM226.967 19.392C223.703 19.392 222.071 17.76 222.071 14.496C222.071 9.43999 223.447 5.98399 226.199 4.12799C227.735 3.16799 229.271 2.68799 230.807 2.68799C233.815 2.68799 235.319 4.19199 235.319 7.19999C235.319 7.83999 235.223 8.73599 235.031 9.88799C235.031 10.272 235.063 10.56 235.127 10.752C235.127 13.376 234.167 15.488 232.247 17.088C230.391 18.624 228.631 19.392 226.967 19.392ZM245.429 78.144C241.717 78.144 239.861 76.576 239.861 73.44C239.861 72.416 240.213 71.168 240.917 69.696C242.133 67.264 244.405 65.888 247.733 65.568C247.861 64.736 247.925 64.032 247.925 63.456C247.925 61.472 247.765 60.32 247.445 60V59.904C247.445 58.88 246.485 56.448 244.565 52.608C242.517 48.384 240.885 44.192 239.669 40.032C238.517 35.808 237.941 32.576 237.941 30.336C237.941 27.136 238.581 24.48 239.861 22.368C241.205 20.256 242.773 18.688 244.565 17.664C246.357 16.576 247.925 16.032 249.269 16.032C252.021 16.032 253.397 17.12 253.397 19.296C253.397 21.088 252.213 22.528 249.845 23.616C249.141 24.064 248.661 24.352 248.405 24.48C248.213 24.608 248.085 24.736 248.021 24.864C247.957 24.928 247.861 25.024 247.733 25.152C247.669 25.28 247.573 26.016 247.445 27.36C247.445 27.936 247.445 28.256 247.445 28.32C247.509 28.32 247.541 28.416 247.541 28.608C247.541 28.736 247.637 29.376 247.829 30.528C248.469 32.832 249.333 34.752 250.421 36.288C250.613 36.352 251.541 37.536 253.205 39.84C258.261 46.816 260.789 53.504 260.789 59.904C260.789 64.128 259.893 67.584 258.101 70.272C256.309 72.96 254.197 74.944 251.765 76.224C249.397 77.504 247.285 78.144 245.429 78.144ZM267.273 78.144C263.561 78.144 261.705 76.576 261.705 73.44C261.705 72.416 262.057 71.168 262.761 69.696C263.977 67.264 266.249 65.888 269.577 65.568C269.705 64.736 269.769 64.032 269.769 63.456C269.769 61.472 269.609 60.32 269.289 60V59.904C269.289 58.88 268.329 56.448 266.409 52.608C264.361 48.384 262.729 44.192 261.513 40.032C260.361 35.808 259.785 32.576 259.785 30.336C259.785 27.136 260.425 24.48 261.705 22.368C263.049 20.256 264.617 18.688 266.409 17.664C268.201 16.576 269.769 16.032 271.113 16.032C273.865 16.032 275.241 17.12 275.241 19.296C275.241 21.088 274.057 22.528 271.689 23.616C270.985 24.064 270.505 24.352 270.249 24.48C270.057 24.608 269.929 24.736 269.865 24.864C269.801 24.928 269.705 25.024 269.577 25.152C269.513 25.28 269.417 26.016 269.289 27.36C269.289 27.936 269.289 28.256 269.289 28.32C269.353 28.32 269.385 28.416 269.385 28.608C269.385 28.736 269.481 29.376 269.673 30.528C270.313 32.832 271.177 34.752 272.265 36.288C272.457 36.352 273.385 37.536 275.049 39.84C280.105 46.816 282.633 53.504 282.633 59.904C282.633 64.128 281.737 67.584 279.945 70.272C278.153 72.96 276.041 74.944 273.609 76.224C271.241 77.504 269.129 78.144 267.273 78.144ZM299.093 46.08C301.013 44.8 302.293 43.84 302.933 43.2C304.213 41.664 305.013 40.608 305.333 40.032L305.717 39.552C306.037 38.848 306.293 38.336 306.485 38.016C306.677 37.696 306.837 36.96 306.965 35.808C306.837 34.528 306.581 33.696 306.197 33.312C305.877 32.928 305.237 32.704 304.277 32.64L302.837 34.272L300.245 40.032C300.053 40.096 299.797 41.024 299.477 42.816C299.221 44.608 299.093 45.696 299.093 46.08ZM305.429 79.2C305.365 79.2 304.661 79.072 303.317 78.816C301.973 78.624 300.341 78.112 298.421 77.28C296.501 76.384 294.581 75.008 292.661 73.152C290.805 71.232 289.205 68.64 287.861 65.376C286.581 62.048 285.941 57.824 285.941 52.704C285.941 45.216 287.733 38.24 291.317 31.776C295.285 24.736 300.469 21.216 306.869 21.216C308.341 21.216 309.845 21.6 311.381 22.368C312.917 23.072 314.197 24.192 315.221 25.728C316.245 27.2 316.757 29.088 316.757 31.392C316.757 34.656 315.765 37.888 313.781 41.088C311.861 44.224 309.557 46.912 306.869 49.152C304.181 51.328 301.621 52.704 299.189 53.28C299.637 56.096 300.309 58.464 301.205 60.384C302.869 63.904 305.877 66.368 310.229 67.776C312.405 68.48 313.653 68.992 313.973 69.312L315.221 69.792C316.117 70.24 316.565 70.848 316.565 71.616C316.565 73.472 315.349 75.2 312.917 76.8C310.549 78.4 308.053 79.2 305.429 79.2ZM340.07 84C335.398 84 331.366 81.984 327.974 77.952L324.614 73.056C324.422 72.544 324.166 72.064 323.846 71.616C321.798 66.944 320.774 58.688 320.774 46.848C318.47 46.656 317.318 45.952 317.318 44.736C317.318 42.816 318.534 41.664 320.966 41.28C321.286 34.88 321.926 28.192 322.886 21.216C323.334 12.896 326.246 8.51199 331.622 8.06399C332.454 8.06399 333.254 8.25599 334.022 8.63999C334.854 9.02399 335.43 9.72799 335.75 10.752C336.07 11.712 336.23 12.768 336.23 13.92C336.23 15.52 335.91 18.528 335.27 22.944C334.694 27.36 334.15 33.536 333.638 41.472C334.086 41.536 334.566 41.568 335.078 41.568L336.902 41.472C339.654 41.472 341.03 42.208 341.03 43.68C341.03 44.384 340.742 45.088 340.166 45.792C339.654 46.496 339.046 46.976 338.342 47.232C337.638 47.424 336.87 47.52 336.038 47.52L333.638 47.424C333.894 52.736 334.438 58.272 335.27 64.032C335.462 66.272 335.654 67.84 335.846 68.736C336.102 69.632 336.518 70.688 337.094 71.904C338.758 74.016 339.846 75.136 340.358 75.264C340.486 75.328 340.678 75.456 340.934 75.648C341.254 75.776 341.478 75.872 341.606 75.936H341.798V76.032C342.63 76.16 343.494 76.256 344.39 76.32C345.926 76.512 346.694 77.472 346.694 79.2C346.63 80.224 346.246 81.12 345.542 81.888C344.902 82.72 344.102 83.264 343.142 83.52C342.182 83.84 341.158 84 340.07 84ZM365.851 84C361.179 84 357.147 81.984 353.755 77.952L350.395 73.056C350.203 72.544 349.947 72.064 349.627 71.616C347.579 66.944 346.555 58.688 346.555 46.848C344.251 46.656 343.099 45.952 343.099 44.736C343.099 42.816 344.315 41.664 346.747 41.28C347.067 34.88 347.707 28.192 348.667 21.216C349.115 12.896 352.027 8.51199 357.403 8.06399C358.235 8.06399 359.035 8.25599 359.803 8.63999C360.635 9.02399 361.211 9.72799 361.531 10.752C361.851 11.712 362.011 12.768 362.011 13.92C362.011 15.52 361.691 18.528 361.051 22.944C360.475 27.36 359.931 33.536 359.419 41.472C359.867 41.536 360.347 41.568 360.859 41.568L362.683 41.472C365.435 41.472 366.811 42.208 366.811 43.68C366.811 44.384 366.523 45.088 365.947 45.792C365.435 46.496 364.827 46.976 364.123 47.232C363.419 47.424 362.651 47.52 361.819 47.52L359.419 47.424C359.675 52.736 360.219 58.272 361.051 64.032C361.243 66.272 361.435 67.84 361.627 68.736C361.883 69.632 362.299 70.688 362.875 71.904C364.539 74.016 365.627 75.136 366.139 75.264C366.267 75.328 366.459 75.456 366.715 75.648C367.035 75.776 367.259 75.872 367.387 75.936H367.579V76.032C368.411 76.16 369.275 76.256 370.171 76.32C371.707 76.512 372.475 77.472 372.475 79.2C372.411 80.224 372.027 81.12 371.323 81.888C370.683 82.72 369.883 83.264 368.923 83.52C367.963 83.84 366.939 84 365.851 84ZM382.801 69.6C383.249 69.536 383.633 69.504 383.953 69.504C384.273 69.504 384.465 69.472 384.529 69.408C384.593 69.28 384.689 69.184 384.817 69.12C385.009 69.056 385.777 68.64 387.121 67.872C387.377 67.744 388.241 66.912 389.713 65.376C391.377 63.328 392.401 61.856 392.785 60.96C393.041 60.448 393.233 60.16 393.361 60.096C393.681 59.264 393.841 58.208 393.841 56.928C393.841 55.584 393.681 54.272 393.361 52.992C393.105 51.648 392.785 50.784 392.401 50.4C391.761 50.08 390.961 49.92 390.001 49.92C388.785 49.92 387.569 50.08 386.353 50.4C385.137 50.656 384.369 50.88 384.049 51.072C380.145 54.592 378.193 58.24 378.193 62.016C378.193 63.296 378.321 64.352 378.577 65.184C378.961 66.592 379.345 67.616 379.729 68.256C380.177 68.832 381.201 69.28 382.801 69.6ZM403.441 80.352C400.625 80.352 398.961 78.784 398.449 75.648C398.257 74.304 398.097 71.968 397.969 68.64C392.465 75.296 386.609 78.624 380.401 78.624C377.393 78.624 374.769 77.504 372.529 75.264C370.289 73.024 369.169 69.632 369.169 65.088C369.169 59.072 371.505 53.536 376.177 48.48C380.849 43.36 385.841 40.8 391.153 40.8C392.625 40.8 394.161 41.12 395.761 41.76C395.249 40.224 394.609 38.848 393.841 37.632C392.241 35.456 391.089 34.176 390.385 33.792C389.745 33.408 389.009 33.024 388.177 32.64C385.425 31.36 384.049 29.984 384.049 28.512C384.049 27.424 384.625 26.304 385.777 25.152C386.993 23.936 388.625 23.328 390.673 23.328C394.577 23.328 397.809 24.672 400.369 27.36C402.929 29.984 404.945 33.344 406.417 37.44C407.953 41.472 409.073 45.728 409.777 50.208C410.545 54.624 411.025 58.752 411.217 62.592C411.409 66.432 411.505 69.344 411.505 71.328C411.505 73.696 410.961 75.552 409.873 76.896C408.785 78.176 407.601 79.072 406.321 79.584C405.041 80.096 404.081 80.352 403.441 80.352Z" fill="#F5F9FF"/>
</svg>
