<svg width="261" height="82" viewBox="0 0 261 82" fill="none" xmlns="http://www.w3.org/2000/svg">
<path d="M16.8 77.568C13.6 77.568 10.912 76.352 8.73604 73.92C6.62404 71.488 4.92804 68.416 3.64804 64.704C2.36804 60.992 1.44004 57.12 0.864039 53.088C0.288039 49.056 3.91304e-05 45.44 3.91304e-05 42.24C3.91304e-05 33.664 1.15204 26.208 3.45604 19.872C5.82404 13.536 8.76804 8.64 12.288 5.18401C15.872 1.728 19.424 3.8147e-06 22.944 3.8147e-06C25.376 3.8147e-06 27.456 0.640003 29.184 1.92C30.912 3.2 32.288 4.76801 33.312 6.624C34.4 8.48 35.2 10.336 35.712 12.192C36.224 13.984 36.48 15.36 36.48 16.32C36.48 16.64 36.384 17.312 36.192 18.336C36.064 19.36 35.68 20.32 35.04 21.216C34.4 22.112 33.408 22.56 32.064 22.56C31.04 22.56 30.336 22.176 29.952 21.408C29.568 20.576 29.248 19.552 28.992 18.336C28.672 16.8 28.064 15.136 27.168 13.344C26.272 11.488 24.672 9.82401 22.368 8.35201L21.792 8.25601C21.152 8.32001 20.672 8.44801 20.352 8.64001C20.032 8.76801 19.616 9.056 19.104 9.504L18.528 10.08C17.888 10.912 17.344 11.936 16.896 13.152C16.448 14.304 16.096 15.36 15.84 16.32C15.648 17.216 15.552 17.696 15.552 17.76L15.264 19.104C13.728 26.144 12.96 32.992 12.96 39.648C12.96 45.6 13.76 51.104 15.36 56.16C16.96 61.216 19.296 64.736 22.368 66.72L23.232 66.048C25.024 64.704 27.168 60.832 29.664 54.432C30.56 51.808 31.424 49.824 32.256 48.48C33.152 47.072 34.464 46.368 36.192 46.368C37.024 46.368 37.728 46.592 38.304 47.04C38.88 47.488 39.168 48.16 39.168 49.056C39.168 49.632 38.88 50.976 38.304 53.088C37.728 55.2 36.864 57.632 35.712 60.384C34.56 63.072 33.088 65.728 31.296 68.352C29.504 70.976 27.392 73.184 24.96 74.976C22.592 76.704 19.872 77.568 16.8 77.568ZM53.8328 66.912C54.2808 66.848 54.6648 66.816 54.9848 66.816C55.3048 66.816 55.4968 66.784 55.5608 66.72C55.6248 66.592 55.7208 66.496 55.8488 66.432C56.0408 66.368 56.8088 65.952 58.1528 65.184C58.4088 65.056 59.2728 64.224 60.7448 62.688C62.4088 60.64 63.4328 59.168 63.8168 58.272C64.0728 57.76 64.2648 57.472 64.3928 57.408C64.7128 56.576 64.8728 55.52 64.8728 54.24C64.8728 52.896 64.7128 51.584 64.3928 50.304C64.1368 48.96 63.8168 48.096 63.4328 47.712C62.7928 47.392 61.9928 47.232 61.0328 47.232C59.8168 47.232 58.6008 47.392 57.3848 47.712C56.1688 47.968 55.4008 48.192 55.0808 48.384C51.1768 51.904 49.2248 55.552 49.2248 59.328C49.2248 60.608 49.3528 61.664 49.6088 62.496C49.9928 63.904 50.3768 64.928 50.7608 65.568C51.2088 66.144 52.2328 66.592 53.8328 66.912ZM74.4728 77.664C71.6568 77.664 69.9928 76.096 69.4808 72.96C69.2888 71.616 69.1288 69.28 69.0008 65.952C63.4968 72.608 57.6408 75.936 51.4328 75.936C48.4248 75.936 45.8008 74.816 43.5608 72.576C41.3208 70.336 40.2008 66.944 40.2008 62.4C40.2008 56.384 42.5368 50.848 47.2088 45.792C51.8808 40.672 56.8728 38.112 62.1848 38.112C63.6568 38.112 65.1928 38.432 66.7928 39.072C66.2808 37.536 65.6408 36.16 64.8728 34.944C63.2728 32.768 62.1208 31.488 61.4168 31.104C60.7768 30.72 60.0408 30.336 59.2088 29.952C56.4568 28.672 55.0808 27.296 55.0808 25.824C55.0808 24.736 55.6568 23.616 56.8088 22.464C58.0248 21.248 59.6568 20.64 61.7048 20.64C65.6088 20.64 68.8408 21.984 71.4008 24.672C73.9608 27.296 75.9768 30.656 77.4488 34.752C78.9848 38.784 80.1048 43.04 80.8088 47.52C81.5768 51.936 82.0568 56.064 82.2488 59.904C82.4408 63.744 82.5368 66.656 82.5368 68.64C82.5368 71.008 81.9928 72.864 80.9048 74.208C79.8168 75.488 78.6328 76.384 77.3528 76.896C76.0728 77.408 75.1128 77.664 74.4728 77.664ZM106.915 81.312C102.243 81.312 98.2108 79.296 94.8188 75.264L91.4588 70.368C91.2668 69.856 91.0108 69.376 90.6908 68.928C88.6428 64.256 87.6188 56 87.6188 44.16C85.3148 43.968 84.1628 43.264 84.1628 42.048C84.1628 40.128 85.3788 38.976 87.8108 38.592C88.1308 32.192 88.7708 25.504 89.7308 18.528C90.1788 10.208 93.0908 5.82401 98.4668 5.376C99.2988 5.376 100.099 5.568 100.867 5.952C101.699 6.336 102.275 7.04 102.595 8.064C102.915 9.024 103.075 10.08 103.075 11.232C103.075 12.832 102.755 15.84 102.115 20.256C101.539 24.672 100.995 30.848 100.483 38.784C100.931 38.848 101.411 38.88 101.923 38.88L103.747 38.784C106.499 38.784 107.875 39.52 107.875 40.992C107.875 41.696 107.587 42.4 107.011 43.104C106.499 43.808 105.891 44.288 105.187 44.544C104.483 44.736 103.715 44.832 102.883 44.832L100.483 44.736C100.739 50.048 101.283 55.584 102.115 61.344C102.307 63.584 102.499 65.152 102.691 66.048C102.947 66.944 103.363 68 103.939 69.216C105.603 71.328 106.691 72.448 107.203 72.576C107.331 72.64 107.523 72.768 107.779 72.96C108.099 73.088 108.323 73.184 108.451 73.248H108.643V73.344C109.475 73.472 110.339 73.568 111.235 73.632C112.771 73.824 113.539 74.784 113.539 76.512C113.475 77.536 113.091 78.432 112.387 79.2C111.747 80.032 110.947 80.576 109.987 80.832C109.027 81.152 108.003 81.312 106.915 81.312ZM123.864 66.912C124.312 66.848 124.696 66.816 125.016 66.816C125.336 66.816 125.528 66.784 125.592 66.72C125.656 66.592 125.752 66.496 125.88 66.432C126.072 66.368 126.84 65.952 128.184 65.184C128.44 65.056 129.304 64.224 130.776 62.688C132.44 60.64 133.464 59.168 133.848 58.272C134.104 57.76 134.296 57.472 134.424 57.408C134.744 56.576 134.904 55.52 134.904 54.24C134.904 52.896 134.744 51.584 134.424 50.304C134.168 48.96 133.848 48.096 133.464 47.712C132.824 47.392 132.024 47.232 131.064 47.232C129.848 47.232 128.632 47.392 127.416 47.712C126.2 47.968 125.432 48.192 125.112 48.384C121.208 51.904 119.256 55.552 119.256 59.328C119.256 60.608 119.384 61.664 119.64 62.496C120.024 63.904 120.408 64.928 120.792 65.568C121.24 66.144 122.264 66.592 123.864 66.912ZM144.504 77.664C141.688 77.664 140.024 76.096 139.512 72.96C139.32 71.616 139.16 69.28 139.032 65.952C133.528 72.608 127.672 75.936 121.464 75.936C118.456 75.936 115.832 74.816 113.592 72.576C111.352 70.336 110.232 66.944 110.232 62.4C110.232 56.384 112.568 50.848 117.24 45.792C121.912 40.672 126.904 38.112 132.216 38.112C133.688 38.112 135.224 38.432 136.824 39.072C136.312 37.536 135.672 36.16 134.904 34.944C133.304 32.768 132.152 31.488 131.448 31.104C130.808 30.72 130.072 30.336 129.24 29.952C126.488 28.672 125.112 27.296 125.112 25.824C125.112 24.736 125.688 23.616 126.84 22.464C128.056 21.248 129.688 20.64 131.736 20.64C135.64 20.64 138.872 21.984 141.432 24.672C143.992 27.296 146.008 30.656 147.48 34.752C149.016 38.784 150.136 43.04 150.84 47.52C151.608 51.936 152.088 56.064 152.28 59.904C152.472 63.744 152.568 66.656 152.568 68.64C152.568 71.008 152.024 72.864 150.936 74.208C149.848 75.488 148.664 76.384 147.384 76.896C146.104 77.408 145.144 77.664 144.504 77.664ZM188.466 76.896C186.418 76.896 185.394 75.744 185.394 73.44C185.394 72.672 185.522 71.584 185.778 70.176C186.29 67.168 186.61 62.688 186.738 56.736C186.738 53.024 186.194 48.992 185.106 44.64C185.106 43.232 183.858 40.128 181.362 35.328L181.458 35.232C181.394 35.232 181.298 35.168 181.17 35.04C181.106 34.848 181.042 34.752 180.978 34.752L179.922 33.6C178.962 34.56 178.034 36.096 177.138 38.208C175.41 42.176 173.618 50.176 171.762 62.208C172.146 63.552 172.338 64.96 172.338 66.432C172.338 68.928 171.474 70.944 169.746 72.48C168.018 74.016 166.194 74.784 164.274 74.784C164.146 74.848 163.922 74.88 163.602 74.88C161.938 74.88 160.53 73.184 159.378 69.792C157.522 64.672 156.594 55.456 156.594 42.144C156.594 37.344 157.042 33.728 157.938 31.296C158.834 28.864 159.89 27.232 161.106 26.4C162.322 25.568 163.474 25.152 164.562 25.152C167.57 25.152 169.17 28.448 169.362 35.04C170.898 31.392 172.594 28.768 174.45 27.168C176.37 25.568 178.098 24.608 179.634 24.288C181.234 23.904 182.226 23.712 182.61 23.712C185.746 23.84 187.954 24.928 189.234 26.976C190.578 29.024 191.538 31.2 192.114 33.504C193.266 37.152 194.002 40.416 194.322 43.296C194.642 46.176 194.802 49.824 194.802 54.24C194.802 63.072 194.29 69.056 193.266 72.192C192.242 75.328 190.642 76.896 188.466 76.896ZM207.011 73.536C206.243 73.536 205.443 73.376 204.611 73.056C201.731 71.904 200.291 63.648 200.291 48.288C200.291 40.096 200.835 34.048 201.923 30.144L203.363 27.456C204.835 24.96 206.787 23.712 209.219 23.712C212.355 23.712 213.923 25.792 213.923 29.952C213.923 31.168 213.827 32.64 213.635 34.368C213.379 36.928 213.251 39.968 213.251 43.488C213.251 48.224 213.571 53.472 214.211 59.232C214.531 61.28 214.691 63.328 214.691 65.376C214.691 67.36 214.211 68.96 213.251 70.176C212.291 71.328 211.203 72.192 209.987 72.768C208.771 73.28 207.779 73.536 207.011 73.536ZM206.531 16.704C203.267 16.704 201.635 15.072 201.635 11.808C201.635 6.75201 203.011 3.29601 205.763 1.44C207.299 0.480003 208.835 3.8147e-06 210.371 3.8147e-06C213.379 3.8147e-06 214.883 1.504 214.883 4.512C214.883 5.152 214.787 6.048 214.595 7.2C214.595 7.58401 214.627 7.87201 214.691 8.064C214.691 10.688 213.731 12.8 211.811 14.4C209.955 15.936 208.195 16.704 206.531 16.704ZM231.395 66.912C231.843 66.848 232.227 66.816 232.547 66.816C232.867 66.816 233.059 66.784 233.123 66.72C233.187 66.592 233.283 66.496 233.411 66.432C233.603 66.368 234.371 65.952 235.715 65.184C235.971 65.056 236.835 64.224 238.307 62.688C239.971 60.64 240.995 59.168 241.379 58.272C241.635 57.76 241.827 57.472 241.955 57.408C242.275 56.576 242.435 55.52 242.435 54.24C242.435 52.896 242.275 51.584 241.955 50.304C241.699 48.96 241.379 48.096 240.995 47.712C240.355 47.392 239.555 47.232 238.595 47.232C237.379 47.232 236.163 47.392 234.947 47.712C233.731 47.968 232.963 48.192 232.643 48.384C228.739 51.904 226.787 55.552 226.787 59.328C226.787 60.608 226.915 61.664 227.171 62.496C227.555 63.904 227.939 64.928 228.323 65.568C228.771 66.144 229.795 66.592 231.395 66.912ZM252.035 77.664C249.219 77.664 247.555 76.096 247.043 72.96C246.851 71.616 246.691 69.28 246.563 65.952C241.059 72.608 235.203 75.936 228.995 75.936C225.987 75.936 223.363 74.816 221.123 72.576C218.883 70.336 217.763 66.944 217.763 62.4C217.763 56.384 220.099 50.848 224.771 45.792C229.443 40.672 234.435 38.112 239.747 38.112C241.219 38.112 242.755 38.432 244.355 39.072C243.843 37.536 243.203 36.16 242.435 34.944C240.835 32.768 239.683 31.488 238.979 31.104C238.339 30.72 237.603 30.336 236.771 29.952C234.019 28.672 232.643 27.296 232.643 25.824C232.643 24.736 233.219 23.616 234.371 22.464C235.587 21.248 237.219 20.64 239.267 20.64C243.171 20.64 246.403 21.984 248.963 24.672C251.523 27.296 253.539 30.656 255.011 34.752C256.547 38.784 257.667 43.04 258.371 47.52C259.139 51.936 259.619 56.064 259.811 59.904C260.003 63.744 260.099 66.656 260.099 68.64C260.099 71.008 259.555 72.864 258.467 74.208C257.379 75.488 256.195 76.384 254.915 76.896C253.635 77.408 252.675 77.664 252.035 77.664Z" fill="#F5F9FF"/>
</svg>
