<svg width="169" height="86" viewBox="0 0 169 86" fill="none" xmlns="http://www.w3.org/2000/svg">
<path d="M16.0317 83.712C12.0637 83.712 8.8957 82.624 6.5277 80.448C4.1597 78.272 2.4637 75.648 1.4397 72.576C0.479703 69.504 -0.00029688 66.624 -0.00029688 63.936C-0.00029688 59.2 1.0877 54.432 3.2637 49.632C5.4397 44.832 8.5437 40.736 12.5757 37.344C9.6317 34.144 8.1597 29.568 8.1597 23.616C8.1597 17.92 9.2477 12.8 11.4237 8.25601C14.1117 2.75201 17.8557 1.14441e-05 22.6557 1.14441e-05C24.5117 1.14441e-05 26.2717 0.512012 27.9357 1.53601C29.6637 2.49601 31.0717 4.09601 32.1597 6.33602C33.2477 8.51201 33.7917 11.36 33.7917 14.88C33.7917 15.904 33.6957 17.024 33.5037 18.24C33.3757 19.392 32.7677 20.384 31.6797 21.216C30.5917 22.048 29.4717 22.464 28.3197 22.464C26.9117 22.464 26.0477 22.016 25.7277 21.12C25.4717 20.224 25.3117 19.104 25.2477 17.76C25.2477 16.416 25.1197 15.008 24.8637 13.536C24.7997 13.536 24.7037 13.312 24.5757 12.864C23.8717 10.176 22.3677 8.70401 20.0637 8.44801C19.8717 8.64001 19.7117 8.86401 19.5837 9.12001C17.6637 12.32 16.7037 16.352 16.7037 21.216C16.7037 23.392 16.8957 25.152 17.2797 26.496C17.9837 28.864 18.8797 30.4 19.9677 31.104C20.3517 31.424 20.7997 31.744 21.3117 32.064C23.2317 31.424 24.7997 31.104 26.0157 31.104C27.0397 31.104 27.8077 31.456 28.3197 32.16C28.8957 32.8 29.1837 33.6 29.1837 34.56C29.1837 36.608 27.6157 38.688 24.4797 40.8C17.9517 44.832 14.1117 50.688 12.9597 58.368C12.9597 61.952 13.3117 64.512 14.0157 66.048C14.9757 68.288 16.5757 70.208 18.8157 71.808C19.1997 72.064 19.5197 72.32 19.7757 72.576L24.1917 73.248C25.3437 72.864 26.0797 72.576 26.3997 72.384C27.3597 71.808 28.3517 70.752 29.3757 69.216C31.4877 65.44 32.6717 62.368 32.9277 60C33.1837 58.592 33.5037 57.504 33.8877 56.736C34.3357 55.968 35.1677 55.584 36.3837 55.584C37.2157 55.584 37.6957 55.808 37.8237 56.256C38.0157 56.64 38.1117 57.184 38.1117 57.888C38.1117 59.424 37.9197 61.6 37.5357 64.416C36.3837 71.968 31.7437 77.728 23.6157 81.696C21.4397 83.04 18.9117 83.712 16.0317 83.712ZM73.6467 84.768C71.5987 84.768 70.5747 83.616 70.5747 81.312C70.5747 80.544 70.7027 79.456 70.9587 78.048C71.4707 75.04 71.7907 70.56 71.9187 64.608C71.9187 60.896 71.3747 56.864 70.2867 52.512C70.2867 51.104 69.0387 48 66.5427 43.2L66.6387 43.104C66.5747 43.104 66.4787 43.04 66.3507 42.912C66.2867 42.72 66.2227 42.624 66.1587 42.624L65.1027 41.472C64.1427 42.432 63.2147 43.968 62.3187 46.08C60.5907 50.048 58.7987 58.048 56.9427 70.08C57.3267 71.424 57.5187 72.832 57.5187 74.304C57.5187 76.8 56.6547 78.816 54.9267 80.352C53.1987 81.888 51.3747 82.656 49.4547 82.656C49.3267 82.72 49.1027 82.752 48.7827 82.752C47.1187 82.752 45.7107 81.056 44.5587 77.664C42.7027 72.544 41.7747 63.328 41.7747 50.016C41.7747 45.216 42.2227 41.6 43.1187 39.168C44.0147 36.736 45.0707 35.104 46.2867 34.272C47.5027 33.44 48.6547 33.024 49.7427 33.024C52.7507 33.024 54.3507 36.32 54.5427 42.912C56.0787 39.264 57.7747 36.64 59.6307 35.04C61.5507 33.44 63.2787 32.48 64.8147 32.16C66.4147 31.776 67.4067 31.584 67.7907 31.584C70.9267 31.712 73.1347 32.8 74.4147 34.848C75.7587 36.896 76.7187 39.072 77.2947 41.376C78.4467 45.024 79.1827 48.288 79.5027 51.168C79.8227 54.048 79.9827 57.696 79.9827 62.112C79.9827 70.944 79.4707 76.928 78.4467 80.064C77.4227 83.2 75.8227 84.768 73.6467 84.768ZM116.959 84.768C114.911 84.768 113.887 83.616 113.887 81.312C113.887 80.544 114.015 79.456 114.271 78.048C114.783 75.04 115.103 70.56 115.231 64.608C115.231 60.896 114.687 56.864 113.599 52.512C113.599 51.104 112.351 48 109.855 43.2L109.951 43.104C109.887 43.104 109.791 43.04 109.663 42.912C109.599 42.72 109.535 42.624 109.471 42.624L108.415 41.472C107.455 42.432 106.527 43.968 105.631 46.08C103.903 50.048 102.111 58.048 100.255 70.08C100.639 71.424 100.831 72.832 100.831 74.304C100.831 76.8 99.9672 78.816 98.2392 80.352C96.5112 81.888 94.6872 82.656 92.7672 82.656C92.6392 82.72 92.4152 82.752 92.0952 82.752C90.4312 82.752 89.0232 81.056 87.8712 77.664C86.0152 72.544 85.0872 63.328 85.0872 50.016C85.0872 45.216 85.5352 41.6 86.4312 39.168C87.3272 36.736 88.3832 35.104 89.5992 34.272C90.8152 33.44 91.9672 33.024 93.0552 33.024C96.0632 33.024 97.6632 36.32 97.8552 42.912C99.3912 39.264 101.087 36.64 102.943 35.04C104.863 33.44 106.591 32.48 108.127 32.16C109.727 31.776 110.719 31.584 111.103 31.584C114.239 31.712 116.447 32.8 117.727 34.848C119.071 36.896 120.031 39.072 120.607 41.376C121.759 45.024 122.495 48.288 122.815 51.168C123.135 54.048 123.295 57.696 123.295 62.112C123.295 70.944 122.783 76.928 121.759 80.064C120.735 83.2 119.135 84.768 116.959 84.768ZM139.92 74.784C140.368 74.72 140.752 74.688 141.072 74.688C141.392 74.688 141.584 74.656 141.648 74.592C141.712 74.464 141.808 74.368 141.936 74.304C142.128 74.24 142.896 73.824 144.24 73.056C144.496 72.928 145.36 72.096 146.832 70.56C148.496 68.512 149.52 67.04 149.904 66.144C150.16 65.632 150.352 65.344 150.48 65.28C150.8 64.448 150.96 63.392 150.96 62.112C150.96 60.768 150.8 59.456 150.48 58.176C150.224 56.832 149.904 55.968 149.52 55.584C148.88 55.264 148.08 55.104 147.12 55.104C145.904 55.104 144.688 55.264 143.472 55.584C142.256 55.84 141.488 56.064 141.168 56.256C137.264 59.776 135.312 63.424 135.312 67.2C135.312 68.48 135.44 69.536 135.696 70.368C136.08 71.776 136.464 72.8 136.848 73.44C137.296 74.016 138.32 74.464 139.92 74.784ZM160.56 85.536C157.744 85.536 156.08 83.968 155.568 80.832C155.376 79.488 155.216 77.152 155.088 73.824C149.584 80.48 143.728 83.808 137.52 83.808C134.512 83.808 131.888 82.688 129.648 80.448C127.408 78.208 126.288 74.816 126.288 70.272C126.288 64.256 128.624 58.72 133.296 53.664C137.968 48.544 142.96 45.984 148.272 45.984C149.744 45.984 151.28 46.304 152.88 46.944C152.368 45.408 151.728 44.032 150.96 42.816C149.36 40.64 148.208 39.36 147.504 38.976C146.864 38.592 146.128 38.208 145.296 37.824C142.544 36.544 141.168 35.168 141.168 33.696C141.168 32.608 141.744 31.488 142.896 30.336C144.112 29.12 145.744 28.512 147.792 28.512C151.696 28.512 154.928 29.856 157.488 32.544C160.048 35.168 162.064 38.528 163.536 42.624C165.072 46.656 166.192 50.912 166.896 55.392C167.664 59.808 168.144 63.936 168.336 67.776C168.528 71.616 168.624 74.528 168.624 76.512C168.624 78.88 168.08 80.736 166.992 82.08C165.904 83.36 164.72 84.256 163.44 84.768C162.16 85.28 161.2 85.536 160.56 85.536Z" fill="#F5F9FF"/>
</svg>
