<svg width="262" height="81" viewBox="0 0 262 81" fill="none" xmlns="http://www.w3.org/2000/svg">
<path d="M7.00892 80.064C6.24092 80.064 5.47292 79.904 4.70492 79.584C4.00092 79.328 3.36092 78.528 2.78492 77.184C2.20892 75.84 1.69692 73.664 1.24892 70.656C0.864922 67.584 0.544922 63.392 0.288922 58.08C0.096922 52.768 0.000922084 45.92 0.000922084 37.536C0.000922084 29.6 0.160922 22.848 0.480922 17.28C0.800922 11.648 1.60092 7.36 2.88092 4.416C4.16092 1.472 6.27292 0 9.21692 0C10.6889 0 12.0649 1.152 13.3449 3.456C13.6649 3.52 13.8249 4.704 13.8249 7.008C13.8249 8.352 13.7289 10.112 13.5369 12.288C13.0889 16.192 12.8649 22.848 12.8649 32.256L12.9609 39.744C15.3929 31.808 17.6009 25.632 19.5849 21.216C21.5689 16.736 23.2969 13.536 24.7689 11.616C26.3049 9.696 27.6169 8.544 28.7049 8.16C29.8569 7.776 30.7849 7.584 31.4889 7.584C33.7289 7.584 35.3609 8.672 36.3849 10.848C37.4729 12.96 38.2089 15.776 38.5929 19.296C38.9769 22.752 39.2649 26.496 39.4569 30.528C39.6489 36.352 40.1929 41.888 41.0889 47.136C42.1129 43.872 43.2009 39.68 44.3529 34.56C45.4409 29.76 46.6569 24.992 48.0009 20.256C49.3449 15.52 50.8809 11.52 52.6089 8.256C54.4009 4.928 56.4809 3.264 58.8489 3.264C61.1529 3.264 63.0409 5.248 64.5129 9.216C66.0489 13.12 67.2649 17.984 68.1609 23.808C69.1209 29.632 69.8249 35.52 70.2729 41.472C70.7209 47.424 71.0089 52.608 71.1369 57.024C71.2649 61.376 71.3289 63.936 71.3289 64.704L71.2329 67.872C71.1049 70.496 70.1449 72.576 68.3529 74.112C66.5609 75.648 64.7689 76.416 62.9769 76.416C61.6329 76.416 60.6409 76.128 60.0009 75.552C59.3609 74.976 58.9129 74.368 58.6569 73.728C58.4649 73.024 58.3689 72.352 58.3689 71.712C58.5609 64.992 58.6569 58.336 58.6569 51.744C58.6569 39.136 58.0809 28.352 56.9289 19.392C55.6489 23.424 54.4649 27.872 53.3769 32.736C52.3529 37.28 51.2009 41.632 49.9209 45.792C48.7049 49.888 47.2009 53.312 45.4089 56.064C43.6809 58.752 41.4729 60.096 38.7849 60.096C36.6729 60.096 35.0729 58.816 33.9849 56.256C32.9609 53.632 32.2249 50.336 31.7769 46.368C31.3289 42.4 30.9769 38.24 30.7209 33.888C30.4009 28.256 29.8889 23.328 29.1849 19.104C22.7209 32.544 17.9209 48.736 14.7849 67.68C14.9769 69.024 15.0729 70.304 15.0729 71.52C15.0729 74.272 14.1449 76.384 12.2889 77.856C10.4329 79.328 8.67292 80.064 7.00892 80.064ZM89.3177 45.792C91.2377 44.512 92.5177 43.552 93.1577 42.912C94.4377 41.376 95.2377 40.32 95.5577 39.744L95.9417 39.264C96.2617 38.56 96.5177 38.048 96.7097 37.728C96.9017 37.408 97.0617 36.672 97.1897 35.52C97.0617 34.24 96.8057 33.408 96.4217 33.024C96.1017 32.64 95.4617 32.416 94.5017 32.352L93.0617 33.984L90.4697 39.744C90.2777 39.808 90.0217 40.736 89.7017 42.528C89.4457 44.32 89.3177 45.408 89.3177 45.792ZM95.6537 78.912C95.5897 78.912 94.8857 78.784 93.5417 78.528C92.1977 78.336 90.5657 77.824 88.6457 76.992C86.7257 76.096 84.8057 74.72 82.8857 72.864C81.0297 70.944 79.4297 68.352 78.0857 65.088C76.8057 61.76 76.1657 57.536 76.1657 52.416C76.1657 44.928 77.9577 37.952 81.5417 31.488C85.5097 24.448 90.6937 20.928 97.0937 20.928C98.5657 20.928 100.07 21.312 101.606 22.08C103.142 22.784 104.422 23.904 105.446 25.44C106.47 26.912 106.982 28.8 106.982 31.104C106.982 34.368 105.99 37.6 104.006 40.8C102.086 43.936 99.7817 46.624 97.0937 48.864C94.4057 51.04 91.8457 52.416 89.4137 52.992C89.8617 55.808 90.5337 58.176 91.4297 60.096C93.0937 63.616 96.1017 66.08 100.454 67.488C102.63 68.192 103.878 68.704 104.198 69.024L105.446 69.504C106.342 69.952 106.79 70.56 106.79 71.328C106.79 73.184 105.574 74.912 103.142 76.512C100.774 78.112 98.2777 78.912 95.6537 78.912ZM117.685 77.856C113.973 77.856 112.117 76.288 112.117 73.152C112.117 72.128 112.469 70.88 113.173 69.408C114.389 66.976 116.661 65.6 119.989 65.28C120.117 64.448 120.181 63.744 120.181 63.168C120.181 61.184 120.021 60.032 119.701 59.712V59.616C119.701 58.592 118.741 56.16 116.821 52.32C114.773 48.096 113.141 43.904 111.925 39.744C110.773 35.52 110.197 32.288 110.197 30.048C110.197 26.848 110.837 24.192 112.117 22.08C113.461 19.968 115.029 18.4 116.821 17.376C118.613 16.288 120.181 15.744 121.525 15.744C124.277 15.744 125.653 16.832 125.653 19.008C125.653 20.8 124.469 22.24 122.101 23.328C121.397 23.776 120.917 24.064 120.661 24.192C120.469 24.32 120.341 24.448 120.277 24.576C120.213 24.64 120.117 24.736 119.989 24.864C119.925 24.992 119.829 25.728 119.701 27.072C119.701 27.648 119.701 27.968 119.701 28.032C119.765 28.032 119.797 28.128 119.797 28.32C119.797 28.448 119.893 29.088 120.085 30.24C120.725 32.544 121.589 34.464 122.677 36C122.869 36.064 123.797 37.248 125.461 39.552C130.517 46.528 133.045 53.216 133.045 59.616C133.045 63.84 132.149 67.296 130.357 69.984C128.565 72.672 126.453 74.656 124.021 75.936C121.653 77.216 119.541 77.856 117.685 77.856ZM139.529 77.856C135.817 77.856 133.961 76.288 133.961 73.152C133.961 72.128 134.313 70.88 135.017 69.408C136.233 66.976 138.505 65.6 141.833 65.28C141.961 64.448 142.025 63.744 142.025 63.168C142.025 61.184 141.865 60.032 141.545 59.712V59.616C141.545 58.592 140.585 56.16 138.665 52.32C136.617 48.096 134.985 43.904 133.769 39.744C132.617 35.52 132.041 32.288 132.041 30.048C132.041 26.848 132.681 24.192 133.961 22.08C135.305 19.968 136.873 18.4 138.665 17.376C140.457 16.288 142.025 15.744 143.369 15.744C146.121 15.744 147.497 16.832 147.497 19.008C147.497 20.8 146.313 22.24 143.945 23.328C143.241 23.776 142.761 24.064 142.505 24.192C142.313 24.32 142.185 24.448 142.121 24.576C142.057 24.64 141.961 24.736 141.833 24.864C141.769 24.992 141.673 25.728 141.545 27.072C141.545 27.648 141.545 27.968 141.545 28.032C141.609 28.032 141.641 28.128 141.641 28.32C141.641 28.448 141.737 29.088 141.929 30.24C142.569 32.544 143.433 34.464 144.521 36C144.713 36.064 145.641 37.248 147.305 39.552C152.361 46.528 154.889 53.216 154.889 59.616C154.889 63.84 153.993 67.296 152.201 69.984C150.409 72.672 148.297 74.656 145.865 75.936C143.497 77.216 141.385 77.856 139.529 77.856ZM165.328 75.936C164.56 75.936 163.76 75.776 162.928 75.456C160.048 74.304 158.608 66.048 158.608 50.688C158.608 42.496 159.152 36.448 160.24 32.544L161.68 29.856C163.152 27.36 165.104 26.112 167.536 26.112C170.672 26.112 172.24 28.192 172.24 32.352C172.24 33.568 172.144 35.04 171.952 36.768C171.696 39.328 171.568 42.368 171.568 45.888C171.568 50.624 171.888 55.872 172.528 61.632C172.848 63.68 173.008 65.728 173.008 67.776C173.008 69.76 172.528 71.36 171.568 72.576C170.608 73.728 169.52 74.592 168.304 75.168C167.088 75.68 166.096 75.936 165.328 75.936ZM164.848 19.104C161.584 19.104 159.952 17.472 159.952 14.208C159.952 9.152 161.328 5.696 164.08 3.84C165.616 2.88 167.152 2.4 168.688 2.4C171.696 2.4 173.2 3.904 173.2 6.912C173.2 7.552 173.104 8.448 172.912 9.6C172.912 9.984 172.944 10.272 173.008 10.464C173.008 13.088 172.048 15.2 170.128 16.8C168.272 18.336 166.512 19.104 164.848 19.104ZM210.065 79.296C208.017 79.296 206.993 78.144 206.993 75.84C206.993 75.072 207.121 73.984 207.377 72.576C207.889 69.568 208.209 65.088 208.337 59.136C208.337 55.424 207.793 51.392 206.705 47.04C206.705 45.632 205.457 42.528 202.961 37.728L203.057 37.632C202.993 37.632 202.897 37.568 202.769 37.44C202.705 37.248 202.641 37.152 202.577 37.152L201.521 36C200.561 36.96 199.633 38.496 198.737 40.608C197.009 44.576 195.217 52.576 193.361 64.608C193.745 65.952 193.937 67.36 193.937 68.832C193.937 71.328 193.073 73.344 191.345 74.88C189.617 76.416 187.793 77.184 185.873 77.184C185.745 77.248 185.521 77.28 185.201 77.28C183.537 77.28 182.129 75.584 180.977 72.192C179.121 67.072 178.193 57.856 178.193 44.544C178.193 39.744 178.641 36.128 179.537 33.696C180.433 31.264 181.489 29.632 182.705 28.8C183.921 27.968 185.073 27.552 186.161 27.552C189.169 27.552 190.769 30.848 190.961 37.44C192.497 33.792 194.193 31.168 196.049 29.568C197.969 27.968 199.697 27.008 201.233 26.688C202.833 26.304 203.825 26.112 204.209 26.112C207.345 26.24 209.553 27.328 210.833 29.376C212.177 31.424 213.137 33.6 213.713 35.904C214.865 39.552 215.601 42.816 215.921 45.696C216.241 48.576 216.401 52.224 216.401 56.64C216.401 65.472 215.889 71.456 214.865 74.592C213.841 77.728 212.241 79.296 210.065 79.296ZM233.025 69.312C233.473 69.248 233.857 69.216 234.177 69.216C234.497 69.216 234.689 69.184 234.753 69.12C234.817 68.992 234.913 68.896 235.041 68.832C235.233 68.768 236.001 68.352 237.345 67.584C237.601 67.456 238.465 66.624 239.937 65.088C241.601 63.04 242.625 61.568 243.009 60.672C243.265 60.16 243.457 59.872 243.585 59.808C243.905 58.976 244.065 57.92 244.065 56.64C244.065 55.296 243.905 53.984 243.585 52.704C243.329 51.36 243.009 50.496 242.625 50.112C241.985 49.792 241.185 49.632 240.225 49.632C239.009 49.632 237.793 49.792 236.577 50.112C235.361 50.368 234.593 50.592 234.273 50.784C230.369 54.304 228.417 57.952 228.417 61.728C228.417 63.008 228.545 64.064 228.801 64.896C229.185 66.304 229.569 67.328 229.953 67.968C230.401 68.544 231.425 68.992 233.025 69.312ZM253.665 80.064C250.849 80.064 249.185 78.496 248.673 75.36C248.481 74.016 248.321 71.68 248.193 68.352C242.689 75.008 236.833 78.336 230.625 78.336C227.617 78.336 224.993 77.216 222.753 74.976C220.513 72.736 219.393 69.344 219.393 64.8C219.393 58.784 221.729 53.248 226.401 48.192C231.073 43.072 236.065 40.512 241.377 40.512C242.849 40.512 244.385 40.832 245.985 41.472C245.473 39.936 244.833 38.56 244.065 37.344C242.465 35.168 241.313 33.888 240.609 33.504C239.969 33.12 239.233 32.736 238.401 32.352C235.649 31.072 234.273 29.696 234.273 28.224C234.273 27.136 234.849 26.016 236.001 24.864C237.217 23.648 238.849 23.04 240.897 23.04C244.801 23.04 248.033 24.384 250.593 27.072C253.153 29.696 255.169 33.056 256.641 37.152C258.177 41.184 259.297 45.44 260.001 49.92C260.769 54.336 261.249 58.464 261.441 62.304C261.633 66.144 261.729 69.056 261.729 71.04C261.729 73.408 261.185 75.264 260.097 76.608C259.009 77.888 257.825 78.784 256.545 79.296C255.265 79.808 254.305 80.064 253.665 80.064Z" fill="#F5F9FF"/>
</svg>
