<svg width="261" height="86" viewBox="0 0 261 86" fill="none" xmlns="http://www.w3.org/2000/svg">
<path d="M18.2402 45.408L24.0962 43.392C24.9922 42.944 25.9842 42.304 27.0722 41.472C27.3282 41.216 27.5842 41.056 27.8402 40.992C29.4402 39.712 31.0082 38.24 32.5442 36.576C34.9122 34.08 36.9282 30.528 38.5922 25.92C40.0002 22.08 40.7042 18.656 40.7042 15.648C40.7042 11.168 39.3602 8.92801 36.6722 8.92801C33.9202 8.92801 30.4642 13.12 26.3042 21.504C23.0402 28.096 20.3522 36.064 18.2402 45.408ZM6.2402 85.728C5.0242 85.728 3.9362 85.376 2.9762 84.672C2.0802 83.968 1.5362 82.944 1.3442 81.6C0.448203 73.472 0.000203192 65.44 0.000203192 57.504C0.000203192 54.56 0.0962032 50.72 0.288203 45.984C0.544203 41.184 0.960203 36.16 1.5362 30.912C2.1122 25.6 2.9122 20.608 3.9362 15.936C5.0242 11.264 6.4002 7.45601 8.0642 4.512C9.7282 1.504 11.7762 0 14.2082 0C17.0242 0 18.4322 1.6 18.4322 4.8C18.4322 6.656 18.0482 9.152 17.2802 12.288C16.2562 16.576 15.1682 23.488 14.0162 33.024C16.3842 25.6 19.2642 19.04 22.6562 13.344C27.5842 5.152 32.8642 1.056 38.4962 1.056C42.0162 1.056 44.6082 2.432 46.2722 5.184C47.9362 7.936 48.7682 11.104 48.7682 14.688C48.7682 25.888 44.1922 35.968 35.0402 44.928C31.3282 48.64 27.7442 51.52 24.2882 53.568C20.8322 55.552 18.1762 56.544 16.3202 56.544C15.8722 60.32 15.5842 63.648 15.4562 66.528C15.2642 70.304 14.8802 73.696 14.3042 76.704C14.3042 79.712 13.3442 81.952 11.4242 83.424C9.5042 84.96 7.7762 85.728 6.2402 85.728ZM50.8885 71.136C51.3365 71.072 51.7205 71.04 52.0405 71.04C52.3605 71.04 52.5525 71.008 52.6165 70.944C52.6805 70.816 52.7765 70.72 52.9045 70.656C53.0965 70.592 53.8645 70.176 55.2085 69.408C55.4645 69.28 56.3285 68.448 57.8005 66.912C59.4645 64.864 60.4885 63.392 60.8725 62.496C61.1285 61.984 61.3205 61.696 61.4485 61.632C61.7685 60.8 61.9285 59.744 61.9285 58.464C61.9285 57.12 61.7685 55.808 61.4485 54.528C61.1925 53.184 60.8725 52.32 60.4885 51.936C59.8485 51.616 59.0485 51.456 58.0885 51.456C56.8725 51.456 55.6565 51.616 54.4405 51.936C53.2245 52.192 52.4565 52.416 52.1365 52.608C48.2325 56.128 46.2805 59.776 46.2805 63.552C46.2805 64.832 46.4085 65.888 46.6645 66.72C47.0485 68.128 47.4325 69.152 47.8165 69.792C48.2645 70.368 49.2885 70.816 50.8885 71.136ZM71.5285 81.888C68.7125 81.888 67.0485 80.32 66.5365 77.184C66.3445 75.84 66.1845 73.504 66.0565 70.176C60.5525 76.832 54.6965 80.16 48.4885 80.16C45.4805 80.16 42.8565 79.04 40.6165 76.8C38.3765 74.56 37.2565 71.168 37.2565 66.624C37.2565 60.608 39.5925 55.072 44.2645 50.016C48.9365 44.896 53.9285 42.336 59.2405 42.336C60.7125 42.336 62.2485 42.656 63.8485 43.296C63.3365 41.76 62.6965 40.384 61.9285 39.168C60.3285 36.992 59.1765 35.712 58.4725 35.328C57.8325 34.944 57.0965 34.56 56.2645 34.176C53.5125 32.896 52.1365 31.52 52.1365 30.048C52.1365 28.96 52.7125 27.84 53.8645 26.688C55.0805 25.472 56.7125 24.864 58.7605 24.864C62.6645 24.864 65.8965 26.208 68.4565 28.896C71.0165 31.52 73.0325 34.88 74.5045 38.976C76.0405 43.008 77.1605 47.264 77.8645 51.744C78.6325 56.16 79.1125 60.288 79.3045 64.128C79.4965 67.968 79.5925 70.88 79.5925 72.864C79.5925 75.232 79.0485 77.088 77.9605 78.432C76.8725 79.712 75.6885 80.608 74.4085 81.12C73.1285 81.632 72.1685 81.888 71.5285 81.888ZM90.9145 80.64C89.9545 80.64 89.0585 80.416 88.2265 79.968C87.4585 79.52 86.7865 78.432 86.2105 76.704C85.6985 74.976 85.2825 72.256 84.9625 68.544C84.6425 64.768 84.4825 59.616 84.4825 53.088C84.4825 44.512 85.1545 35.296 86.4985 25.44C87.9065 14.752 89.7305 7.648 91.9705 4.128C93.0585 2.4 94.5305 1.536 96.3865 1.536C97.7945 1.536 98.6585 1.984 98.9785 2.88C99.2985 3.712 99.5225 4.896 99.6505 6.432C99.6505 7.328 99.0425 13.024 97.8265 23.52C97.4425 27.424 97.2505 32.96 97.2505 40.128C97.2505 51.264 97.6025 60.224 98.3065 67.008C98.5625 68.608 98.6905 70.144 98.6905 71.616C98.6905 73.664 98.2425 75.36 97.3465 76.704C96.4505 77.984 95.3945 78.944 94.1785 79.584C93.0265 80.288 91.9385 80.64 90.9145 80.64ZM116.056 47.616C117.976 46.336 119.256 45.376 119.896 44.736C121.176 43.2 121.976 42.144 122.296 41.568L122.68 41.088C123 40.384 123.256 39.872 123.448 39.552C123.64 39.232 123.8 38.496 123.928 37.344C123.8 36.064 123.544 35.232 123.16 34.848C122.84 34.464 122.2 34.24 121.24 34.176L119.8 35.808L117.208 41.568C117.016 41.632 116.76 42.56 116.44 44.352C116.184 46.144 116.056 47.232 116.056 47.616ZM122.392 80.736C122.328 80.736 121.624 80.608 120.28 80.352C118.936 80.16 117.304 79.648 115.384 78.816C113.464 77.92 111.544 76.544 109.624 74.688C107.768 72.768 106.168 70.176 104.824 66.912C103.544 63.584 102.904 59.36 102.904 54.24C102.904 46.752 104.696 39.776 108.28 33.312C112.248 26.272 117.432 22.752 123.832 22.752C125.304 22.752 126.808 23.136 128.344 23.904C129.88 24.608 131.16 25.728 132.184 27.264C133.208 28.736 133.72 30.624 133.72 32.928C133.72 36.192 132.728 39.424 130.744 42.624C128.824 45.76 126.52 48.448 123.832 50.688C121.144 52.864 118.584 54.24 116.152 54.816C116.6 57.632 117.272 60 118.168 61.92C119.832 65.44 122.84 67.904 127.192 69.312C129.368 70.016 130.616 70.528 130.936 70.848L132.184 71.328C133.08 71.776 133.528 72.384 133.528 73.152C133.528 75.008 132.312 76.736 129.88 78.336C127.512 79.936 125.016 80.736 122.392 80.736ZM144.073 81.408H143.113C141.577 81.408 140.329 79.936 139.369 76.992C138.025 72.64 137.353 64.384 137.353 52.224C137.353 47.232 137.577 42.24 138.025 37.248C138.537 31.104 139.593 27.136 141.193 25.344C142.985 23.296 144.873 22.272 146.857 22.272C147.625 22.272 148.393 22.464 149.161 22.848H149.065C149.385 22.976 149.737 23.264 150.121 23.712C150.569 24.16 150.857 24.64 150.985 25.152C151.369 26.432 151.561 27.328 151.561 27.84C151.561 28.416 151.497 29.056 151.369 29.76C151.177 30.976 150.921 33.952 150.601 38.688C151.305 37.408 152.105 36.096 153.001 34.752C156.201 30.08 159.657 27.744 163.369 27.744C165.097 27.744 166.601 28.288 167.881 29.376C169.225 30.4 169.897 31.616 169.897 33.024C169.897 34.048 169.481 35.168 168.649 36.384C167.881 37.6 166.793 38.208 165.385 38.208C164.681 38.208 164.105 37.984 163.657 37.536C163.273 37.024 162.921 36.352 162.601 35.52L161.257 34.752C161.129 34.752 160.969 34.784 160.777 34.848C160.649 34.912 160.521 35.008 160.393 35.136C160.265 35.2 160.073 35.36 159.817 35.616C159.561 35.808 159.305 36.064 159.049 36.384C156.105 39.904 154.089 43.456 153.001 47.04C151.977 50.56 151.241 55.008 150.793 60.384C151.049 62.944 151.241 64.96 151.369 66.432C151.561 67.84 151.721 69.024 151.849 69.984C152.041 70.88 152.201 71.904 152.329 73.056C152.329 74.912 151.529 76.768 149.929 78.624C148.329 80.48 146.377 81.408 144.073 81.408ZM216.975 81.024C214.479 81.024 213.231 79.552 213.231 76.608L213.807 55.872C213.807 49.728 213.231 44.928 212.079 41.472C210.159 44.928 208.879 48.64 208.239 52.608C207.919 54.848 207.407 56.8 206.703 58.464C206.063 60.064 204.719 60.864 202.671 60.864C201.327 60.864 200.431 60.032 199.983 58.368C199.023 57.728 198.159 54.816 197.391 49.632C196.623 43.168 195.471 38.976 193.935 37.056L194.127 36.864L193.743 37.056C191.759 40.32 190.127 43.808 188.847 47.52C187.247 53.856 186.287 58.752 185.967 62.208L185.295 66.432C185.615 67.968 185.775 69.504 185.775 71.04C185.775 73.664 184.847 75.744 182.991 77.28C181.135 78.816 179.407 79.584 177.807 79.584C176.271 79.584 175.023 79.008 174.063 77.856C173.167 76.64 172.495 74.24 172.047 70.656C171.663 67.008 171.471 61.504 171.471 54.144C171.471 44.16 172.047 37.664 173.199 34.656C175.247 30.816 177.647 28.896 180.399 28.896C181.999 28.896 183.151 29.568 183.855 30.912C184.559 32.192 184.911 33.568 184.911 35.04L184.815 37.344C188.143 31.328 191.951 28.32 196.239 28.32C199.759 28.32 202.159 30.112 203.439 33.696C204.207 35.808 204.591 37.12 204.591 37.632C205.871 35.2 207.151 33.408 208.431 32.256C209.775 31.104 210.991 30.368 212.079 30.048C213.167 29.728 213.999 29.568 214.575 29.568C217.199 29.568 219.151 30.848 220.431 33.408C221.775 35.904 222.671 38.976 223.119 42.624C223.567 46.208 223.791 49.632 223.791 52.896C223.791 56.096 223.727 59.04 223.599 61.728C223.535 64.352 223.503 67.136 223.503 70.08L223.599 71.808C223.599 77.952 221.391 81.024 216.975 81.024ZM247.546 68.544L247.45 68.448C247.45 68.512 247.482 68.544 247.546 68.544ZM248.41 68.736C249.114 68.608 249.562 68.384 249.754 68.064C250.01 67.68 250.298 67.296 250.618 66.912C251.834 64.928 252.57 61.184 252.826 55.68C252.826 53.696 252.698 52.032 252.442 50.688C251.29 43.84 249.146 38.688 246.01 35.232C244.666 37.792 243.578 40.32 242.746 42.816L242.362 43.776V43.968L242.554 43.488V43.68C241.978 44.384 241.434 47.488 240.922 52.992C240.922 56.32 241.178 58.624 241.69 59.904C241.69 60.096 241.722 60.224 241.786 60.288C241.914 61.12 242.49 62.528 243.514 64.512C244.602 65.984 245.882 67.264 247.354 68.352C247.61 68.608 247.962 68.736 248.41 68.736ZM241.306 78.912C236.698 78.912 233.242 76.288 230.938 71.04C229.018 66.816 228.058 62.208 228.058 57.216C228.058 54.208 228.538 50.496 229.498 46.08C230.522 41.6 232.058 37.44 234.106 33.6C236.218 29.696 238.874 26.944 242.074 25.344C242.97 24 244.346 23.328 246.202 23.328C247.034 23.328 248.218 23.968 249.754 25.248C251.354 26.528 252.986 28.448 254.65 31.008C256.378 33.504 257.85 36.576 259.066 40.224C260.282 43.808 260.89 47.904 260.89 52.512C260.89 60.768 259.034 67.136 255.322 71.616C251.29 76.48 246.618 78.912 241.306 78.912Z" fill="#F5F9FF"/>
</svg>
