<svg width="240" height="96" viewBox="0 0 240 96" fill="none" xmlns="http://www.w3.org/2000/svg">
<path d="M26.8803 42.624L27.4563 42.144L26.8803 42.624ZM21.5043 45.792C22.3363 45.088 23.5203 44.352 25.0563 43.584C27.2963 42.496 28.9603 41.056 30.0483 39.264C31.2003 36.96 32.0643 34.656 32.6403 32.352C33.9203 26.464 34.5603 22.208 34.5603 19.584C34.5603 16.32 34.2403 13.92 33.6003 12.384C29.6323 18.016 25.6003 29.152 21.5043 45.792ZM6.24033 84.96C5.79233 84.96 5.28033 84.736 4.70433 84.288C4.19233 83.84 3.64833 82.88 3.07233 81.408C2.56033 79.872 2.04833 77.6 1.53633 74.592C1.08833 71.52 0.704328 67.456 0.384328 62.4C0.128328 57.344 0.000328302 50.976 0.000328302 43.296C0.000328302 31.712 0.768328 21.824 2.30433 13.632C4.03233 4.672 6.72033 0.192001 10.3683 0.192001C12.9923 0.192001 14.3043 2.336 14.3043 6.624C14.3043 8.416 14.1763 11.168 13.9203 14.88C13.7283 18.528 13.5043 22.88 13.2483 27.936C13.0563 32.928 12.9603 38.528 12.9603 44.736L13.1523 44.064C15.6483 32.416 19.1363 22.24 23.6163 13.536C28.2243 4.512 33.2803 -1.90735e-06 38.7843 -1.90735e-06C42.3043 -1.90735e-06 44.7683 2.048 46.1763 6.144C47.0723 8.832 47.5203 11.776 47.5203 14.976C47.5203 19.584 46.9123 24.608 45.6963 30.048C44.4803 35.424 42.4963 40.288 39.7443 44.64C36.9923 48.928 33.3443 51.84 28.8003 53.376C30.4003 55.744 32.0963 58.656 33.8883 62.112C35.6803 65.568 37.2163 68.928 38.4963 72.192C39.7763 75.392 40.4163 77.632 40.4163 78.912C40.4163 79.744 39.9363 80.8 38.9763 82.08C38.0163 83.36 36.8003 84 35.3283 84C33.9843 84 33.0563 83.616 32.5443 82.848C32.0323 82.144 31.4563 80.8 30.8163 78.816C30.0483 76.192 28.2563 71.968 25.4403 66.144C25.1203 65.44 24.5443 64.384 23.7123 62.976C22.9443 61.504 22.1123 60.064 21.2163 58.656C20.3843 57.248 19.7123 56.256 19.2003 55.68C18.3683 59.52 17.7923 62.464 17.4723 64.512C16.8323 67.968 16.0643 71.072 15.1683 73.824L15.2643 76.032C15.2643 81.408 12.2563 84.384 6.24033 84.96ZM55.5603 73.92C56.0083 73.856 56.3923 73.824 56.7123 73.824C57.0323 73.824 57.2243 73.792 57.2883 73.728C57.3523 73.6 57.4483 73.504 57.5763 73.44C57.7683 73.376 58.5363 72.96 59.8803 72.192C60.1363 72.064 61.0003 71.232 62.4723 69.696C64.1363 67.648 65.1603 66.176 65.5443 65.28C65.8003 64.768 65.9923 64.48 66.1203 64.416C66.4403 63.584 66.6003 62.528 66.6003 61.248C66.6003 59.904 66.4403 58.592 66.1203 57.312C65.8643 55.968 65.5443 55.104 65.1603 54.72C64.5203 54.4 63.7203 54.24 62.7603 54.24C61.5443 54.24 60.3283 54.4 59.1123 54.72C57.8963 54.976 57.1283 55.2 56.8083 55.392C52.9043 58.912 50.9523 62.56 50.9523 66.336C50.9523 67.616 51.0803 68.672 51.3363 69.504C51.7203 70.912 52.1043 71.936 52.4883 72.576C52.9363 73.152 53.9603 73.6 55.5603 73.92ZM76.2003 84.672C73.3843 84.672 71.7203 83.104 71.2083 79.968C71.0163 78.624 70.8563 76.288 70.7283 72.96C65.2243 79.616 59.3683 82.944 53.1603 82.944C50.1523 82.944 47.5283 81.824 45.2883 79.584C43.0483 77.344 41.9283 73.952 41.9283 69.408C41.9283 63.392 44.2643 57.856 48.9363 52.8C53.6083 47.68 58.6003 45.12 63.9123 45.12C65.3843 45.12 66.9203 45.44 68.5203 46.08C68.0083 44.544 67.3683 43.168 66.6003 41.952C65.0003 39.776 63.8483 38.496 63.1443 38.112C62.5043 37.728 61.7683 37.344 60.9363 36.96C58.1843 35.68 56.8083 34.304 56.8083 32.832C56.8083 31.744 57.3843 30.624 58.5363 29.472C59.7523 28.256 61.3843 27.648 63.4323 27.648C67.3363 27.648 70.5683 28.992 73.1283 31.68C75.6883 34.304 77.7043 37.664 79.1763 41.76C80.7123 45.792 81.8323 50.048 82.5363 54.528C83.3043 58.944 83.7843 63.072 83.9763 66.912C84.1683 70.752 84.2643 73.664 84.2643 75.648C84.2643 78.016 83.7203 79.872 82.6323 81.216C81.5443 82.496 80.3603 83.392 79.0803 83.904C77.8003 84.416 76.8403 84.672 76.2003 84.672ZM104.64 56.928L106.368 54.432L112.032 38.592C111.392 35.776 110.624 33.632 109.728 32.16C109.728 31.968 109.376 31.456 108.672 30.624C108.032 29.728 106.944 28.832 105.408 27.936L104.736 27.84C103.904 27.968 102.976 28.704 101.952 30.048C101.696 30.368 101.056 31.84 100.032 34.464C99.5196 36.896 99.1356 39.328 98.8796 41.76C99.0716 45.536 99.5196 48.512 100.224 50.688C100.8 52.416 101.824 54.08 103.296 55.68C103.68 56.128 103.872 56.384 103.872 56.448L104.64 56.928ZM101.28 96C99.6796 96 97.7916 95.744 95.6156 95.232C93.4396 94.72 91.5196 93.92 89.8556 92.832C88.2556 91.744 87.4556 90.336 87.4556 88.608C87.4556 87.264 88.1596 85.696 89.5676 83.904C90.9756 82.112 92.8956 81.216 95.3276 81.216C95.9676 81.216 96.4156 81.28 96.6716 81.408C96.9916 81.536 97.3116 81.728 97.6316 81.984C98.0156 82.176 98.4956 82.432 99.0716 82.752L106.464 83.328C108.384 82.56 109.408 82.08 109.536 81.888L110.976 79.872C111.296 79.552 111.808 77.664 112.512 74.208C113.088 71.712 113.376 68.928 113.376 65.856L113.28 58.752C111.04 62.08 108.608 64.384 105.984 65.664C103.424 66.944 101.152 67.584 99.1676 67.584C97.9516 67.584 97.0236 67.424 96.3836 67.104C93.1196 65.76 90.7516 63.616 89.2796 60.672C87.1676 56.384 86.1116 51.616 86.1116 46.368C86.1116 41.056 87.3596 36.128 89.8556 31.584C90.9436 28.896 93.3116 25.824 96.9596 22.368C100.032 19.488 103.392 18.048 107.04 18.048C109.728 18.048 112 18.912 113.856 20.64C115.072 18.016 117.28 16.64 120.48 16.512C120.992 16.512 121.504 16.704 122.016 17.088C122.528 17.408 123.04 18.272 123.552 19.68C124.064 21.088 124.512 23.36 124.896 26.496C125.344 29.632 125.664 33.888 125.856 39.264C126.112 44.64 126.24 51.552 126.24 60L126.336 62.304C126.336 63.904 126.176 66.08 125.856 68.832C125.6 71.584 125.024 74.528 124.128 77.664C123.296 80.736 121.952 83.648 120.096 86.4C118.304 89.216 115.872 91.52 112.8 93.312C109.792 95.104 105.952 96 101.28 96ZM147.048 83.328C144.296 83.328 141.672 82.464 139.176 80.736C134.632 77.664 132.36 71.648 132.36 62.688C132.36 61.152 132.584 55.936 133.032 47.04C133.416 38.592 133.736 33.408 133.992 31.488C134.376 29.44 135.24 27.584 136.584 25.92C137.992 24.256 139.816 23.424 142.056 23.424C143.144 23.424 144.104 23.808 144.936 24.576C146.024 26.176 146.568 27.872 146.568 29.664L146.376 34.752C145.672 48.704 145.32 56.576 145.32 58.368C145.32 61.632 145.544 63.936 145.992 65.28L146.76 67.68C147.528 69.728 148.552 71.392 149.832 72.672L149.928 72.768C150.376 73.024 150.696 73.216 150.888 73.344C151.144 73.472 151.784 73.536 152.808 73.536C153.064 73.472 153.256 73.408 153.384 73.344C153.576 73.28 153.768 73.216 153.96 73.152C154.152 73.088 154.504 72.864 155.016 72.48C158.216 68.256 159.816 61.216 159.816 51.36C159.816 49.184 159.72 46.88 159.528 44.448C159.336 41.952 159.144 39.744 158.952 37.824C158.824 35.904 158.76 34.656 158.76 34.08C158.76 32.608 159.336 31.424 160.488 30.528C161.704 29.568 162.824 29.088 163.848 29.088C165.256 29.088 166.248 29.92 166.824 31.584C167.528 36.064 167.88 40.608 167.88 45.216C167.88 54.432 166.312 62.72 163.176 70.08C159.464 78.912 154.088 83.328 147.048 83.328ZM178.814 82.464C175.102 82.464 173.246 80.896 173.246 77.76C173.246 76.736 173.598 75.488 174.302 74.016C175.518 71.584 177.79 70.208 181.118 69.888C181.246 69.056 181.31 68.352 181.31 67.776C181.31 65.792 181.15 64.64 180.83 64.32V64.224C180.83 63.2 179.87 60.768 177.95 56.928C175.902 52.704 174.27 48.512 173.054 44.352C171.902 40.128 171.326 36.896 171.326 34.656C171.326 31.456 171.966 28.8 173.246 26.688C174.59 24.576 176.158 23.008 177.95 21.984C179.742 20.896 181.31 20.352 182.654 20.352C185.406 20.352 186.782 21.44 186.782 23.616C186.782 25.408 185.598 26.848 183.23 27.936C182.526 28.384 182.046 28.672 181.79 28.8C181.598 28.928 181.47 29.056 181.406 29.184C181.342 29.248 181.246 29.344 181.118 29.472C181.054 29.6 180.958 30.336 180.83 31.68C180.83 32.256 180.83 32.576 180.83 32.64C180.894 32.64 180.926 32.736 180.926 32.928C180.926 33.056 181.022 33.696 181.214 34.848C181.854 37.152 182.718 39.072 183.806 40.608C183.998 40.672 184.926 41.856 186.59 44.16C191.646 51.136 194.174 57.824 194.174 64.224C194.174 68.448 193.278 71.904 191.486 74.592C189.694 77.28 187.582 79.264 185.15 80.544C182.782 81.824 180.67 82.464 178.814 82.464ZM210.81 73.92C211.258 73.856 211.642 73.824 211.962 73.824C212.282 73.824 212.474 73.792 212.538 73.728C212.602 73.6 212.698 73.504 212.826 73.44C213.018 73.376 213.786 72.96 215.13 72.192C215.386 72.064 216.25 71.232 217.722 69.696C219.386 67.648 220.41 66.176 220.794 65.28C221.05 64.768 221.242 64.48 221.37 64.416C221.69 63.584 221.85 62.528 221.85 61.248C221.85 59.904 221.69 58.592 221.37 57.312C221.114 55.968 220.794 55.104 220.41 54.72C219.77 54.4 218.97 54.24 218.01 54.24C216.794 54.24 215.578 54.4 214.362 54.72C213.146 54.976 212.378 55.2 212.058 55.392C208.154 58.912 206.202 62.56 206.202 66.336C206.202 67.616 206.33 68.672 206.586 69.504C206.97 70.912 207.354 71.936 207.738 72.576C208.186 73.152 209.21 73.6 210.81 73.92ZM231.45 84.672C228.634 84.672 226.97 83.104 226.458 79.968C226.266 78.624 226.106 76.288 225.978 72.96C220.474 79.616 214.618 82.944 208.41 82.944C205.402 82.944 202.778 81.824 200.538 79.584C198.298 77.344 197.178 73.952 197.178 69.408C197.178 63.392 199.514 57.856 204.186 52.8C208.858 47.68 213.85 45.12 219.162 45.12C220.634 45.12 222.17 45.44 223.77 46.08C223.258 44.544 222.618 43.168 221.85 41.952C220.25 39.776 219.098 38.496 218.394 38.112C217.754 37.728 217.018 37.344 216.186 36.96C213.434 35.68 212.058 34.304 212.058 32.832C212.058 31.744 212.634 30.624 213.786 29.472C215.002 28.256 216.634 27.648 218.682 27.648C222.586 27.648 225.818 28.992 228.378 31.68C230.938 34.304 232.954 37.664 234.426 41.76C235.962 45.792 237.082 50.048 237.786 54.528C238.554 58.944 239.034 63.072 239.226 66.912C239.418 70.752 239.514 73.664 239.514 75.648C239.514 78.016 238.97 79.872 237.882 81.216C236.794 82.496 235.61 83.392 234.33 83.904C233.05 84.416 232.09 84.672 231.45 84.672Z" fill="#F5F9FF"/>
</svg>
