<svg width="262" height="87" viewBox="0 0 262 87" fill="none" xmlns="http://www.w3.org/2000/svg">
<path d="M16.8959 86.112C13.7599 86.112 10.9119 85.344 8.35187 83.808C5.79187 82.336 3.74387 80.704 2.20787 78.912C0.735867 77.12 -0.00013274 75.744 -0.00013274 74.784C-0.00013274 73.632 0.511867 72.64 1.53587 71.808C2.55987 70.912 3.55187 70.464 4.51187 70.464C5.02387 70.464 6.33587 71.296 8.44787 72.96C12.1599 75.776 14.8159 77.184 16.4159 77.184C16.9919 77.184 17.2799 77.088 17.2799 76.896C17.3439 76.704 17.4719 76.48 17.6639 76.224C18.1119 75.328 18.3359 74.464 18.3359 73.632C18.0799 69.088 17.0559 64.768 15.2639 60.672C13.5359 56.576 11.4879 52.48 9.11987 48.384C6.81587 44.224 4.73587 40 2.87987 35.712C1.02387 31.36 0.0958673 26.816 0.0958673 22.08C0.0958673 18.88 0.671867 15.584 1.82387 12.192C3.03987 8.736 4.67187 5.856 6.71987 3.552C8.83187 1.184 11.2319 1.90735e-06 13.9199 1.90735e-06C16.4799 1.90735e-06 18.7199 1.152 20.6399 3.456C22.5599 5.696 23.5199 8.57601 23.5199 12.096C23.5199 16.96 21.9519 19.392 18.8159 19.392C17.6639 19.392 16.9279 18.976 16.6079 18.144C16.3519 17.312 16.1919 16.32 16.1279 15.168C16.0639 13.952 15.8079 12.768 15.3599 11.616C14.9759 10.4 14.1119 9.44001 12.7679 8.736C12.2559 10.08 11.9999 11.2 11.9999 12.096L11.9039 13.344L13.5359 23.52C14.3039 27.36 16.8639 33.056 21.2159 40.608C22.8159 43.424 24.3519 46.336 25.8239 49.344C29.4079 56.576 31.1999 63.232 31.1999 69.312C31.1999 74.88 29.7599 79.072 26.8799 81.888C24.0639 84.704 20.7359 86.112 16.8959 86.112ZM42.1844 81.312C41.4164 81.312 40.6164 81.152 39.7844 80.832C36.9044 79.68 35.4644 71.424 35.4644 56.064C35.4644 47.872 36.0084 41.824 37.0964 37.92L38.5364 35.232C40.0084 32.736 41.9604 31.488 44.3924 31.488C47.5284 31.488 49.0964 33.568 49.0964 37.728C49.0964 38.944 49.0004 40.416 48.8084 42.144C48.5524 44.704 48.4244 47.744 48.4244 51.264C48.4244 56 48.7444 61.248 49.3844 67.008C49.7044 69.056 49.8644 71.104 49.8644 73.152C49.8644 75.136 49.3844 76.736 48.4244 77.952C47.4644 79.104 46.3764 79.968 45.1604 80.544C43.9444 81.056 42.9524 81.312 42.1844 81.312ZM41.7044 24.48C38.4404 24.48 36.8084 22.848 36.8084 19.584C36.8084 14.528 38.1844 11.072 40.9364 9.216C42.4724 8.256 44.0084 7.776 45.5444 7.776C48.5524 7.776 50.0564 9.28 50.0564 12.288C50.0564 12.928 49.9604 13.824 49.7684 14.976C49.7684 15.36 49.8004 15.648 49.8644 15.84C49.8644 18.464 48.9044 20.576 46.9844 22.176C45.1284 23.712 43.3684 24.48 41.7044 24.48ZM62.4411 84.96H61.4811C59.9451 84.96 58.6971 83.488 57.7371 80.544C56.3931 76.192 55.7211 67.936 55.7211 55.776C55.7211 50.784 55.9451 45.792 56.3931 40.8C56.9051 34.656 57.9611 30.688 59.5611 28.896C61.3531 26.848 63.2411 25.824 65.2251 25.824C65.9931 25.824 66.7611 26.016 67.5291 26.4H67.4331C67.7531 26.528 68.1051 26.816 68.4891 27.264C68.9371 27.712 69.2251 28.192 69.3531 28.704C69.7371 29.984 69.9291 30.88 69.9291 31.392C69.9291 31.968 69.8651 32.608 69.7371 33.312C69.5451 34.528 69.2891 37.504 68.9691 42.24C69.6731 40.96 70.4731 39.648 71.3691 38.304C74.5691 33.632 78.0251 31.296 81.7371 31.296C83.4651 31.296 84.9691 31.84 86.2491 32.928C87.5931 33.952 88.2651 35.168 88.2651 36.576C88.2651 37.6 87.8491 38.72 87.0171 39.936C86.2491 41.152 85.1611 41.76 83.7531 41.76C83.0491 41.76 82.4731 41.536 82.0251 41.088C81.6411 40.576 81.2891 39.904 80.9691 39.072L79.6251 38.304C79.4971 38.304 79.3371 38.336 79.1451 38.4C79.0171 38.464 78.8891 38.56 78.7611 38.688C78.6331 38.752 78.4411 38.912 78.1851 39.168C77.9291 39.36 77.6731 39.616 77.4171 39.936C74.4731 43.456 72.4571 47.008 71.3691 50.592C70.3451 54.112 69.6091 58.56 69.1611 63.936C69.4171 66.496 69.6091 68.512 69.7371 69.984C69.9291 71.392 70.0891 72.576 70.2171 73.536C70.4091 74.432 70.5691 75.456 70.6971 76.608C70.6971 78.464 69.8971 80.32 68.2971 82.176C66.6971 84.032 64.7451 84.96 62.4411 84.96ZM90.3816 74.688C90.8296 74.624 91.2136 74.592 91.5336 74.592C91.8536 74.592 92.0456 74.56 92.1096 74.496C92.1736 74.368 92.2696 74.272 92.3976 74.208C92.5896 74.144 93.3576 73.728 94.7016 72.96C94.9576 72.832 95.8216 72 97.2936 70.464C98.9576 68.416 99.9816 66.944 100.366 66.048C100.622 65.536 100.814 65.248 100.942 65.184C101.262 64.352 101.422 63.296 101.422 62.016C101.422 60.672 101.262 59.36 100.942 58.08C100.686 56.736 100.366 55.872 99.9816 55.488C99.3416 55.168 98.5416 55.008 97.5816 55.008C96.3656 55.008 95.1496 55.168 93.9336 55.488C92.7176 55.744 91.9496 55.968 91.6296 56.16C87.7256 59.68 85.7736 63.328 85.7736 67.104C85.7736 68.384 85.9016 69.44 86.1576 70.272C86.5416 71.68 86.9256 72.704 87.3096 73.344C87.7576 73.92 88.7816 74.368 90.3816 74.688ZM111.022 85.44C108.206 85.44 106.542 83.872 106.03 80.736C105.838 79.392 105.678 77.056 105.55 73.728C100.046 80.384 94.1896 83.712 87.9816 83.712C84.9736 83.712 82.3496 82.592 80.1096 80.352C77.8696 78.112 76.7496 74.72 76.7496 70.176C76.7496 64.16 79.0856 58.624 83.7576 53.568C88.4296 48.448 93.4216 45.888 98.7336 45.888C100.206 45.888 101.742 46.208 103.342 46.848C102.83 45.312 102.19 43.936 101.422 42.72C99.8216 40.544 98.6696 39.264 97.9656 38.88C97.3256 38.496 96.5896 38.112 95.7576 37.728C93.0056 36.448 91.6296 35.072 91.6296 33.6C91.6296 32.512 92.2056 31.392 93.3576 30.24C94.5736 29.024 96.2056 28.416 98.2536 28.416C102.158 28.416 105.39 29.76 107.95 32.448C110.51 35.072 112.526 38.432 113.998 42.528C115.534 46.56 116.654 50.816 117.358 55.296C118.126 59.712 118.606 63.84 118.798 67.68C118.99 71.52 119.086 74.432 119.086 76.416C119.086 78.784 118.542 80.64 117.454 81.984C116.366 83.264 115.182 84.16 113.902 84.672C112.622 85.184 111.662 85.44 111.022 85.44ZM136.84 67.104L136.744 66.432L136.84 67.104ZM135.112 83.136C130.632 83.136 127.496 81.184 125.704 77.28C123.912 73.312 123.016 67.488 123.016 59.808C123.016 53.152 123.304 48.064 123.88 44.544C124.648 39.168 126.216 35.296 128.584 32.928C131.592 29.472 134.92 27.744 138.568 27.744C141.192 27.744 143.688 28.704 146.056 30.624C148.488 32.544 149.704 34.784 149.704 37.344L149.608 38.88C149.608 39.84 149.16 40.8 148.264 41.76C147.432 42.656 146.472 43.104 145.384 43.104C144.232 43.104 143.4 42.496 142.888 41.28C142.44 40.96 142.12 40.672 141.928 40.416C141.608 39.968 140.104 39.296 137.416 38.4C136.392 42.56 135.88 48.192 135.88 55.296C135.88 59.648 136.168 63.424 136.744 66.624C136.744 67.776 137.832 69.792 140.008 72.672L140.296 72.768C141.448 72.192 142.28 71.712 142.792 71.328C142.792 71.136 143.528 70.528 145 69.504C146.536 68.48 147.784 67.968 148.744 67.968C150.856 67.968 151.912 68.928 151.912 70.848C151.912 72.64 150.888 74.496 148.84 76.416C146.856 78.336 144.52 79.936 141.832 81.216C139.208 82.496 136.968 83.136 135.112 83.136ZM168.744 84.096C165.992 84.096 163.368 83.232 160.872 81.504C156.328 78.432 154.056 72.416 154.056 63.456C154.056 61.92 154.28 56.704 154.728 47.808C155.112 39.36 155.432 34.176 155.688 32.256C156.072 30.208 156.936 28.352 158.28 26.688C159.688 25.024 161.512 24.192 163.752 24.192C164.84 24.192 165.8 24.576 166.632 25.344C167.72 26.944 168.264 28.64 168.264 30.432L168.072 35.52C167.368 49.472 167.016 57.344 167.016 59.136C167.016 62.4 167.24 64.704 167.688 66.048L168.456 68.448C169.224 70.496 170.248 72.16 171.528 73.44L171.624 73.536C172.072 73.792 172.392 73.984 172.584 74.112C172.84 74.24 173.48 74.304 174.504 74.304C174.76 74.24 174.952 74.176 175.08 74.112C175.272 74.048 175.464 73.984 175.656 73.92C175.848 73.856 176.2 73.632 176.712 73.248C179.912 69.024 181.512 61.984 181.512 52.128C181.512 49.952 181.416 47.648 181.224 45.216C181.032 42.72 180.84 40.512 180.648 38.592C180.52 36.672 180.456 35.424 180.456 34.848C180.456 33.376 181.032 32.192 182.184 31.296C183.4 30.336 184.52 29.856 185.544 29.856C186.952 29.856 187.944 30.688 188.52 32.352C189.224 36.832 189.576 41.376 189.576 45.984C189.576 55.2 188.008 63.488 184.872 70.848C181.16 79.68 175.784 84.096 168.744 84.096ZM200.51 83.232C196.798 83.232 194.942 81.664 194.942 78.528C194.942 77.504 195.294 76.256 195.998 74.784C197.214 72.352 199.486 70.976 202.814 70.656C202.942 69.824 203.006 69.12 203.006 68.544C203.006 66.56 202.846 65.408 202.526 65.088V64.992C202.526 63.968 201.566 61.536 199.646 57.696C197.598 53.472 195.966 49.28 194.75 45.12C193.598 40.896 193.022 37.664 193.022 35.424C193.022 32.224 193.662 29.568 194.942 27.456C196.286 25.344 197.854 23.776 199.646 22.752C201.438 21.664 203.006 21.12 204.35 21.12C207.102 21.12 208.478 22.208 208.478 24.384C208.478 26.176 207.294 27.616 204.926 28.704C204.222 29.152 203.742 29.44 203.486 29.568C203.294 29.696 203.166 29.824 203.102 29.952C203.038 30.016 202.942 30.112 202.814 30.24C202.75 30.368 202.654 31.104 202.526 32.448C202.526 33.024 202.526 33.344 202.526 33.408C202.59 33.408 202.622 33.504 202.622 33.696C202.622 33.824 202.718 34.464 202.91 35.616C203.55 37.92 204.414 39.84 205.502 41.376C205.694 41.44 206.622 42.624 208.286 44.928C213.342 51.904 215.87 58.592 215.87 64.992C215.87 69.216 214.974 72.672 213.182 75.36C211.39 78.048 209.278 80.032 206.846 81.312C204.478 82.592 202.366 83.232 200.51 83.232ZM232.507 74.688C232.955 74.624 233.339 74.592 233.659 74.592C233.979 74.592 234.171 74.56 234.235 74.496C234.299 74.368 234.395 74.272 234.523 74.208C234.715 74.144 235.483 73.728 236.827 72.96C237.083 72.832 237.947 72 239.419 70.464C241.083 68.416 242.107 66.944 242.491 66.048C242.747 65.536 242.939 65.248 243.067 65.184C243.387 64.352 243.547 63.296 243.547 62.016C243.547 60.672 243.387 59.36 243.067 58.08C242.811 56.736 242.491 55.872 242.107 55.488C241.467 55.168 240.667 55.008 239.707 55.008C238.491 55.008 237.275 55.168 236.059 55.488C234.843 55.744 234.075 55.968 233.755 56.16C229.851 59.68 227.899 63.328 227.899 67.104C227.899 68.384 228.027 69.44 228.283 70.272C228.667 71.68 229.051 72.704 229.435 73.344C229.883 73.92 230.907 74.368 232.507 74.688ZM253.147 85.44C250.331 85.44 248.667 83.872 248.155 80.736C247.963 79.392 247.803 77.056 247.675 73.728C242.171 80.384 236.315 83.712 230.107 83.712C227.099 83.712 224.475 82.592 222.235 80.352C219.995 78.112 218.875 74.72 218.875 70.176C218.875 64.16 221.211 58.624 225.883 53.568C230.555 48.448 235.547 45.888 240.859 45.888C242.331 45.888 243.867 46.208 245.467 46.848C244.955 45.312 244.315 43.936 243.547 42.72C241.947 40.544 240.795 39.264 240.091 38.88C239.451 38.496 238.715 38.112 237.883 37.728C235.131 36.448 233.755 35.072 233.755 33.6C233.755 32.512 234.331 31.392 235.483 30.24C236.699 29.024 238.331 28.416 240.379 28.416C244.283 28.416 247.515 29.76 250.075 32.448C252.635 35.072 254.651 38.432 256.123 42.528C257.659 46.56 258.779 50.816 259.483 55.296C260.251 59.712 260.731 63.84 260.923 67.68C261.115 71.52 261.211 74.432 261.211 76.416C261.211 78.784 260.667 80.64 259.579 81.984C258.491 83.264 257.307 84.16 256.027 84.672C254.747 85.184 253.787 85.44 253.147 85.44Z" fill="#F5F9FF"/>
</svg>
