<svg width="246" height="92" viewBox="0 0 246 92" fill="none" xmlns="http://www.w3.org/2000/svg">
<path d="M27.2638 85.536H26.5918C26.1438 85.536 25.5998 85.28 24.9598 84.768C24.3198 84.32 23.6478 83.232 22.9438 81.504C22.2398 79.712 21.5678 76.992 20.9278 73.344C20.2878 69.632 19.7758 64.64 19.3918 58.368C19.0078 52.096 18.8158 44.16 18.8158 34.56C18.8158 24.832 19.2958 16.544 20.2558 9.69599C14.0478 9.95199 9.75984 10.08 7.39184 10.08C5.47184 10.08 3.83984 9.95199 2.49584 9.69599H1.82384C0.607844 9.37599 -0.000156522 8.63999 -0.000156522 7.48799C-0.000156522 5.11999 1.56784 3.67999 4.70384 3.16799C7.83984 2.59199 13.2798 2.23999 21.0238 2.11199C21.9198 2.04799 22.8478 2.01599 23.8078 2.01599C25.4078 0.671989 26.9118 -1.14441e-05 28.3198 -1.14441e-05C29.5358 -1.14441e-05 30.6238 0.575989 31.5838 1.72799L39.5518 1.43999C40.2558 1.43999 40.8638 1.47199 41.3758 1.53599C41.9518 1.59999 43.1678 1.88799 45.0238 2.39999C46.0478 2.71999 46.5598 3.32799 46.5598 4.22399C46.5598 4.86399 46.3038 5.53599 45.7918 6.23999C45.3438 6.87999 44.7678 7.32799 44.0638 7.58399C42.8478 7.90399 41.8878 8.15999 41.1838 8.35199C40.4798 8.54399 39.9038 8.70399 39.4558 8.83199C39.0078 8.89599 37.5678 8.99199 35.1358 9.11999L32.6398 9.21599C31.9998 17.472 31.6798 25.152 31.6798 32.256C31.6798 46.848 32.7678 60.672 34.9438 73.728C35.2638 75.712 35.4238 76.992 35.4238 77.568C35.4238 79.488 34.5598 81.28 32.8318 82.944C31.1038 84.672 29.2478 85.536 27.2638 85.536ZM46.2546 84.096H45.2946C43.7586 84.096 42.5106 82.624 41.5506 79.68C40.2066 75.328 39.5346 67.072 39.5346 54.912C39.5346 49.92 39.7586 44.928 40.2066 39.936C40.7186 33.792 41.7746 29.824 43.3746 28.032C45.1666 25.984 47.0546 24.96 49.0386 24.96C49.8066 24.96 50.5746 25.152 51.3426 25.536H51.2466C51.5666 25.664 51.9186 25.952 52.3026 26.4C52.7506 26.848 53.0386 27.328 53.1666 27.84C53.5506 29.12 53.7426 30.016 53.7426 30.528C53.7426 31.104 53.6786 31.744 53.5506 32.448C53.3586 33.664 53.1026 36.64 52.7826 41.376C53.4866 40.096 54.2866 38.784 55.1826 37.44C58.3826 32.768 61.8386 30.432 65.5506 30.432C67.2786 30.432 68.7826 30.976 70.0626 32.064C71.4066 33.088 72.0786 34.304 72.0786 35.712C72.0786 36.736 71.6626 37.856 70.8306 39.072C70.0626 40.288 68.9746 40.896 67.5666 40.896C66.8626 40.896 66.2866 40.672 65.8386 40.224C65.4546 39.712 65.1026 39.04 64.7826 38.208L63.4386 37.44C63.3106 37.44 63.1506 37.472 62.9586 37.536C62.8306 37.6 62.7026 37.696 62.5746 37.824C62.4466 37.888 62.2546 38.048 61.9986 38.304C61.7426 38.496 61.4866 38.752 61.2306 39.072C58.2866 42.592 56.2706 46.144 55.1826 49.728C54.1586 53.248 53.4226 57.696 52.9746 63.072C53.2306 65.632 53.4226 67.648 53.5506 69.12C53.7426 70.528 53.9026 71.712 54.0306 72.672C54.2226 73.568 54.3826 74.592 54.5106 75.744C54.5106 77.6 53.7106 79.456 52.1106 81.312C50.5106 83.168 48.5586 84.096 46.2546 84.096ZM74.1951 73.824C74.6431 73.76 75.0271 73.728 75.3471 73.728C75.6671 73.728 75.8591 73.696 75.9231 73.632C75.9871 73.504 76.0831 73.408 76.2111 73.344C76.4031 73.28 77.1711 72.864 78.5151 72.096C78.7711 71.968 79.6351 71.136 81.1071 69.6C82.7711 67.552 83.7951 66.08 84.1791 65.184C84.4351 64.672 84.6271 64.384 84.7551 64.32C85.0751 63.488 85.2351 62.432 85.2351 61.152C85.2351 59.808 85.0751 58.496 84.7551 57.216C84.4991 55.872 84.1791 55.008 83.7951 54.624C83.1551 54.304 82.3551 54.144 81.3951 54.144C80.1791 54.144 78.9631 54.304 77.7471 54.624C76.5311 54.88 75.7631 55.104 75.4431 55.296C71.5391 58.816 69.5871 62.464 69.5871 66.24C69.5871 67.52 69.7151 68.576 69.9711 69.408C70.3551 70.816 70.7391 71.84 71.1231 72.48C71.5711 73.056 72.5951 73.504 74.1951 73.824ZM94.8351 84.576C92.0191 84.576 90.3551 83.008 89.8431 79.872C89.6511 78.528 89.4911 76.192 89.3631 72.864C83.8591 79.52 78.0031 82.848 71.7951 82.848C68.7871 82.848 66.1631 81.728 63.9231 79.488C61.6831 77.248 60.5631 73.856 60.5631 69.312C60.5631 63.296 62.8991 57.76 67.5711 52.704C72.2431 47.584 77.2351 45.024 82.5471 45.024C84.0191 45.024 85.5551 45.344 87.1551 45.984C86.6431 44.448 86.0031 43.072 85.2351 41.856C83.6351 39.68 82.4831 38.4 81.7791 38.016C81.1391 37.632 80.4031 37.248 79.5711 36.864C76.8191 35.584 75.4431 34.208 75.4431 32.736C75.4431 31.648 76.0191 30.528 77.1711 29.376C78.3871 28.16 80.0191 27.552 82.0671 27.552C85.9711 27.552 89.2031 28.896 91.7631 31.584C94.3231 34.208 96.3391 37.568 97.8111 41.664C99.3471 45.696 100.467 49.952 101.171 54.432C101.939 58.848 102.419 62.976 102.611 66.816C102.803 70.656 102.899 73.568 102.899 75.552C102.899 77.92 102.355 79.776 101.267 81.12C100.179 82.4 98.9951 83.296 97.7151 83.808C96.4351 84.32 95.4751 84.576 94.8351 84.576ZM129.581 53.952C130.093 53.888 130.413 53.856 130.541 53.856C130.733 53.856 130.861 53.856 130.925 53.856C131.053 53.792 131.245 53.728 131.501 53.664C131.821 53.6 132.365 53.344 133.133 52.896C133.901 52.448 134.285 52.192 134.285 52.128L133.709 52.512C135.053 51.488 136.333 49.984 137.549 48L137.645 47.904C137.837 47.584 138.445 46.112 139.469 43.488C140.429 39.584 140.909 36.64 140.909 34.656C140.909 31.264 140.781 29.28 140.525 28.704C139.757 26.912 139.245 25.952 138.989 25.824C138.797 25.696 138.573 25.536 138.317 25.344C137.549 25.92 136.429 27.52 134.957 30.144L134.765 30.432C131.181 37.6 128.429 45.184 126.509 53.184C126.573 53.184 126.669 53.216 126.797 53.28C126.925 53.344 127.181 53.44 127.565 53.568C127.949 53.696 128.621 53.824 129.581 53.952ZM115.373 91.68C114.221 91.68 113.229 91.296 112.397 90.528C111.565 89.824 110.829 88.224 110.189 85.728C109.549 83.296 108.941 79.616 108.365 74.688C107.853 69.696 107.597 64.768 107.597 59.904C107.597 50.24 108.237 41.504 109.517 33.696C110.861 25.824 112.429 20.992 114.221 19.2C114.221 18.944 114.605 18.464 115.373 17.76C116.397 16.928 117.485 16.512 118.637 16.512C120.045 16.512 120.941 17.024 121.325 18.048C121.453 18.432 121.549 18.752 121.613 19.008C121.741 19.2 121.869 19.488 121.997 19.872C122.125 20.192 122.189 21.376 122.189 23.424C122.189 25.536 121.965 28.352 121.517 31.872C120.493 39.168 119.981 46.176 119.981 52.896C126.509 29.6 133.453 17.952 140.813 17.952C144.269 17.952 146.637 19.872 147.917 23.712C148.685 26.08 149.069 28.672 149.069 31.488C149.069 39.232 147.149 46.4 143.309 52.992C139.021 60.416 133.421 64.128 126.509 64.128C125.613 64.128 125.005 64.096 124.685 64.032H124.493C123.661 69.344 123.149 75.392 122.957 82.176L123.245 83.904C123.245 85.824 122.445 87.584 120.845 89.184C119.245 90.848 117.421 91.68 115.373 91.68ZM154.258 73.824C154.706 73.76 155.09 73.728 155.41 73.728C155.73 73.728 155.922 73.696 155.986 73.632C156.05 73.504 156.146 73.408 156.274 73.344C156.466 73.28 157.234 72.864 158.578 72.096C158.834 71.968 159.698 71.136 161.17 69.6C162.834 67.552 163.858 66.08 164.242 65.184C164.498 64.672 164.69 64.384 164.818 64.32C165.138 63.488 165.298 62.432 165.298 61.152C165.298 59.808 165.138 58.496 164.818 57.216C164.562 55.872 164.242 55.008 163.858 54.624C163.218 54.304 162.418 54.144 161.458 54.144C160.242 54.144 159.026 54.304 157.81 54.624C156.594 54.88 155.826 55.104 155.506 55.296C151.602 58.816 149.65 62.464 149.65 66.24C149.65 67.52 149.778 68.576 150.034 69.408C150.418 70.816 150.802 71.84 151.186 72.48C151.634 73.056 152.658 73.504 154.258 73.824ZM174.898 84.576C172.082 84.576 170.418 83.008 169.906 79.872C169.714 78.528 169.554 76.192 169.426 72.864C163.922 79.52 158.066 82.848 151.858 82.848C148.85 82.848 146.226 81.728 143.986 79.488C141.746 77.248 140.626 73.856 140.626 69.312C140.626 63.296 142.962 57.76 147.634 52.704C152.306 47.584 157.298 45.024 162.61 45.024C164.082 45.024 165.618 45.344 167.218 45.984C166.706 44.448 166.066 43.072 165.298 41.856C163.698 39.68 162.546 38.4 161.842 38.016C161.202 37.632 160.466 37.248 159.634 36.864C156.882 35.584 155.506 34.208 155.506 32.736C155.506 31.648 156.082 30.528 157.234 29.376C158.45 28.16 160.082 27.552 162.13 27.552C166.034 27.552 169.266 28.896 171.826 31.584C174.386 34.208 176.402 37.568 177.874 41.664C179.41 45.696 180.53 49.952 181.234 54.432C182.002 58.848 182.482 62.976 182.674 66.816C182.866 70.656 182.962 73.568 182.962 75.552C182.962 77.92 182.418 79.776 181.33 81.12C180.242 82.4 179.058 83.296 177.778 83.808C176.498 84.32 175.538 84.576 174.898 84.576ZM218.86 83.808C216.812 83.808 215.788 82.656 215.788 80.352C215.788 79.584 215.916 78.496 216.172 77.088C216.684 74.08 217.004 69.6 217.132 63.648C217.132 59.936 216.588 55.904 215.5 51.552C215.5 50.144 214.252 47.04 211.756 42.24L211.852 42.144C211.788 42.144 211.692 42.08 211.564 41.952C211.5 41.76 211.436 41.664 211.372 41.664L210.316 40.512C209.356 41.472 208.428 43.008 207.532 45.12C205.804 49.088 204.012 57.088 202.156 69.12C202.54 70.464 202.732 71.872 202.732 73.344C202.732 75.84 201.868 77.856 200.14 79.392C198.412 80.928 196.588 81.696 194.668 81.696C194.54 81.76 194.316 81.792 193.996 81.792C192.332 81.792 190.924 80.096 189.772 76.704C187.916 71.584 186.988 62.368 186.988 49.056C186.988 44.256 187.436 40.64 188.332 38.208C189.228 35.776 190.284 34.144 191.5 33.312C192.716 32.48 193.868 32.064 194.956 32.064C197.964 32.064 199.564 35.36 199.756 41.952C201.292 38.304 202.988 35.68 204.844 34.08C206.764 32.48 208.492 31.52 210.028 31.2C211.628 30.816 212.62 30.624 213.004 30.624C216.14 30.752 218.348 31.84 219.628 33.888C220.972 35.936 221.932 38.112 222.508 40.416C223.66 44.064 224.396 47.328 224.716 50.208C225.036 53.088 225.196 56.736 225.196 61.152C225.196 69.984 224.684 75.968 223.66 79.104C222.636 82.24 221.036 83.808 218.86 83.808ZM237.404 80.448C236.636 80.448 235.836 80.288 235.004 79.968C232.124 78.816 230.684 70.56 230.684 55.2C230.684 47.008 231.228 40.96 232.316 37.056L233.756 34.368C235.228 31.872 237.18 30.624 239.612 30.624C242.748 30.624 244.316 32.704 244.316 36.864C244.316 38.08 244.22 39.552 244.028 41.28C243.772 43.84 243.644 46.88 243.644 50.4C243.644 55.136 243.964 60.384 244.604 66.144C244.924 68.192 245.084 70.24 245.084 72.288C245.084 74.272 244.604 75.872 243.644 77.088C242.684 78.24 241.596 79.104 240.38 79.68C239.164 80.192 238.172 80.448 237.404 80.448ZM236.924 23.616C233.66 23.616 232.028 21.984 232.028 18.72C232.028 13.664 233.404 10.208 236.156 8.35199C237.692 7.39199 239.228 6.91199 240.764 6.91199C243.772 6.91199 245.276 8.41599 245.276 11.424C245.276 12.064 245.18 12.96 244.988 14.112C244.988 14.496 245.02 14.784 245.084 14.976C245.084 17.6 244.124 19.712 242.204 21.312C240.348 22.848 238.588 23.616 236.924 23.616Z" fill="#F5F9FF"/>
</svg>
